<svg id="Layer_1" data-name="Layer 1" xmlns="http://www.w3.org/2000/svg" viewBox="0 0 498 498"><defs><style>.cls-1{fill:#00779e;}.cls-2{fill:#006080;}</style></defs><title>moon</title><path class="cls-1" d="M499,250A248.8,248.8,0,0,1,250,499C112.48,499,1,387.52,1,250A248.77,248.77,0,0,1,250,1C387.52,1,499,112.48,499,250Z" transform="translate(-1 -1)"/><path class="cls-2" d="M355.48,462.53l-74,34.49A250.5,250.5,0,0,1,250,499C112.48,499,1,387.52,1,250A248.23,248.23,0,0,1,75,72.83l74.88-34.91A21.44,21.44,0,1,1,168,76.78L116.73,100.7a21.44,21.44,0,1,0,18.13,38.86l3.11-1.44A21.44,21.44,0,0,1,156.09,177L67.47,218.31A21.44,21.44,0,1,0,85.6,257.17l94.83-44.23a21.45,21.45,0,0,1,18.13,38.88l-26.44,12.32A21.44,21.44,0,1,0,190.25,303l127.47-59.44a21.44,21.44,0,1,1,18.13,38.86l-68.4,31.9a21.44,21.44,0,1,0,18.12,38.86l28-13A21.44,21.44,0,1,1,331.67,379l-70,32.63a21.44,21.44,0,1,0,18.13,38.86l57.53-26.82a21.44,21.44,0,1,1,18.11,38.86Z" transform="translate(-1 -1)"/></svg>