<svg id="Layer_1" data-name="Layer 1" xmlns="http://www.w3.org/2000/svg" viewBox="0 0 498 498"><defs><style>.cls-1{fill:#fc8100;}.cls-2{fill:#9c5000;}</style></defs><title>planet</title><path class="cls-1" d="M499,250A248.95,248.95,0,0,1,250,499C112.48,499,1,387.52,1,250,1,142.9,68.61,51.59,163.49,16.44A248.56,248.56,0,0,1,250,1C387.52,1,499,112.48,499,250Z" transform="translate(-1 -1)"/><path class="cls-2" d="M384.94,459.29A247.75,247.75,0,0,1,250,499C112.48,499,1,387.52,1,250,1,142.9,68.61,51.59,163.49,16.44a15.55,15.55,0,0,1,1.15,2,15.15,15.15,0,0,1-7.32,20.12l-18.66,8.7a15.14,15.14,0,1,0,12.79,27.44l67-31.22A15.14,15.14,0,0,1,231.21,71L195,87.85a15.14,15.14,0,1,0,12.8,27.44l2.2-1a15.14,15.14,0,0,1,12.79,27.44L160.2,170.89A15.14,15.14,0,1,0,173,198.33l67-31.23a15.14,15.14,0,0,1,12.8,27.45l-18.67,8.7a15.14,15.14,0,1,0,12.8,27.44l90-42a15.14,15.14,0,0,1,12.8,27.44l-48.3,22.52a15.14,15.14,0,1,0,12.8,27.44L334,256.91a15.14,15.14,0,0,1,12.8,27.44l-49.4,23a15.14,15.14,0,1,0,12.8,27.44l40.62-18.94a15.14,15.14,0,0,1,12.79,27.44L304.29,371a15.14,15.14,0,1,0,12.79,27.44l42.81-20a15.14,15.14,0,0,1,12.8,27.44l-24.15,11.26a15.14,15.14,0,0,0,12.8,27.45l2.19-1a15.15,15.15,0,0,1,21.41,15.72Z" transform="translate(-1 -1)"/></svg>