<svg xmlns="http://www.w3.org/2000/svg" viewBox="0 0 1161.92 852.74"><title>spacebg</title><g id="Layer_1" data-name="Layer 1"><path d="M1920,0V787.09l-135.49,63.18a26.3,26.3,0,1,1-22.23-47.67l3.81-1.78a26.29,26.29,0,1,0-22.23-47.66l-41.94,19.56a26.3,26.3,0,1,1-22.23-47.67l74.36-34.68a26.29,26.29,0,1,0-22.23-47.66l-103,48a26.3,26.3,0,1,1-22.23-47.67l70.55-32.9A26.3,26.3,0,0,0,1655,562.48l-85.8,40a26.29,26.29,0,1,1-22.23-47.66l34.32-16A26.3,26.3,0,0,0,1559,491.15l-83.89,39.13a26.3,26.3,0,1,1-22.23-47.67l156.35-72.91A26.3,26.3,0,0,0,1587,362l-32.41,15.12a26.3,26.3,0,1,1-22.23-47.67l116.31-54.24a26.3,26.3,0,0,0-22.23-47.67l-108.68,50.68a26.29,26.29,0,1,1-22.23-47.66l3.82-1.78a26.3,26.3,0,0,0-22.23-47.67l-62.92,29.34A26.3,26.3,0,0,1,1392,162.81l116.31-54.23a26.3,26.3,0,0,0-22.23-47.67L1453.65,76a26.29,26.29,0,1,1-22.23-47.66L1492.24,0Z" transform="translate(-758.08)" style="fill:#1e2028"/></g><g id="Layer_6" data-name="Layer 6"><rect x="474.59" y="262.19" width="6.7" height="6.94" style="fill:none"/><path d="M1236,269.12c4.46,0,4.47-6.93,0-6.93s-4.47,6.93,0,6.93Z" transform="translate(-758.08)" style="fill:#fff"/><rect x="602.11" y="407.86" width="2.93" height="3.04" style="fill:none"/><path d="M1361.65,410.9a1.52,1.52,0,0,0,0-3,1.52,1.52,0,0,0,0,3Z" transform="translate(-758.08)" style="fill:#fff"/><rect x="661.99" y="352.63" width="3.17" height="3.28" style="fill:none"/><path d="M1421.66,355.91a1.64,1.64,0,0,0,0-3.28,1.64,1.64,0,0,0,0,3.28Z" transform="translate(-758.08)" style="fill:#fff"/><rect x="657.64" y="315.42" width="10.86" height="11.24" style="fill:none"/><path d="M1421.15,326.66c7.24,0,7.25-11.24,0-11.24s-7.24,11.24,0,11.24Z" transform="translate(-758.08)" style="fill:#fff"/><rect x="752.76" y="490.78" width="4.3" height="4.45" style="fill:none"/><path d="M1513,495.23c2.87,0,2.87-4.45,0-4.45s-2.87,4.45,0,4.45Z" transform="translate(-758.08)" style="fill:#fff"/><rect x="733.46" y="452.77" width="6.88" height="7.13" style="fill:none"/><path d="M1495,459.9c4.58,0,4.59-7.13,0-7.13s-4.6,7.13,0,7.13Z" transform="translate(-758.08)" style="fill:#fff"/><rect x="756.64" y="423.61" width="13.37" height="13.84" style="fill:none"/><path d="M1521.4,437.45c8.91,0,8.92-13.84,0-13.84s-8.92,13.84,0,13.84Z" transform="translate(-758.08)" style="fill:#fff"/><rect x="762.48" y="181.53" width="5.84" height="6.04" style="fill:none"/><path d="M1523.48,187.57c3.89,0,3.89-6,0-6s-3.9,6,0,6Z" transform="translate(-758.08)" style="fill:#fff"/><rect x="927.9" y="378.45" width="13.54" height="14.01" style="fill:none"/><path d="M1692.75,392.46c9,0,9-14,0-14s-9,14,0,14Z" transform="translate(-758.08)" style="fill:#fff"/><rect x="751.86" y="803.13" width="5.95" height="6.16" style="fill:none"/><path d="M1512.91,809.28c4,0,4-6.15,0-6.15s-4,6.15,0,6.15Z" transform="translate(-758.08)" style="fill:#fff"/><rect x="794.46" y="684.07" width="5.97" height="6.18" style="fill:none"/><path d="M1555.53,690.24c4,0,4-6.17,0-6.17s-4,6.17,0,6.17Z" transform="translate(-758.08)" style="fill:#fff"/><rect x="751.94" y="655.92" width="13.97" height="14.47" style="fill:none"/><path d="M1517,670.39c9.31,0,9.32-14.47,0-14.47s-9.33,14.47,0,14.47Z" transform="translate(-758.08)" style="fill:#fff"/><rect x="463.12" y="78.75" width="7.81" height="8.09" style="fill:none"/><path d="M1225.11,86.84c5.2,0,5.21-8.09,0-8.09s-5.22,8.09,0,8.09Z" transform="translate(-758.08)" style="fill:#fff"/><rect x="424.66" y="97.74" width="2.13" height="2.2" style="fill:none"/><path d="M1183.81,99.94a1.1,1.1,0,0,0,0-2.2,1.1,1.1,0,0,0,0,2.2Z" transform="translate(-758.08)" style="fill:#fff"/><rect x="560.48" y="202.03" width="6.77" height="7.01" style="fill:none"/><path d="M1322,209c4.51,0,4.52-7,0-7s-4.52,7,0,7Z" transform="translate(-758.08)" style="fill:#fff"/><rect x="499.19" y="652.36" width="10.85" height="11.23" style="fill:none"/><path d="M1262.7,663.6c7.23,0,7.24-11.24,0-11.24s-7.24,11.24,0,11.24Z" transform="translate(-758.08)" style="fill:#fff"/><rect x="232.53" y="379" width="13.95" height="14.44" style="fill:none"/><path d="M997.58,393.43c9.29,0,9.31-14.43,0-14.43s-9.3,14.43,0,14.43Z" transform="translate(-758.08)" style="fill:#fff"/><rect x="348.43" y="343.18" width="6.45" height="6.68" style="fill:none"/><path d="M1109.73,349.86c4.3,0,4.31-6.68,0-6.68s-4.3,6.68,0,6.68Z" transform="translate(-758.08)" style="fill:#fff"/><rect x="252.21" y="563.23" width="8.83" height="9.14" style="fill:none"/><path d="M1014.71,572.37c5.88,0,5.89-9.14,0-9.14s-5.89,9.14,0,9.14Z" transform="translate(-758.08)" style="fill:#fff"/><rect x="328.31" y="539.8" width="12.29" height="12.72" style="fill:none"/><path d="M1092.54,552.52c8.19,0,8.2-12.72,0-12.72s-8.2,12.72,0,12.72Z" transform="translate(-758.08)" style="fill:#fff"/><rect x="348.24" y="591.75" width="13.99" height="14.48" style="fill:none"/><path d="M1113.31,606.22c9.32,0,9.33-14.47,0-14.47s-9.33,14.47,0,14.47Z" transform="translate(-758.08)" style="fill:#fff"/><rect x="398.91" y="534.02" width="8.82" height="9.13" style="fill:none"/><path d="M1161.41,543.15c5.87,0,5.88-9.13,0-9.13s-5.89,9.13,0,9.13Z" transform="translate(-758.08)" style="fill:#fff"/><rect x="425.76" y="588.31" width="12.47" height="12.91" style="fill:none"/><path d="M1190.08,601.22c8.31,0,8.32-12.91,0-12.91s-8.32,12.91,0,12.91Z" transform="translate(-758.08)" style="fill:#fff"/><rect x="392.94" y="602.84" width="8.34" height="8.64" style="fill:none"/><path d="M1155.19,611.48c5.56,0,5.57-8.64,0-8.64s-5.57,8.64,0,8.64Z" transform="translate(-758.08)" style="fill:#fff"/><rect x="28.96" y="787.57" width="11.66" height="12.07" style="fill:none"/><path d="M792.88,799.64c7.77,0,7.78-12.07,0-12.07s-7.79,12.07,0,12.07Z" transform="translate(-758.08)" style="fill:#fff"/><rect y="798.82" width="10.87" height="11.25" style="fill:none"/><path d="M763.52,810.07c7.24,0,7.25-11.25,0-11.25s-7.26,11.25,0,11.25Z" transform="translate(-758.08)" style="fill:#fff"/></g></svg>