<?xml version="1.0" encoding="UTF-8" standalone="no"?><!DOCTYPE svg PUBLIC "-//W3C//DTD SVG 1.1//EN" "http://www.w3.org/Graphics/SVG/1.1/DTD/svg11.dtd"><svg width="100%" height="100%" viewBox="0 0 500 500" version="1.1" xmlns="http://www.w3.org/2000/svg" xmlns:xlink="http://www.w3.org/1999/xlink" xml:space="preserve" xmlns:serif="http://www.serif.com/" style="fill-rule:evenodd;clip-rule:evenodd;stroke-linejoin:round;stroke-miterlimit:2;"><circle cx="250" cy="250" r="250" style="fill:#00c8ff;"/><path d="M5,250l0,-113.494c0,-11.045 8.954,-20 20,-20l387,0c11.046,0 20,8.955 20,20l0,16.994l43,0c5.304,0 10.391,2.107 14.142,5.858c3.751,3.751 5.858,8.838 5.858,14.142l0,76.5l5,0l-0.001,0.808c-0.437,137.608 -112.29,249.192 -249.999,249.192c-137.979,0 -250,-112.021 -250,-250l5,0Z" style="fill:#00c8ff;"/><g><clipPath id="_clip1"><path d="M5,250l0,-113.494c0,-11.045 8.954,-20 20,-20l387,0c11.046,0 20,8.955 20,20l0,16.994l43,0c5.304,0 10.391,2.107 14.142,5.858c3.751,3.751 5.858,8.838 5.858,14.142l0,76.5l5,0l-0.001,0.808c-0.437,137.608 -112.29,249.192 -249.999,249.192c-137.979,0 -250,-112.021 -250,-250l5,0Z"/></clipPath><g clip-path="url(#_clip1)"><path d="M432,136.506c0,-5.304 -2.107,-10.391 -5.858,-14.142c-3.751,-3.751 -8.838,-5.858 -14.142,-5.858l-387,0c-5.304,0 -10.391,2.107 -14.142,5.858c-3.751,3.751 -5.858,8.838 -5.858,14.142l0,226.988c0,5.304 2.107,10.391 5.858,14.142c3.751,3.751 8.838,5.858 14.142,5.858l387,0c5.304,0 10.391,-2.107 14.142,-5.858c3.751,-3.751 5.858,-8.838 5.858,-14.142l0,-226.988Z" style="fill:#070707;"/><path d="M417.5,150.575c0,-11.046 -8.954,-20 -20,-20l-358,0c-11.046,0 -20,8.954 -20,20l0,198.85c0,11.046 8.954,20 20,20l348,0c16.569,0 30,-13.431 30,-30l0,-188.85Z" style="fill:#fff;"/><g><clipPath id="_clip2"><path d="M417.5,150.575c0,-11.046 -8.954,-20 -20,-20l-358,0c-11.046,0 -20,8.954 -20,20l0,198.85c0,11.046 8.954,20 20,20l348,0c16.569,0 30,-13.431 30,-30l0,-188.85Z"/></clipPath><g clip-path="url(#_clip2)"><path d="M149.5,263.328c0,-3.319 -2.694,-6.013 -6.013,-6.013l-106.771,0c-3.318,0 -6.013,2.694 -6.013,6.013l0,48.105c0,3.319 2.695,6.014 6.013,6.014l106.771,0c3.319,0 6.013,-2.695 6.013,-6.014l0,-48.105Z" style="fill:#fd8300;"/><path d="M116.506,236.577c0,-1.657 -1.346,-3.003 -3.003,-3.003l-79.797,0c-1.657,0 -3.003,1.346 -3.003,3.003l0,6.006c0,1.658 1.346,3.003 3.003,3.003l79.797,0c1.657,0 3.003,-1.345 3.003,-3.003l0,-6.006Z" style="fill:#454545;"/><path d="M149.5,327.346c0,-1.416 -1.15,-2.566 -2.567,-2.566l-113.663,0c-1.417,0 -2.567,1.15 -2.567,2.566l0,5.134c0,1.416 1.15,2.566 2.567,2.566l113.663,0c1.417,0 2.567,-1.15 2.567,-2.566l0,-5.134Z" style="fill:#afafaf;"/><path d="M149.5,343.479c0,-1.416 -1.15,-2.566 -2.567,-2.566l-113.663,0c-1.417,0 -2.567,1.15 -2.567,2.566l0,5.133c0,1.417 1.15,2.567 2.567,2.567l113.663,0c1.417,0 2.567,-1.15 2.567,-2.567l0,-5.133Z" style="fill:#afafaf;"/><path d="M277.852,263.328c0,-3.319 -2.695,-6.013 -6.014,-6.013l-106.77,0c-3.319,0 -6.013,2.694 -6.013,6.013l0,48.105c0,3.319 2.694,6.014 6.013,6.014l106.77,0c3.319,0 6.014,-2.695 6.014,-6.014l0,-48.105Z" style="fill:#fd8300;"/><path d="M406.297,152.328c0,-4.423 -3.591,-8.013 -8.013,-8.013l-361.216,0c-4.423,0 -8.013,3.59 -8.013,8.013l0,64.105c0,4.423 3.59,8.014 8.013,8.014l361.216,0c4.422,0 8.013,-3.591 8.013,-8.014l0,-64.105Z" style="fill:#ff4922;"/><path d="M277.852,327.346c0,-1.416 -1.15,-2.566 -2.567,-2.566l-113.664,0c-1.416,0 -2.566,1.15 -2.566,2.566l0,5.134c0,1.416 1.15,2.566 2.566,2.566l113.664,0c1.417,0 2.567,-1.15 2.567,-2.566l0,-5.134Z" style="fill:#afafaf;"/><path d="M277.852,343.479c0,-1.416 -1.15,-2.566 -2.567,-2.566l-113.664,0c-1.416,0 -2.566,1.15 -2.566,2.566l0,5.133c0,1.417 1.15,2.567 2.566,2.567l113.664,0c1.417,0 2.567,-1.15 2.567,-2.567l0,-5.133Z" style="fill:#afafaf;"/><path d="M406.297,263.328c0,-3.319 -2.695,-6.013 -6.013,-6.013l-106.771,0c-3.319,0 -6.013,2.694 -6.013,6.013l0,48.105c0,3.319 2.694,6.014 6.013,6.014l106.771,0c3.318,0 6.013,-2.695 6.013,-6.014l0,-48.105Z" style="fill:#fd8300;"/><path d="M406.297,327.346c0,-1.416 -1.15,-2.566 -2.567,-2.566l-113.663,0c-1.417,0 -2.567,1.15 -2.567,2.566l0,5.134c0,1.416 1.15,2.566 2.567,2.566l113.663,0c1.417,0 2.567,-1.15 2.567,-2.566l0,-5.134Z" style="fill:#afafaf;"/><path d="M406.297,343.479c0,-1.416 -1.15,-2.566 -2.567,-2.566l-113.663,0c-1.417,0 -2.567,1.15 -2.567,2.566l0,5.133c0,1.417 1.15,2.567 2.567,2.567l113.663,0c1.417,0 2.567,-1.15 2.567,-2.567l0,-5.133Z" style="fill:#afafaf;"/></g></g><path d="M475,346.5c5.304,0 10.391,-2.107 14.142,-5.858c3.751,-3.751 5.858,-8.838 5.858,-14.142l0,-153c0,-5.304 -2.107,-10.391 -5.858,-14.142c-3.751,-3.751 -8.838,-5.858 -14.142,-5.858l-68.796,0c-5.304,0 -10.391,2.107 -14.142,5.858c-3.751,3.751 -5.858,8.838 -5.858,14.142l0,153c0,5.304 2.107,10.391 5.858,14.142c3.751,3.751 8.838,5.858 14.142,5.858l68.796,0Z" style="fill:#070707;"/><path d="M471.642,342.5c5.304,0 10.391,-2.107 14.142,-5.858c3.75,-3.751 5.858,-8.838 5.858,-14.142l0,-145c0,-5.304 -2.108,-10.391 -5.858,-14.142c-3.751,-3.751 -8.838,-5.858 -14.142,-5.858l-62.079,0c-5.305,0 -10.392,2.107 -14.143,5.858c-3.75,3.751 -5.857,8.838 -5.857,14.142l0,145c0,5.304 2.107,10.391 5.857,14.142c3.751,3.751 8.838,5.858 14.143,5.858l62.079,0Z" style="fill:#fff;"/><g><clipPath id="_clip3"><path d="M471.642,342.5c5.304,0 10.391,-2.107 14.142,-5.858c3.75,-3.751 5.858,-8.838 5.858,-14.142l0,-145c0,-5.304 -2.108,-10.391 -5.858,-14.142c-3.751,-3.751 -8.838,-5.858 -14.142,-5.858l-62.079,0c-5.305,0 -10.392,2.107 -14.143,5.858c-3.75,3.751 -5.857,8.838 -5.857,14.142l0,145c0,5.304 2.107,10.391 5.857,14.142c3.751,3.751 8.838,5.858 14.143,5.858l62.079,0Z"/></clipPath><g clip-path="url(#_clip3)"><path d="M481.102,241.279c0,-2.263 -1.837,-4.1 -4.1,-4.1l-72.8,0c-2.263,0 -4.1,1.837 -4.1,4.1l0,32.8c0,2.263 1.837,4.1 4.1,4.1l72.8,0c2.263,0 4.1,-1.837 4.1,-4.1l0,-32.8Z" style="fill:#fd8300;"/><path d="M480.919,309.6c0,-2.263 -1.838,-4.1 -4.1,-4.1l-72.8,0c-2.263,0 -4.1,1.837 -4.1,4.1l0,32.8c0,2.263 1.837,4.1 4.1,4.1l72.8,0c2.262,0 4.1,-1.837 4.1,-4.1l0,-32.8Z" style="fill:#fd8300;"/><path d="M450.102,223.929c0,-0.966 -0.784,-1.75 -1.75,-1.75l-46.5,0c-0.966,0 -1.75,0.784 -1.75,1.75l0,3.5c0,0.966 0.784,1.75 1.75,1.75l46.5,0c0.966,0 1.75,-0.784 1.75,-1.75l0,-3.5Z" style="fill:#454545;"/><path d="M481.102,284.929c0,-0.966 -0.784,-1.75 -1.75,-1.75l-77.5,0c-0.966,0 -1.75,0.784 -1.75,1.75l0,3.5c0,0.966 0.784,1.75 1.75,1.75l77.5,0c0.966,0 1.75,-0.784 1.75,-1.75l0,-3.5Z" style="fill:#afafaf;"/><path d="M481.102,295.929c0,-0.966 -0.784,-1.75 -1.75,-1.75l-77.5,0c-0.966,0 -1.75,0.784 -1.75,1.75l0,3.5c0,0.966 0.784,1.75 1.75,1.75l77.5,0c0.966,0 1.75,-0.784 1.75,-1.75l0,-3.5Z" style="fill:#afafaf;"/><path d="M481.286,170.786c0,-2.6 -2.111,-4.71 -4.711,-4.71l-71.946,0c-2.6,0 -4.71,2.11 -4.71,4.71l0,37.683c0,2.599 2.11,4.71 4.71,4.71l71.946,0c2.6,0 4.711,-2.111 4.711,-4.71l0,-37.683Z" style="fill:#ff4922;"/></g></g></g></g></svg>