<?xml version="1.0" encoding="UTF-8" standalone="no"?><!DOCTYPE svg PUBLIC "-//W3C//DTD SVG 1.1//EN" "http://www.w3.org/Graphics/SVG/1.1/DTD/svg11.dtd"><svg width="100%" height="100%" viewBox="0 0 6000 6000" version="1.1" xmlns="http://www.w3.org/2000/svg" xmlns:xlink="http://www.w3.org/1999/xlink" xml:space="preserve" xmlns:serif="http://www.serif.com/" style="fill-rule:evenodd;clip-rule:evenodd;stroke-linejoin:round;stroke-miterlimit:2;"><path d="M2798.69,1812.3c3.081,2.409 5.514,5.097 7.298,8.067c1.784,2.969 3.039,5.882 3.765,8.74c0.725,2.858 1.446,6.333 2.162,10.424c0.794,4.725 1.629,8.36 2.503,10.905c0.875,2.545 2.379,4.651 4.513,6.318c3.437,2.686 7.646,3.804 12.627,3.354c4.982,-0.45 10.576,-2.02 16.783,-4.711l6.36,13.848c-8.624,3.951 -16.762,6.302 -24.412,7.053c-7.65,0.751 -14.972,-1.606 -21.965,-7.071c-2.844,-2.223 -5.096,-4.746 -6.755,-7.57c-1.659,-2.824 -2.86,-5.624 -3.602,-8.399c-0.742,-2.776 -1.472,-6.209 -2.188,-10.301c-0.997,-5.075 -1.966,-8.934 -2.907,-11.578c-0.94,-2.644 -2.537,-4.846 -4.789,-6.606c-3.615,-2.825 -7.819,-4.011 -12.612,-3.557c-4.793,0.454 -10.369,2.063 -16.728,4.825l-6.569,-13.581c5.574,-2.612 10.811,-4.581 15.712,-5.905c4.901,-1.325 10.03,-1.659 15.388,-1.004c5.359,0.656 10.497,2.906 15.416,6.749Z" style="fill:#e4e4e4;fill-rule:nonzero;"/><path d="M3409.16,4211.61c2.255,-0.669 4.447,-0.746 6.574,-0.23c2.127,0.515 3.987,1.524 5.58,3.025c1.592,1.501 2.709,3.331 3.349,5.488c0.641,2.158 0.707,4.312 0.198,6.464c-0.508,2.151 -1.51,4.036 -3.004,5.653c-1.494,1.617 -3.368,2.761 -5.624,3.43c-2.206,0.655 -4.364,0.709 -6.474,0.161c-2.11,-0.547 -3.965,-1.584 -5.565,-3.11c-1.6,-1.525 -2.72,-3.367 -3.361,-5.525c-0.64,-2.157 -0.702,-4.299 -0.187,-6.426c0.516,-2.127 1.512,-3.984 2.989,-5.569c1.477,-1.586 3.318,-2.706 5.525,-3.361Zm15.085,50.823c2.256,-0.67 4.447,-0.747 6.574,-0.231c2.127,0.516 3.983,1.512 5.569,2.989c1.585,1.476 2.698,3.294 3.339,5.451c0.567,1.912 0.9,3.841 0.997,5.786c0.097,1.945 -0.059,4.206 -0.468,6.782l-3.794,30.896l-11.179,3.319l-1.607,-31.295c-1.825,-0.579 -3.426,-1.611 -4.8,-3.097c-1.375,-1.486 -2.361,-3.234 -2.957,-5.244c-0.641,-2.158 -0.703,-4.3 -0.187,-6.427c0.515,-2.127 1.512,-3.983 2.988,-5.569c1.477,-1.585 3.319,-2.705 5.525,-3.36Z" style="fill:#e4e4e4;fill-rule:nonzero;"/><path d="M659.797,5438.01c2.167,-0.515 4.243,-0.473 6.227,0.126c1.983,0.6 3.689,1.65 5.116,3.153c1.426,1.503 2.386,3.291 2.878,5.364c0.492,2.073 0.442,4.113 -0.152,6.121c-0.593,2.007 -1.638,3.736 -3.136,5.186c-1.497,1.451 -3.329,2.433 -5.496,2.948c-2.121,0.503 -4.164,0.441 -6.129,-0.187c-1.966,-0.629 -3.665,-1.706 -5.098,-3.232c-1.432,-1.526 -2.395,-3.326 -2.887,-5.399c-0.492,-2.073 -0.439,-4.102 0.16,-6.086c0.599,-1.983 1.639,-3.686 3.118,-5.107c1.479,-1.422 3.279,-2.384 5.399,-2.887Zm11.595,48.835c2.167,-0.514 4.243,-0.472 6.227,0.127c1.983,0.599 3.686,1.638 5.107,3.117c1.422,1.479 2.378,3.256 2.871,5.329c0.436,1.837 0.649,3.678 0.639,5.522c-0.01,1.844 -0.276,3.973 -0.798,6.386l-5.207,29.009l-10.743,2.551l0.123,-29.669c-1.695,-0.642 -3.154,-1.702 -4.375,-3.179c-1.222,-1.477 -2.062,-3.181 -2.521,-5.113c-0.492,-2.073 -0.439,-4.101 0.16,-6.085c0.599,-1.984 1.639,-3.687 3.118,-5.108c1.479,-1.421 3.279,-2.383 5.399,-2.887Z" style="fill:#e4e4e4;fill-rule:nonzero;"/><path d="M4106.8,3000.93c-0.504,-2.489 -0.36,-4.902 0.433,-7.24c0.792,-2.339 2.097,-4.325 3.915,-5.959c1.818,-1.633 4,-2.708 6.545,-3.223c2.601,-0.526 5.071,-0.393 7.409,0.399c2.339,0.792 4.328,2.112 5.967,3.958c1.639,1.846 2.711,4.014 3.215,6.502c0.503,2.488 0.362,4.916 -0.425,7.282c-0.787,2.367 -2.1,4.384 -3.941,6.052c-1.84,1.668 -4.061,2.765 -6.663,3.291c-2.544,0.515 -4.975,0.36 -7.291,-0.467c-2.316,-0.826 -4.296,-2.176 -5.941,-4.051c-1.645,-1.875 -2.72,-4.056 -3.223,-6.544Zm12.379,61.16c-0.492,-2.432 -0.342,-4.817 0.45,-7.155c0.792,-2.339 2.095,-4.339 3.907,-6.001c1.812,-1.662 3.991,-2.75 6.536,-3.266c2.544,-0.515 5.003,-0.365 7.376,0.45c2.372,0.815 4.378,2.146 6.017,3.992c1.64,1.846 2.706,3.985 3.198,6.417c0.515,2.545 0.379,5.001 -0.408,7.367c-0.786,2.367 -2.103,4.37 -3.949,6.01c-1.846,1.639 -4.07,2.722 -6.671,3.248c-2.545,0.515 -4.973,0.374 -7.283,-0.424c-2.31,-0.798 -4.288,-2.135 -5.933,-4.009c-1.645,-1.875 -2.725,-4.084 -3.24,-6.629Z" style="fill:#e4e4e4;fill-rule:nonzero;"/><path d="M2540.57,772.066c0.396,-2.507 1.373,-4.719 2.931,-6.634c1.559,-1.915 3.475,-3.321 5.748,-4.218c2.274,-0.897 4.693,-1.143 7.258,-0.738c2.622,0.414 4.89,1.4 6.805,2.959c1.915,1.558 3.319,3.488 4.212,5.79c0.892,2.303 1.14,4.707 0.744,7.215c-0.396,2.508 -1.375,4.733 -2.938,6.677c-1.563,1.944 -3.498,3.376 -5.804,4.297c-2.307,0.921 -4.771,1.174 -7.393,0.76c-2.564,-0.405 -4.788,-1.398 -6.67,-2.981c-1.882,-1.582 -3.267,-3.538 -4.155,-5.869c-0.888,-2.331 -1.134,-4.75 -0.738,-7.258Zm-9.733,61.637c0.387,-2.45 1.36,-4.633 2.918,-6.549c1.559,-1.915 3.477,-3.335 5.755,-4.26c2.278,-0.926 4.7,-1.186 7.264,-0.781c2.565,0.405 4.817,1.403 6.756,2.994c1.939,1.592 3.355,3.538 4.247,5.841c0.893,2.302 1.145,4.678 0.758,7.129c-0.405,2.564 -1.388,4.819 -2.951,6.762c-1.563,1.944 -3.496,3.362 -5.798,4.254c-2.302,0.893 -4.764,1.132 -7.385,0.718c-2.565,-0.405 -4.791,-1.384 -6.678,-2.938c-1.886,-1.554 -3.274,-3.496 -4.161,-5.827c-0.888,-2.331 -1.13,-4.778 -0.725,-7.343Z" style="fill:#e4e4e4;fill-rule:nonzero;"/><path d="M5160.41,1586.14l8.199,-12.855l77.837,48.079l0,17.41l-76.825,48.079l-9.211,-12.551l71.461,-44.132l-71.461,-44.03Z" style="fill:#e4e4e4;fill-rule:nonzero;"/><path d="M1488.57,1916.82l83.112,-51.337l8.754,13.942l-76.302,46.798l76.302,47.23l-9.727,13.293l-82.139,-51.337l0,-18.589Z" style="fill:#e4e4e4;fill-rule:nonzero;"/><g><path d="M1870.32,4722.82l70.255,-21.271l3.671,11.813l-64.435,19.286l46.318,49.005l-9.626,7.781l-49.765,-53.112l3.582,-13.502Z" style="fill:#e4e4e4;fill-rule:nonzero;"/><path d="M2014.63,4851.51l-78.496,-20.825l3.061,-11.538l78.496,20.824l-3.061,11.539Z" style="fill:#e4e4e4;fill-rule:nonzero;"/></g><path d="M5095.2,5472.33c4.527,-1.172 8.818,-1.494 12.873,-0.967c4.056,0.527 8.364,2.27 12.926,5.23l-5.348,8.187c-3.154,-2.092 -6.143,-3.45 -8.966,-4.074c-2.824,-0.625 -5.944,-0.494 -9.363,0.391c-4.758,1.232 -8.055,3.441 -9.892,6.628c-1.836,3.186 -2.204,6.905 -1.104,11.155c0.718,2.771 2.156,5.184 4.314,7.237c2.159,2.054 4.734,3.482 7.727,4.284c2.993,0.803 6.037,0.803 9.132,0.002l38.525,-9.977l2.369,9.147l-12.403,3.212l9.76,37.694c-1.724,4.192 -4.589,8.163 -8.597,11.912c-4.008,3.749 -9.615,6.556 -16.821,8.422c-6.883,1.782 -12.981,1.932 -18.294,0.449c-5.313,-1.483 -9.652,-4.106 -13.017,-7.868c-3.365,-3.762 -5.693,-8.137 -6.985,-13.126c-1.854,-7.16 -1.491,-13.514 1.09,-19.063c2.58,-5.548 7.173,-9.941 13.777,-13.179l-0.107,-0.416c-6.214,0.18 -11.107,-1.203 -14.679,-4.147c-3.572,-2.945 -5.974,-6.796 -7.206,-11.554c-1.064,-4.111 -0.974,-8.188 0.271,-12.232c1.245,-4.044 3.587,-7.608 7.028,-10.693c3.44,-3.084 7.77,-5.302 12.99,-6.654Zm13.004,47.65c-4.527,1.172 -8.048,3.23 -10.564,6.173c-2.516,2.944 -4.085,6.258 -4.708,9.944c-0.623,3.685 -0.48,7.284 0.429,10.794c0.909,3.511 2.451,6.562 4.626,9.154c2.174,2.591 4.973,4.405 8.396,5.441c3.423,1.036 7.351,0.98 11.786,-0.168c3.88,-1.005 7.192,-2.54 9.935,-4.606c2.743,-2.066 4.756,-4.522 6.04,-7.368l-8.756,-33.814l-17.184,4.45Z" style="fill:#e4e4e4;fill-rule:nonzero;"/><path d="M3787.47,1170.99c4.524,0.208 8.588,1.135 12.19,2.781c3.603,1.645 7.093,4.489 10.469,8.53l-7.286,6.05c-2.322,-2.836 -4.701,-4.946 -7.135,-6.33c-2.435,-1.384 -5.361,-2.154 -8.777,-2.311c-4.756,-0.218 -8.438,0.885 -11.048,3.31c-2.609,2.424 -4.012,5.761 -4.207,10.008c-0.127,2.77 0.515,5.414 1.927,7.93c1.411,2.517 3.387,4.574 5.928,6.171c2.54,1.597 5.357,2.467 8.45,2.609l38.505,1.767l-0.42,9.141l-12.396,-0.569l-1.729,37.674c-2.793,3.388 -6.579,6.244 -11.358,8.569c-4.78,2.326 -10.771,3.323 -17.973,2.992c-6.879,-0.315 -12.565,-1.918 -17.059,-4.808c-4.494,-2.889 -7.761,-6.555 -9.801,-10.998c-2.04,-4.442 -2.946,-9.157 -2.717,-14.143c0.329,-7.156 2.479,-12.933 6.452,-17.331c3.972,-4.398 9.477,-7.153 16.514,-8.264l0.019,-0.415c-5.802,-1.608 -9.936,-4.285 -12.401,-8.03c-2.465,-3.745 -3.589,-7.995 -3.37,-12.75c0.188,-4.109 1.436,-7.857 3.743,-11.244c2.307,-3.387 5.492,-6.017 9.557,-7.889c4.065,-1.873 8.706,-2.689 13.923,-2.45Zm-1.57,47.813c-4.525,-0.208 -8.371,0.691 -11.54,2.697c-3.169,2.006 -5.567,4.626 -7.196,7.859c-1.629,3.233 -2.524,6.604 -2.685,10.113c-0.161,3.509 0.395,6.773 1.667,9.792c1.273,3.02 3.345,5.497 6.217,7.433c2.872,1.937 6.524,3.006 10.956,3.21c3.878,0.178 7.382,-0.298 10.51,-1.426c3.129,-1.129 5.693,-2.827 7.694,-5.095l1.551,-33.795l-17.174,-0.788Z" style="fill:#e4e4e4;fill-rule:nonzero;"/><path d="M791.701,3992.24c4.143,0.851 7.869,2.252 11.177,4.2c3.307,1.949 6.109,4.194 8.405,6.737l-6.297,5.334c-3.905,-4.457 -8.584,-7.305 -14.036,-8.546l-2.465,25.343c6.279,2.743 11.176,6.127 14.693,10.153c3.517,4.026 4.973,9.151 4.368,15.376c-0.35,3.594 -1.49,6.859 -3.421,9.794c-1.931,2.935 -4.602,5.303 -8.012,7.103c-3.411,1.8 -7.423,2.775 -12.038,2.925l-1.573,16.173l-7.503,-0.73l1.54,-15.839c-4.825,-0.769 -9.097,-2.315 -12.817,-4.641c-3.719,-2.325 -6.852,-5.014 -9.398,-8.067l6.158,-5.628c4.638,5.762 10.247,9.243 16.825,10.444l2.994,-30.79c-6.49,-2.875 -11.282,-6.193 -14.376,-9.954c-3.094,-3.76 -4.398,-8.141 -3.911,-13.143c0.299,-3.076 1.35,-5.9 3.152,-8.474c1.802,-2.574 4.322,-4.638 7.559,-6.193c3.237,-1.556 7.061,-2.325 11.473,-2.307l1.627,-16.729l7.503,0.73l-1.627,16.729Zm-8.276,7.218c-3.24,0.245 -5.884,1.185 -7.932,2.819c-2.048,1.633 -3.219,3.969 -3.515,7.007c-0.176,1.816 -0.024,3.42 0.458,4.814c0.481,1.393 1.417,2.737 2.806,4.031c1.388,1.295 3.381,2.629 5.978,4.004l2.205,-22.675Zm1.433,63.142c7.67,-0.787 11.875,-4.997 12.618,-12.63c0.313,-3.223 -0.276,-6.011 -1.768,-8.363c-1.492,-2.352 -4.211,-4.58 -8.158,-6.684l-2.692,27.677Z" style="fill:#e4e4e4;fill-rule:nonzero;"/><path d="M4805,2204.6c3.7,-0.327 7.186,-0.087 10.458,0.719c3.273,0.806 6.195,1.989 8.766,3.549l-3.953,6.072c-4.407,-2.765 -9.059,-3.982 -13.957,-3.653l4.309,21.935c5.971,0.725 10.942,2.338 14.914,4.839c3.972,2.5 6.487,6.444 7.545,11.832c0.611,3.111 0.474,6.144 -0.411,9.098c-0.885,2.955 -2.535,5.619 -4.95,7.992c-2.415,2.373 -5.544,4.203 -9.388,5.491l2.75,13.998l-6.494,1.276l-2.693,-13.71c-4.251,0.569 -8.234,0.344 -11.948,-0.675c-3.714,-1.019 -7.026,-2.492 -9.936,-4.418l3.762,-6.285c5.352,3.679 10.945,5.194 16.78,4.548l-5.235,-26.649c-6.182,-0.784 -11.048,-2.368 -14.597,-4.752c-3.549,-2.383 -5.749,-5.74 -6.599,-10.069c-0.523,-2.662 -0.35,-5.302 0.517,-7.921c0.868,-2.618 2.468,-4.989 4.798,-7.112c2.331,-2.123 5.354,-3.733 9.069,-4.829l-2.845,-14.479l6.494,-1.276l2.844,14.479Zm-5.142,8.155c-2.664,1.023 -4.651,2.479 -5.962,4.368c-1.31,1.89 -1.707,4.149 -1.191,6.779c0.309,1.571 0.841,2.882 1.597,3.933c0.756,1.05 1.881,1.945 3.375,2.684c1.494,0.739 3.506,1.36 6.036,1.862l-3.855,-19.626Zm17.105,52.744c6.252,-2.593 8.729,-7.193 7.431,-13.799c-0.548,-2.79 -1.745,-4.987 -3.592,-6.589c-1.847,-1.602 -4.695,-2.791 -8.545,-3.567l4.706,23.955Z" style="fill:#e4e4e4;fill-rule:nonzero;"/><path d="M3441.8,5410l-11.484,3.503l4.939,29.91l10.51,-3.206l2.573,8.434l-11.744,3.582l3.984,22.825l-9.343,2.85l-3.789,-22.885l-18.88,5.759l3.854,22.865l-9.343,2.849l-3.789,-22.884l-10.251,3.126l-2.572,-8.434l11.354,-3.463l-4.809,-29.949l-10.511,3.206l-2.592,-8.5l11.614,-3.542l-3.755,-22.54l9.342,-2.85l3.496,22.62l19.075,-5.818l-3.755,-22.541l9.342,-2.85l3.561,22.6l10.38,-3.166l2.593,8.499Zm-39.642,12.092l4.939,29.909l18.88,-5.759l-4.809,-29.949l-19.01,5.799Z" style="fill:#e4e4e4;fill-rule:nonzero;"/><path d="M4975.77,4152.75c6.896,3.742 11.87,7.957 14.923,12.645c3.053,4.689 3.06,9.834 0.022,15.434c-0.558,1.029 -1.03,1.808 -1.417,2.338l-14.129,20.59c-0.531,0.797 -0.91,1.405 -1.137,1.824c-1.84,3.39 -1.881,6.647 -0.124,9.77c1.758,3.124 5.76,6.38 12.008,9.77l-4.154,7.657c-6.21,-3.369 -11.118,-4.934 -14.723,-4.696c-3.606,0.238 -6.339,2.072 -8.199,5.5c-0.228,0.419 -0.53,1.069 -0.909,1.948l-9.496,22.956c-0.234,0.612 -0.629,1.433 -1.188,2.462c-3.038,5.6 -7.355,8.399 -12.95,8.396c-5.595,-0.003 -11.841,-1.875 -18.736,-5.616l4.092,-7.544c10.172,5.519 16.626,5.076 19.362,-1.33l10.311,-24.732c0.485,-1.167 0.986,-2.226 1.503,-3.179c2.088,-3.848 4.58,-6.169 7.477,-6.964c2.897,-0.796 6.644,-0.341 11.242,1.365c-3.781,-2.939 -6.104,-5.95 -6.971,-9.034c-0.866,-3.083 -0.277,-6.511 1.77,-10.282c0.475,-0.877 1.028,-1.76 1.659,-2.65l15.112,-22.128c0.162,-0.208 0.357,-0.521 0.584,-0.941c1.592,-2.933 1.424,-5.736 -0.504,-8.409c-1.927,-2.673 -5.101,-5.209 -9.52,-7.606l4.092,-7.544Z" style="fill:#e4e4e4;fill-rule:nonzero;"/><path d="M2968.83,3262.18l18.942,-2.311l9.633,93.208l-15.215,1.856l-13.36,-92.753Zm23.687,112.865c2.553,-0.311 4.944,0.011 7.174,0.966c2.23,0.955 4.058,2.385 5.483,4.29c1.425,1.906 2.286,4.068 2.581,6.486c0.303,2.485 -0.006,4.841 -0.928,7.066c-0.921,2.226 -2.349,4.071 -4.284,5.534c-1.935,1.463 -4.179,2.35 -6.731,2.661c-2.486,0.304 -4.827,-0.024 -7.023,-0.984c-2.196,-0.959 -4.009,-2.408 -5.438,-4.347c-1.43,-1.939 -2.296,-4.151 -2.6,-6.636c-0.295,-2.418 0.021,-4.723 0.946,-6.916c0.926,-2.192 2.339,-4.017 4.241,-5.476c1.901,-1.459 4.094,-2.341 6.579,-2.644Z" style="fill:#e4e4e4;fill-rule:nonzero;"/><path d="M574.975,510.267l18.853,2.954l-16.207,92.292l-15.142,-2.372l12.496,-92.874Zm-8.058,115.043c2.54,0.398 4.752,1.361 6.636,2.889c1.884,1.528 3.252,3.403 4.102,5.625c0.851,2.223 1.087,4.537 0.71,6.944c-0.387,2.474 -1.329,4.655 -2.823,6.544c-1.495,1.89 -3.373,3.273 -5.634,4.152c-2.261,0.879 -4.662,1.119 -7.202,0.721c-2.474,-0.387 -4.636,-1.343 -6.486,-2.866c-1.851,-1.522 -3.199,-3.412 -4.044,-5.668c-0.845,-2.255 -1.074,-4.62 -0.686,-7.094c0.377,-2.406 1.31,-4.538 2.799,-6.393c1.49,-1.856 3.348,-3.226 5.576,-4.11c2.228,-0.884 4.578,-1.132 7.052,-0.744Z" style="fill:#e4e4e4;fill-rule:nonzero;"/><path d="M517.712,2366.03c-5.325,-0.578 -9.581,-0.223 -12.767,1.065c-3.187,1.288 -4.81,3.827 -4.868,7.619l-0.164,27.14c0.013,1.105 -0.038,2.181 -0.152,3.229c-0.464,4.277 -1.857,7.449 -4.179,9.515c-2.322,2.067 -5.596,3.246 -9.823,3.538c4.153,1.201 7.127,2.992 8.922,5.373c1.795,2.381 2.458,5.731 1.989,10.052c-0.118,1.091 -0.311,2.263 -0.58,3.514l-5.663,26.543c-0.072,0.257 -0.134,0.626 -0.186,1.106c-0.677,6.241 4.505,9.961 15.547,11.159l-0.938,8.642c-7.9,-0.857 -14.181,-2.897 -18.843,-6.119c-4.662,-3.222 -6.645,-8.04 -5.949,-14.456c0.128,-1.179 0.271,-2.09 0.429,-2.736l5.319,-24.593c0.154,-0.601 0.292,-1.47 0.416,-2.604c0.279,-2.575 -0.083,-4.734 -1.086,-6.477c-1.003,-1.743 -2.91,-3.197 -5.72,-4.363c-2.81,-1.166 -6.768,-2.027 -11.874,-2.581l0.952,-8.772c5.106,0.554 9.156,0.574 12.148,0.06c2.993,-0.515 5.166,-1.515 6.519,-3.002c1.354,-1.487 2.168,-3.496 2.443,-6.028c0.123,-1.134 0.174,-2.012 0.153,-2.633l0.096,-25.292c-0.016,-0.664 0.04,-1.586 0.168,-2.764c0.696,-6.416 3.667,-10.697 8.912,-12.843c5.245,-2.147 11.817,-2.791 19.717,-1.934l-0.938,8.642Z" style="fill:#e4e4e4;fill-rule:nonzero;"/><g><path d="M1902.26,3052.17l25.759,-22.281l6.3,7.146l-21.459,17.594l25.828,9.789l-3.906,9.035l-31.219,-13.116l-1.303,-8.167Z" style="fill:#e4e4e4;fill-rule:nonzero;"/><path d="M2029.12,3002.7l-1.926,6.439l39.936,16.661l1.314,8.241l-25.588,22.179l-6.465,-7.008l21.478,-17.709l-33.448,-13.023l-15.742,52.727l-9.663,-2.684l20.514,-68.518l9.59,2.695Z" style="fill:#e4e4e4;fill-rule:nonzero;"/></g><g><path d="M5206.19,3344.38l37.895,-10.085l2.921,10.572l-31.082,7.401l21.806,23.149l-8.597,7.386l-25.71,-29.311l2.767,-9.112Z" style="fill:#e4e4e4;fill-rule:nonzero;"/><path d="M5362.46,3357.09l-5.239,5.695l32.947,37.373l-2.791,9.194l-37.667,10.066l-3.161,-10.512l31.159,-7.511l-28.064,-30.336l-42.867,46.651l-8.652,-7.647l55.765,-60.596l8.57,7.623Z" style="fill:#e4e4e4;fill-rule:nonzero;"/></g></svg>