<?xml version="1.0" encoding="UTF-8" standalone="no"?><!DOCTYPE svg PUBLIC "-//W3C//DTD SVG 1.1//EN" "http://www.w3.org/Graphics/SVG/1.1/DTD/svg11.dtd"><svg width="100%" height="100%" viewBox="0 0 2000 2000" version="1.1" xmlns="http://www.w3.org/2000/svg" xmlns:xlink="http://www.w3.org/1999/xlink" xml:space="preserve" xmlns:serif="http://www.serif.com/" style="fill-rule:evenodd;clip-rule:evenodd;stroke-linejoin:round;stroke-miterlimit:2;"><g><g><path d="M1200,1781.56l-400.001,-0l100,-354.167l199.999,-0l100,354.167l0.002,-0Z" style="fill:url(#_Linear1);"/><path d="M1258.33,1786.79c-0.002,-5.187 -4.214,-9.4 -9.406,-9.4l-497.857,0c-5.192,0 -9.405,4.213 -9.405,9.4l-0,18.804c-0,5.192 4.212,9.405 9.404,9.405l497.858,0c5.192,0 9.404,-4.213 9.404,-9.405l0,-18.804l0.002,0Z" style="fill:#b2b2b2;"/><path d="M1989.59,1285l-1979.17,0l-0,95.957c-0,14.552 8.78,28.509 24.409,38.801c15.629,10.289 36.825,16.072 58.925,16.072l1812.5,-0c22.1,-0 43.297,-5.783 58.926,-16.072c15.629,-10.292 24.408,-24.249 24.408,-38.801l-0,-95.957l0.004,0Z" style="fill:#b2b2b2;"/></g><path d="M1989.58,268.333c-0.002,-22.1 -8.781,-43.296 -24.409,-58.925c-15.629,-15.629 -36.824,-24.408 -58.924,-24.408l-1812.5,-0c-22.1,-0 -43.296,8.779 -58.925,24.408c-15.63,15.629 -24.409,36.825 -24.409,58.925l0,1016.67l1979.17,-0l-0.001,-1016.67l-0.004,-0l0.002,-0Z" style="fill:#070707;"/><g><g><g><clipPath id="_clip2"><path d="M1989.58,268.333c-0.002,-22.1 -8.781,-43.296 -24.409,-58.925c-15.629,-15.629 -36.824,-24.408 -58.924,-24.408l-1812.5,-0c-22.1,-0 -43.296,8.779 -58.925,24.408c-15.63,15.629 -24.409,36.825 -24.409,58.925l0,1016.67l1979.17,-0l-0.001,-1016.67l-0.004,-0l0.002,-0Z"/></clipPath><g clip-path="url(#_clip2)"><rect x="111.462" y="262.791" width="1777.08" height="944.417" style="fill:#35a7ff;"/><rect x="195.338" y="369.833" width="120.578" height="17.993" style="fill:#5dd39e;"/><rect x="195.338" y="1108.12" width="120.578" height="17.993" style="fill:#5dd39e;"/><g><rect x="240.337" y="837.833" width="120.578" height="18" style="fill:#5dd39e;"/><rect x="372.609" y="837.833" width="120.578" height="18" style="fill:#00c4ff;"/><rect x="504.881" y="837.833" width="296.94" height="18" style="fill:#00c4ff;"/><rect x="372.609" y="877.771" width="186.949" height="18" style="fill:#393f76;"/><rect x="569.776" y="877.771" width="443.529" height="18" style="fill:#393f76;"/><rect x="1023.51" y="877.771" width="141.523" height="18" style="fill:#393f76;"/><rect x="1175.25" y="877.771" width="166.856" height="18" style="fill:#393f76;"/><rect x="475.429" y="917.709" width="369.121" height="17.993" style="fill:#393f76;"/><rect x="856.706" y="917.709" width="485.399" height="17.993" style="fill:#393f76;"/><rect x="372.609" y="917.709" width="88.369" height="17.993" style="fill:#393f76;"/><rect x="371.451" y="956.853" width="149" height="17.993" style="fill:#393f76;"/><rect x="532.451" y="956.853" width="226" height="17.993" style="fill:#393f76;"/><rect x="1353.87" y="917.709" width="120.578" height="17.993" style="fill:#5dd39e;"/><rect x="240.337" y="1063.46" width="120.578" height="17.993" style="fill:#5dd39e;"/><rect x="372.609" y="996.127" width="186.949" height="17.993" style="fill:#393f76;"/><rect x="569.776" y="996.127" width="443.529" height="17.993" style="fill:#393f76;"/><rect x="1023.51" y="996.127" width="141.523" height="17.993" style="fill:#393f76;"/><rect x="1175.25" y="996.127" width="166.856" height="17.993" style="fill:#393f76;"/><rect x="770.451" y="956.853" width="165.344" height="17.993" style="fill:#393f76;"/><rect x="949.961" y="956.853" width="333.49" height="17.993" style="fill:#393f76;"/><rect x="475.429" y="1036.07" width="369.121" height="17.993" style="fill:#393f76;"/><rect x="372.609" y="1036.07" width="88.369" height="17.993" style="fill:#393f76;"/><rect x="856.706" y="1036.06" width="120.578" height="18" style="fill:#5dd39e;"/></g><rect x="195.338" y="412.079" width="120.578" height="17.993" style="fill:#393f76;"/><g><rect x="537.881" y="491.771" width="77.729" height="17.993" style="fill:#00c4ff;"/><rect x="273.337" y="451.833" width="120.578" height="18" style="fill:#5dd39e;"/><g><rect x="273.337" y="784.374" width="120.578" height="18" style="fill:#5dd39e;"/><rect x="405.609" y="750.427" width="120.578" height="18" style="fill:#5dd39e;"/><rect x="591.055" y="715.635" width="73.724" height="18" style="fill:#393f76;"/><rect x="671.347" y="715.635" width="81.7" height="18" style="fill:#393f76;"/><rect x="760.346" y="715.629" width="61.279" height="18" style="fill:#393f76;"/><rect x="591.062" y="678.898" width="29.224" height="17.993" style="fill:#393f76;"/><rect x="627.578" y="678.904" width="37.201" height="17.993" style="fill:#393f76;"/><rect x="671.347" y="678.904" width="150.272" height="17.993" style="fill:#393f76;"/><rect x="531.338" y="639.833" width="187" height="17.993" style="fill:#393f76;"/><rect x="592.338" y="599.833" width="292" height="17.993" style="fill:#393f76;"/><rect x="730.337" y="638.833" width="243" height="17.993" style="fill:#393f76;"/><rect x="532.272" y="678.898" width="49.102" height="17.993" style="fill:#5dd39e;"/><rect x="532.272" y="678.898" width="49.102" height="17.993" style="fill:#5dd39e;"/><rect x="531.337" y="599.833" width="49.102" height="17.993" style="fill:#5dd39e;"/><rect x="532.272" y="715.635" width="49.102" height="18" style="fill:#5dd39e;"/><rect x="831.366" y="678.898" width="49.102" height="17.993" style="fill:#5dd39e;"/><rect x="831.366" y="715.635" width="49.102" height="18" style="fill:#5dd39e;"/></g><rect x="405.609" y="491.771" width="120.578" height="17.993" style="fill:#5dd39e;"/><rect x="532.272" y="525.436" width="49.102" height="17.993" style="fill:#5dd39e;"/><rect x="591.055" y="525.436" width="73.724" height="17.993" style="fill:#393f76;"/><rect x="671.347" y="525.436" width="81.7" height="17.993" style="fill:#393f76;"/><rect x="760.346" y="525.436" width="61.279" height="17.993" style="fill:#393f76;"/><rect x="591.055" y="562.167" width="73.724" height="17.993" style="fill:#393f76;"/><rect x="717.302" y="562.173" width="104.316" height="17.993" style="fill:#393f76;"/><rect x="671.347" y="562.167" width="40.119" height="17.993" style="fill:#393f76;"/><rect x="532.272" y="562.167" width="49.102" height="17.993" style="fill:#5dd39e;"/><rect x="831.366" y="525.436" width="49.102" height="17.993" style="fill:#5dd39e;"/><rect x="831.366" y="562.167" width="49.102" height="17.993" style="fill:#5dd39e;"/></g></g></g></g></g><path d="M1733.34,185l-1722.92,941.822l0.001,-858.489c0,-22.1 8.779,-43.296 24.409,-58.925c15.629,-15.629 36.825,-24.408 58.925,-24.408l1639.59,-0l-0.006,-0Z" style="fill:#c6c6c6;fill-opacity:0.45;"/></g><defs><linearGradient id="_Linear1" x1="0" y1="0" x2="1" y2="0" gradientUnits="userSpaceOnUse" gradientTransform="matrix(-2.02036e-11,-191.667,191.667,-2.02036e-11,1000.01,1694.16)"><stop offset="0" style="stop-color:#b2b2b2;stop-opacity:1"/><stop offset="1" style="stop-color:#757575;stop-opacity:1"/></linearGradient></defs></svg>