<?xml version="1.0" encoding="UTF-8" standalone="no"?><!DOCTYPE svg PUBLIC "-//W3C//DTD SVG 1.1//EN" "http://www.w3.org/Graphics/SVG/1.1/DTD/svg11.dtd"><svg width="100%" height="100%" viewBox="0 0 638 600" version="1.1" xmlns="http://www.w3.org/2000/svg" xmlns:xlink="http://www.w3.org/1999/xlink" xml:space="preserve" xmlns:serif="http://www.serif.com/" style="fill-rule:evenodd;clip-rule:evenodd;stroke-miterlimit:10;"><g id="Layer-1" serif:id="Layer 1"><rect x="591.498" y="357.286" width="23.319" height="242.214" style="fill:#c9cef7;"/><rect x="614.179" y="357.286" width="23.319" height="242.214" style="fill:#e8e9fd;"/><rect x="436.498" y="357.286" width="23.319" height="242.214" style="fill:#c9cef7;"/><rect x="459.179" y="357.286" width="23.319" height="242.214" style="fill:#e8e9fd;"/><path d="M387.744,582.596l-6.725,-31.832l-29.305,1.19l8.968,41.166l27.062,-10.524Z" style="fill:#ffc3bd;fill-rule:nonzero;"/><path d="M384.743,568.391l-3.724,-17.627l-29.305,1.19l4.578,21.016l28.451,-4.579Z" style="fill:#ff847f;fill-rule:nonzero;"/><path d="M386.711,599.869l-60.883,0c-2.751,0 -4.981,-2.229 -4.981,-4.98c0,-2.088 1.302,-3.955 3.261,-4.675l32.028,-11.778c0,0 12.024,4.651 16.262,4.846c3.27,0.15 11.063,-1.759 15.2,-2.848c1.308,-0.344 2.56,0.711 2.44,2.06l-1.383,15.596c-0.09,1.008 -0.933,1.779 -1.944,1.779" style="fill:#0e1738;fill-rule:nonzero;"/><path d="M359.679,582.064c0.294,-2.214 0.811,-10.74 -0.56,-10.487c-1.37,0.251 -6.152,2.264 -6.907,4.781c-0.755,2.519 0.503,6.797 0.503,6.797l6.964,-1.091Z" style="fill:#0e1738;fill-rule:nonzero;"/><path d="M350.911,586.763c0.296,-0 0.577,-0.175 0.698,-0.466c0.159,-0.385 -0.023,-0.827 -0.409,-0.987c-3.133,-1.296 -3.369,-3.507 -3.377,-3.601c-0.039,-0.411 -0.391,-0.716 -0.814,-0.687c-0.412,0.034 -0.722,0.388 -0.693,0.802c0.009,0.129 0.271,3.211 4.306,4.882c0.095,0.038 0.192,0.057 0.289,0.057" style="fill:#fff;fill-rule:nonzero;"/><path d="M326.832,596.579l60.409,0c0.279,0 0.503,-0.225 0.503,-0.503c0,-0.278 -0.224,-0.504 -0.503,-0.504l-60.409,0c-0.278,0 -0.503,0.226 -0.503,0.504c0,0.278 0.225,0.503 0.503,0.503" style="fill:#fff;fill-rule:nonzero;"/><path d="M345.457,588.588c0.285,-0 0.559,-0.163 0.686,-0.44c0.173,-0.378 0.008,-0.827 -0.37,-1.001c-0.024,-0.011 -2.445,-1.163 -2.805,-3.7c-0.058,-0.413 -0.438,-0.71 -0.854,-0.64c-0.413,0.057 -0.7,0.44 -0.64,0.853c0.478,3.369 3.541,4.801 3.671,4.861c0.102,0.046 0.208,0.067 0.312,0.067" style="fill:#fff;fill-rule:nonzero;"/><path d="M461.368,582.596l-6.725,-31.832l-29.305,1.19l8.968,41.166l27.062,-10.524Z" style="fill:#ffc3bd;fill-rule:nonzero;"/><path d="M458.368,568.391l-3.724,-17.627l-29.306,1.19l4.578,21.016l28.452,-4.579Z" style="fill:#ff847f;fill-rule:nonzero;"/><path d="M460.335,599.869l-60.884,0c-2.75,0 -4.98,-2.229 -4.98,-4.98c0,-2.088 1.301,-3.955 3.261,-4.675l32.028,-11.778c0,0 12.024,4.651 16.262,4.846c3.27,0.15 11.063,-1.759 15.2,-2.848c1.308,-0.344 2.56,0.711 2.44,2.06l-1.383,15.596c-0.09,1.008 -0.933,1.779 -1.944,1.779" style="fill:#0e1738;fill-rule:nonzero;"/><path d="M433.303,582.064c0.294,-2.214 0.811,-10.74 -0.56,-10.487c-1.37,0.251 -6.152,2.264 -6.907,4.781c-0.755,2.519 0.504,6.797 0.504,6.797l6.963,-1.091Z" style="fill:#0e1738;fill-rule:nonzero;"/><path d="M424.535,586.763c0.296,-0 0.577,-0.175 0.698,-0.466c0.159,-0.385 -0.023,-0.827 -0.409,-0.987c-3.133,-1.296 -3.369,-3.507 -3.377,-3.601c-0.039,-0.411 -0.391,-0.716 -0.814,-0.687c-0.412,0.034 -0.722,0.388 -0.693,0.802c0.009,0.129 0.271,3.211 4.306,4.882c0.095,0.038 0.192,0.057 0.289,0.057" style="fill:#fff;fill-rule:nonzero;"/><path d="M400.456,596.579l60.409,0c0.279,0 0.503,-0.225 0.503,-0.503c0,-0.278 -0.224,-0.504 -0.503,-0.504l-60.409,0c-0.278,0 -0.503,0.226 -0.503,0.504c0,0.278 0.225,0.503 0.503,0.503" style="fill:#fff;fill-rule:nonzero;"/><path d="M419.081,588.588c0.285,-0 0.559,-0.163 0.686,-0.44c0.173,-0.378 0.008,-0.827 -0.37,-1.001c-0.024,-0.011 -2.445,-1.163 -2.805,-3.7c-0.058,-0.413 -0.438,-0.71 -0.854,-0.64c-0.413,0.057 -0.7,0.44 -0.64,0.853c0.478,3.369 3.541,4.801 3.671,4.861c0.102,0.046 0.208,0.067 0.312,0.067" style="fill:#fff;fill-rule:nonzero;"/><rect x="156.492" y="357.286" width="23.32" height="242.214" style="fill:#c9cef7;"/><rect x="179.812" y="357.286" width="23.319" height="242.214" style="fill:#e8e9fd;"/><rect x="23.492" y="357.286" width="23.319" height="242.214" style="fill:#e8e9fd;"/><rect x="0.173" y="357.286" width="23.319" height="242.214" style="fill:#c9cef7;"/><rect x="0.173" y="345.008" width="179.639" height="18.207" style="fill:#d7daf9;"/><rect x="179.812" y="345.008" width="458.015" height="18.207" style="fill:#e8e9fd;"/><path d="M272.862,341.328l-51.746,0l15.713,-66.466l51.746,0l-15.713,66.466Z" style="fill:#0ac65a;fill-rule:nonzero;"/><path d="M277.463,341.328l-51.746,0l15.713,-66.466l51.746,0l-15.713,66.466Z" style="fill:#14dd6f;fill-rule:nonzero;"/><rect x="111.115" y="113.395" width="312.376" height="167.077" style="fill:#1bef7f;"/><path d="M111.115,280.472l0,-167.077l-5.808,-6l0,164.077l5.808,9Z" style="fill:#14dd6f;fill-rule:nonzero;"/><path d="M319.627,345.008l-147.782,-0l2.631,-3.72l71.26,-1.684l71.26,1.684l2.631,3.72Z" style="fill:#15253f;fill-rule:nonzero;"/><path d="M326.187,345.008l-147.782,-0l2.631,-3.72l71.26,-1.684l71.26,1.684l2.631,3.72Z" style="fill:#101e35;fill-rule:nonzero;"/><path d="M423.492,113.394l-5.808,-6l-312.377,0l5.809,6l312.376,0Z" style="fill:#0ac65a;fill-rule:nonzero;"/><rect x="114.7" y="117.341" width="305.207" height="146.411" style="fill:#172231;"/><rect x="184.66" y="340.07" width="177.231" height="4.927" style="fill:#15253f;"/><rect x="184.659" y="340.07" width="47.873" height="4.927" style="fill:#1e385d;"/><path d="M194.089,340.066l-7.138,0l0.786,-1.987c0.08,-0.201 0.378,-0.342 0.721,-0.342l4.124,0c0.343,0 0.642,0.141 0.721,0.342l0.786,1.987Z" style="fill:#15253f;fill-rule:nonzero;"/><path d="M194.089,340.066l-5.076,0l0.786,-1.987c0.08,-0.201 0.378,-0.342 0.721,-0.342l2.062,0c0.343,0 0.642,0.141 0.721,0.342l0.786,1.987Z" style="fill:#2a4371;fill-rule:nonzero;"/><path d="M202.8,340.066l-7.138,0l0.786,-1.987c0.08,-0.201 0.378,-0.342 0.721,-0.342l4.124,0c0.343,0 0.642,0.141 0.721,0.342l0.786,1.987Z" style="fill:#15253f;fill-rule:nonzero;"/><path d="M202.8,340.066l-5.076,0l0.786,-1.987c0.08,-0.201 0.378,-0.342 0.721,-0.342l2.062,0c0.343,0 0.642,0.141 0.721,0.342l0.786,1.987Z" style="fill:#2a4371;fill-rule:nonzero;"/><path d="M211.511,340.066l-7.138,0l0.786,-1.987c0.08,-0.201 0.378,-0.342 0.721,-0.342l4.124,0c0.344,0 0.642,0.141 0.721,0.342l0.786,1.987Z" style="fill:#15253f;fill-rule:nonzero;"/><path d="M211.511,340.066l-5.076,0l0.786,-1.987c0.08,-0.201 0.378,-0.342 0.721,-0.342l2.062,0c0.344,0 0.642,0.141 0.721,0.342l0.786,1.987Z" style="fill:#2a4371;fill-rule:nonzero;"/><path d="M220.222,340.066l-7.138,0l0.786,-1.987c0.079,-0.201 0.377,-0.342 0.721,-0.342l4.124,0c0.343,0 0.642,0.141 0.721,0.342l0.786,1.987Z" style="fill:#15253f;fill-rule:nonzero;"/><path d="M220.222,340.066l-5.076,0l0.786,-1.987c0.079,-0.201 0.377,-0.342 0.721,-0.342l2.062,0c0.343,0 0.642,0.141 0.721,0.342l0.786,1.987Z" style="fill:#2a4371;fill-rule:nonzero;"/><path d="M228.933,340.066l-7.138,0l0.786,-1.987c0.079,-0.201 0.377,-0.342 0.721,-0.342l4.124,0c0.343,0 0.642,0.141 0.721,0.342l0.786,1.987Z" style="fill:#15253f;fill-rule:nonzero;"/><path d="M228.933,340.066l-5.076,0l0.786,-1.987c0.08,-0.201 0.378,-0.342 0.721,-0.342l2.062,0c0.343,0 0.642,0.141 0.721,0.342l0.786,1.987Z" style="fill:#2a4371;fill-rule:nonzero;"/><path d="M237.644,340.066l-7.138,0l0.786,-1.987c0.08,-0.201 0.378,-0.342 0.721,-0.342l4.124,0c0.343,0 0.642,0.141 0.721,0.342l0.786,1.987Z" style="fill:#15253f;fill-rule:nonzero;"/><path d="M237.644,340.066l-5.076,0l0.786,-1.987c0.08,-0.201 0.378,-0.342 0.721,-0.342l2.062,0c0.343,0 0.642,0.141 0.721,0.342l0.786,1.987Z" style="fill:#2a4371;fill-rule:nonzero;"/><path d="M246.355,340.066l-7.138,0l0.786,-1.987c0.08,-0.201 0.378,-0.342 0.721,-0.342l4.124,0c0.344,0 0.642,0.141 0.721,0.342l0.786,1.987Z" style="fill:#15253f;fill-rule:nonzero;"/><path d="M246.355,340.066l-5.076,0l0.786,-1.987c0.08,-0.201 0.378,-0.342 0.721,-0.342l2.062,0c0.344,0 0.642,0.141 0.721,0.342l0.786,1.987Z" style="fill:#2a4371;fill-rule:nonzero;"/><path d="M255.066,340.066l-7.138,0l0.786,-1.987c0.08,-0.201 0.378,-0.342 0.721,-0.342l4.125,0c0.343,0 0.641,0.141 0.72,0.342l0.786,1.987Z" style="fill:#15253f;fill-rule:nonzero;"/><path d="M255.066,340.066l-5.076,0l0.786,-1.987c0.08,-0.201 0.378,-0.342 0.721,-0.342l2.063,0c0.343,0 0.641,0.141 0.72,0.342l0.786,1.987Z" style="fill:#2a4371;fill-rule:nonzero;"/><path d="M263.778,340.066l-7.138,0l0.786,-1.987c0.079,-0.201 0.377,-0.342 0.721,-0.342l4.124,0c0.343,0 0.642,0.141 0.721,0.342l0.786,1.987Z" style="fill:#15253f;fill-rule:nonzero;"/><path d="M263.778,340.066l-5.076,0l0.786,-1.987c0.079,-0.201 0.377,-0.342 0.721,-0.342l2.062,0c0.343,0 0.642,0.141 0.721,0.342l0.786,1.987Z" style="fill:#2a4371;fill-rule:nonzero;"/><path d="M272.489,340.066l-7.138,0l0.786,-1.987c0.08,-0.201 0.377,-0.342 0.721,-0.342l4.124,0c0.343,0 0.642,0.141 0.721,0.342l0.786,1.987Z" style="fill:#15253f;fill-rule:nonzero;"/><path d="M272.489,340.066l-5.076,0l0.786,-1.987c0.08,-0.201 0.378,-0.342 0.721,-0.342l2.062,0c0.343,0 0.642,0.141 0.721,0.342l0.786,1.987Z" style="fill:#2a4371;fill-rule:nonzero;"/><path d="M281.2,340.066l-7.138,0l0.786,-1.987c0.08,-0.201 0.378,-0.342 0.721,-0.342l4.124,0c0.343,0 0.642,0.141 0.721,0.342l0.786,1.987Z" style="fill:#15253f;fill-rule:nonzero;"/><path d="M281.2,340.066l-5.076,0l0.786,-1.987c0.08,-0.201 0.378,-0.342 0.721,-0.342l2.062,0c0.343,0 0.642,0.141 0.721,0.342l0.786,1.987Z" style="fill:#2a4371;fill-rule:nonzero;"/><path d="M307.333,340.066l-24.56,0l0.786,-1.987c0.079,-0.201 0.378,-0.342 0.721,-0.342l21.546,0c0.343,0 0.642,0.141 0.721,0.342l0.786,1.987Z" style="fill:#15253f;fill-rule:nonzero;"/><path d="M307.333,340.066l-22.498,0l0.786,-1.987c0.079,-0.201 0.378,-0.342 0.721,-0.342l19.484,0c0.343,0 0.642,0.141 0.721,0.342l0.786,1.987Z" style="fill:#2a4371;fill-rule:nonzero;"/><path d="M316.044,340.066l-7.138,0l0.786,-1.987c0.08,-0.201 0.378,-0.342 0.721,-0.342l4.124,0c0.343,0 0.642,0.141 0.721,0.342l0.786,1.987Z" style="fill:#15253f;fill-rule:nonzero;"/><path d="M316.044,340.066l-5.076,0l0.786,-1.987c0.08,-0.201 0.378,-0.342 0.721,-0.342l2.062,0c0.343,0 0.642,0.141 0.721,0.342l0.786,1.987Z" style="fill:#2a4371;fill-rule:nonzero;"/><path d="M324.755,340.066l-7.138,0l0.786,-1.987c0.08,-0.201 0.378,-0.342 0.721,-0.342l4.124,0c0.343,0 0.642,0.141 0.721,0.342l0.786,1.987Z" style="fill:#15253f;fill-rule:nonzero;"/><path d="M324.755,340.066l-5.076,0l0.786,-1.987c0.08,-0.201 0.378,-0.342 0.721,-0.342l2.062,0c0.343,0 0.642,0.141 0.721,0.342l0.786,1.987Z" style="fill:#2a4371;fill-rule:nonzero;"/><path d="M333.466,340.066l-7.138,0l0.786,-1.987c0.079,-0.201 0.377,-0.342 0.721,-0.342l4.124,0c0.343,0 0.642,0.141 0.721,0.342l0.786,1.987Z" style="fill:#15253f;fill-rule:nonzero;"/><path d="M333.466,340.066l-5.076,0l0.786,-1.987c0.079,-0.201 0.377,-0.342 0.721,-0.342l2.062,0c0.343,0 0.642,0.141 0.721,0.342l0.786,1.987Z" style="fill:#2a4371;fill-rule:nonzero;"/><path d="M342.177,340.066l-7.138,0l0.786,-1.987c0.08,-0.201 0.377,-0.342 0.721,-0.342l4.124,0c0.343,0 0.642,0.141 0.721,0.342l0.786,1.987Z" style="fill:#15253f;fill-rule:nonzero;"/><path d="M342.177,340.066l-5.076,0l0.786,-1.987c0.079,-0.201 0.378,-0.342 0.721,-0.342l2.062,0c0.343,0 0.642,0.141 0.721,0.342l0.786,1.987Z" style="fill:#2a4371;fill-rule:nonzero;"/><path d="M350.888,340.066l-7.138,0l0.786,-1.987c0.08,-0.201 0.377,-0.342 0.721,-0.342l4.124,0c0.344,0 0.642,0.141 0.721,0.342l0.786,1.987Z" style="fill:#15253f;fill-rule:nonzero;"/><path d="M350.888,340.066l-5.076,0l0.786,-1.987c0.079,-0.201 0.378,-0.342 0.721,-0.342l2.062,0c0.344,0 0.642,0.141 0.721,0.342l0.786,1.987Z" style="fill:#2a4371;fill-rule:nonzero;"/><path d="M359.599,340.066l-7.138,0l0.786,-1.987c0.08,-0.201 0.377,-0.342 0.721,-0.342l4.124,0c0.344,0 0.642,0.141 0.721,0.342l0.786,1.987Z" style="fill:#15253f;fill-rule:nonzero;"/><path d="M359.599,340.066l-5.075,0l0.785,-1.987c0.079,-0.201 0.378,-0.342 0.721,-0.342l2.062,0c0.344,0 0.642,0.141 0.721,0.342l0.786,1.987Z" style="fill:#2a4371;fill-rule:nonzero;"/><path d="M435.461,168.34l0,61.682l-35.607,3.727c0,0 0.236,-13.813 0,-26.969c-0.027,-1.412 -0.097,-2.71 -0.211,-3.894c-0.536,-6.043 -1.982,-9.296 -3.026,-10.91c-0.667,-1.026 -1.167,-1.395 -1.167,-1.395c5.955,-9.621 40.011,-22.241 40.011,-22.241" style="fill:#ffc3bd;fill-rule:nonzero;"/><path d="M415.448,179.215c-0.202,0.518 -6.034,15.287 -15.805,23.671c-0.535,-6.043 -1.981,-9.296 -3.025,-10.91c3.377,-1.667 13.26,-6.806 18.829,-12.761" style="fill:#ff847f;fill-rule:nonzero;"/><path d="M363.146,145.973c-0,-0 -5.436,17.44 -4.202,18.418c1.406,1.114 6.578,1.315 6.578,1.315l-2.376,-19.733Z" style="fill:#ff847f;fill-rule:nonzero;"/><path d="M364.598,118.639c-0,-0 -8.84,56.983 6.725,70.601c18.71,16.372 39.32,-0.584 43.12,-7.309c4.494,-7.95 6.724,-65.485 6.724,-65.485c-0,-0 -41.075,-15.64 -56.569,2.193" style="fill:#ffc3bd;fill-rule:nonzero;"/><path d="M385.661,145.441c-1.01,-0.481 -1.978,-1.06 -2.854,-1.757c-5.227,-4.159 -5.45,-11.389 -6.914,-17.381c-0.837,-3.431 -4.964,-4.614 -7.996,-5.824c-3.536,-1.412 -7.263,-2.649 -10.207,-5.161c-1.241,-1.059 -2.3,-2.313 -3.298,-3.604c-1.299,-1.682 -2.511,-3.445 -3.424,-5.364c-2.292,-4.813 -2.589,-10.368 -1.912,-15.655c0.29,-2.267 0.757,-4.534 1.713,-6.61c0.373,-0.81 0.83,-1.601 1.495,-2.195c0.698,-0.624 1.585,-0.996 2.485,-1.258c4.9,-1.425 10.149,0.192 14.822,2.242c2.343,1.028 4.638,2.166 7.013,3.118c1.993,0.799 4.127,1.585 6.273,1.833c1.612,0.187 3.167,-0.368 4.73,-0.771c2.654,-0.684 5.299,-1.444 8.01,-1.871c6.883,-1.085 13.537,0.665 19.862,3.344c14.67,6.212 24.281,0.963 25.505,13.198c0,0 16.184,-1.943 21.103,19.691c1.926,8.472 -7.263,16.006 -9.794,25.872c-3.929,15.326 -6.369,31.984 -15.736,38.463c0,0 -20.286,11.478 -27.928,-0.922c-7.642,-12.399 -2.296,-29.541 -22.948,-39.388" style="fill:#0e1738;fill-rule:nonzero;"/><path d="M401.594,150.212c0,13.32 -7.134,24.118 -15.933,24.118c-8.799,-0 -15.932,-10.798 -15.932,-24.118c0,-13.32 7.133,-24.119 15.932,-24.119c8.799,-0 15.933,10.799 15.933,24.119" style="fill:#ffb86f;fill-rule:nonzero;"/><path d="M396.785,150.212c-0.001,10.754 -5.76,19.472 -12.864,19.472c-7.104,-0 -12.864,-8.718 -12.864,-19.472c0,-10.754 5.76,-19.472 12.864,-19.472c7.104,-0 12.863,8.718 12.863,19.472" style="fill:#f49140;fill-rule:nonzero;"/><path d="M394.905,150.212c-0,-9.186 -5.045,-16.644 -11.259,-16.644c-6.214,-0 -11.259,7.458 -11.259,16.644c-0,9.186 5.045,16.644 11.259,16.644c6.214,-0 11.259,-7.458 11.259,-16.644Z" style="fill:none;stroke:#ffb86f;stroke-width:0.75px;"/><path d="M439.521,102.414c-0,-0 4.531,-5.153 12.314,-3.289c-0,-0 -6.029,-0.731 -9.098,3.837l-3.216,-0.548Z" style="fill:#0e1738;fill-rule:nonzero;"/><path d="M381.088,127.851c0,0 7.821,-35.625 36.324,-36.78c0,0 5.248,-0.617 9.153,0.737c0,0 -26.82,0.889 -34.368,37.501l-11.109,-1.458Z" style="fill:#ffb86f;fill-rule:nonzero;"/><path d="M361.283,340.311l2.609,4.963l42.603,0c0,0 -10.76,-14.719 -23.414,-16.168c-3.996,-0.458 -13.393,-0.408 -16.773,1.25c-6.447,3.163 -5.025,9.954 -5.025,9.954" style="fill:#131f37;fill-rule:nonzero;"/><path d="M388.251,345.273l-34.849,0c-0.377,0 -0.737,-0.163 -0.982,-0.458l-2.112,-2.497c-0.467,-0.557 -0.393,-1.383 0.172,-1.833c3.782,-3.063 17.141,-13.377 22.217,-10.716c5.927,3.118 15.554,15.504 15.554,15.504" style="fill:#1a2f50;fill-rule:nonzero;"/><path d="M361.613,334.855c-2.137,0.995 -3.55,2.089 -4.139,2.59c-0.153,0.13 -0.126,0.372 0.054,0.463l1.07,0.539c0.09,0.045 0.196,0.037 0.279,-0.02c1.112,-0.76 2.304,-1.319 3.433,-1.732c0.144,-0.052 0.216,-0.207 0.165,-0.352l-0.476,-1.329c-0.056,-0.154 -0.237,-0.228 -0.386,-0.159" style="fill:#223758;fill-rule:nonzero;"/><path d="M362.575,334.699l0.358,1.471c0.038,0.156 0.202,0.244 0.356,0.197c1.869,-0.572 3.42,-0.748 3.897,-0.791c0.099,-0.009 0.179,-0.069 0.221,-0.158l0.944,-2.001c0.094,-0.198 -0.074,-0.428 -0.291,-0.401c-2.043,0.249 -3.82,0.76 -5.32,1.355c-0.13,0.052 -0.199,0.192 -0.166,0.328" style="fill:#223758;fill-rule:nonzero;"/><path d="M383.479,345.273l-28.234,0c-0.671,-1.539 -0.671,-3.986 4.297,-5.983c7.883,-3.177 16.16,-3.243 23.584,5.542c0.131,0.155 0.247,0.302 0.353,0.441" style="fill:#223758;fill-rule:nonzero;"/><path d="M457.187,283.344l7.729,35.394c-0,-0 -60.695,7.923 -71.552,6.684c-11.657,-1.33 -22.342,-3.82 -27.322,-0c-5.837,4.479 -10.105,9.412 -11.508,11.116c-0.358,0.435 -0.254,1.099 0.238,1.371c0.689,0.383 1.918,0.461 3.902,-1.23c4.161,-3.548 8.255,-5.629 11.666,-6.447c3.735,-0.563 7.191,6.707 5.884,8.186c-1.308,1.48 -6.345,1.646 -7.931,2.183c-2.113,0.716 -3.049,1.81 -3.463,2.683c-0.311,0.656 0.143,1.417 0.868,1.452c2.344,0.11 7.823,0.185 13.442,-1.048c7.568,-1.66 16.176,-5.53 18.859,-5.53c4.93,-0 43.885,2.136 56.301,3.637c12.415,1.501 28.762,5.731 36.266,-6.413c7.504,-12.142 -11.996,-56.484 -11.996,-56.484l-21.383,4.446Z" style="fill:#ff847f;fill-rule:nonzero;"/><path d="M295.25,391.867c-11.9,8.293 3.017,45.309 3.017,45.309l45.556,-0.138l96.305,-0.373l-0,-49.983c-47.56,-8.459 -129.021,-5.867 -144.878,5.185" style="fill:#ffb86f;fill-rule:nonzero;"/><path d="M298.232,437.031l50.193,130.555l38.736,-5.333l-35.225,-125.384l-53.704,0.162Z" style="fill:#ffb86f;fill-rule:nonzero;"/><path d="M377.187,222.686c-0,-0.001 -7.64,3 -5.729,25.103c1.91,22.103 7.639,84.318 9.549,103.692c1.91,19.375 4.655,30.149 4.655,30.149l73.933,5.053c-0,-0 6.477,-133.164 4.876,-153.083c-1.601,-19.92 -30.945,-17.464 -42.405,-17.464c-11.461,0 -38.057,4.094 -44.879,6.549" style="fill:#35a7ff;fill-rule:nonzero;"/><path d="M374.694,283.885l7.568,-20.132c-0,-0 0.082,46.072 -3.784,61.124l-3.784,-40.992Z" style="fill:#259def;fill-rule:nonzero;"/><path d="M446.804,292.295c0,0 -17.7,-55.063 -2.046,-72.745c0,0 30.611,-7.059 35.41,30.912c2.138,16.911 5.908,43.77 5.908,43.77c-3.001,5.583 -36.449,9.384 -39.272,-1.937" style="fill:#35a7ff;fill-rule:nonzero;"/><path d="M339.232,282.24l-16.983,34.652c-0,0 -69.456,5.267 -80.315,4.028c-5.488,-0.626 -16.23,0.083 -21.097,0.698c-4.193,0.529 -11.194,3.552 -13.714,5.851c-5.163,4.707 -7.911,9.145 -9.032,10.971c-0.326,0.531 0.025,1.207 0.645,1.269c0.842,0.084 4.864,0.731 5.421,0.743c1.095,0.022 4.119,1.191 4.671,1.113c0.934,-0.132 2.224,-0.611 2.986,-2.163c1.304,-2.661 4.6,-3.645 6.462,-4.02c2.036,-0.41 6.215,5.22 14.947,2.355c8.732,-2.864 8.86,-1.871 13.734,-1.127c5.91,0.902 52.325,4.776 64.741,6.276c12.416,1.5 28.763,5.73 36.266,-6.413c7.504,-12.142 18.627,-38.854 18.627,-38.854l-27.359,-15.379Z" style="fill:#ffc3bd;fill-rule:nonzero;"/><path d="M326.953,290.017c-0,0 27.935,-59.555 50.234,-67.332c-0,0 11.395,36.5 5.075,52.331c-6.319,15.83 -15.671,37.513 -15.671,37.513c-5.346,3.405 -41.275,-14.735 -39.638,-22.512" style="fill:#35a7ff;fill-rule:nonzero;"/><path d="M607.5,130.331l-31.402,292.239c-0.876,8.154 -7.753,14.334 -15.955,14.334l-211.838,-1.009c-0,0 2.383,-25.637 27.449,-30.918c18.312,-3.863 33.547,9.284 51.376,15.645c5.551,1.98 10.863,-3.545 8.579,-8.98c-12.328,-29.275 -13.892,-69.272 -11.779,-84.024c4.322,-30.272 24.943,-76.352 44.147,-121.163c13.443,-31.362 13.647,-64.819 12.55,-82.075c-0.352,-5.632 3.52,-10.511 8.825,-11.592c0.712,-0.147 1.448,-0.221 2.21,-0.221l99.891,0c9.537,0 16.969,8.276 15.947,17.764" style="fill:#27afac;fill-rule:nonzero;"/><path d="M614.227,130.591l-31.402,292.239c-0.876,8.154 -7.752,14.334 -15.955,14.334l-211.952,-0c-0,-0 2.497,-26.646 27.564,-31.927c18.312,-3.863 33.547,9.284 51.376,15.645c5.551,1.98 10.863,-3.545 8.579,-8.98c-12.328,-29.275 -13.892,-69.272 -11.779,-84.024c4.322,-30.272 24.942,-76.352 44.147,-121.163c13.443,-31.362 13.647,-64.819 12.55,-82.075c-0.353,-5.632 3.519,-10.511 8.824,-11.592c0.435,-0.09 0.876,-0.155 1.326,-0.18c0.287,-0.033 0.581,-0.041 0.885,-0.041l99.89,-0c9.537,-0 16.97,8.276 15.947,17.764" style="fill:#18a0a0;fill-rule:nonzero;"/><path d="M512.301,130.591l-31.402,292.239c-0.876,8.154 -7.752,14.334 -15.955,14.334l-110.003,-1.193c0,0 2.371,-25.453 27.437,-30.734c18.313,-3.863 33.547,9.284 51.376,15.645c5.551,1.98 10.863,-3.545 8.579,-8.98c-12.328,-29.275 -13.891,-69.272 -11.779,-84.024c4.322,-30.272 24.942,-76.352 44.147,-121.163c13.443,-31.362 13.647,-64.819 12.55,-82.075c-0.352,-5.632 3.52,-10.511 8.824,-11.592c0.435,-0.09 0.876,-0.155 1.327,-0.18c9.029,0.573 15.881,8.587 14.899,17.723" style="fill:#118d93;fill-rule:nonzero;"/><path d="M560.503,156.819l-3.633,16.029c-0.333,1.465 -1.817,2.521 -3.549,2.521l-24.588,0c-2.578,0 -4.328,-2.259 -3.348,-4.306l3.548,-7.392c1.484,-3.078 4.052,-5.6 7.258,-7.245c2.168,-1.129 4.623,-1.858 7.238,-2.095l13.136,-1.212c2.426,-0.221 4.404,1.637 3.938,3.7" style="fill:#087e8b;fill-rule:nonzero;"/><path d="M553.702,158.866l-3.634,16.028c-0.038,0.164 -0.095,0.32 -0.161,0.475l-21.174,0c-2.578,0 -4.328,-2.259 -3.348,-4.306l3.547,-7.392c1.485,-3.078 4.053,-5.599 7.258,-7.244c0.143,-0.025 0.295,-0.033 0.438,-0.05l13.136,-1.211c2.417,-0.221 4.404,1.637 3.938,3.7" style="fill:#118d93;fill-rule:nonzero;"/><path d="M590.264,175.37l-16.768,-0c-1.18,-0 -2.199,-1.056 -2.426,-2.521l-2.471,-16.029c-0.071,-0.483 -0.059,-0.95 0.039,-1.384c0.285,-1.432 1.375,-2.488 2.647,-2.316l8.958,1.211c4.397,0.59 8.192,4.175 9.885,9.341l2.419,7.392c0.668,2.046 -0.525,4.306 -2.283,4.306" style="fill:#087e8b;fill-rule:nonzero;"/><path d="M587.936,175.37l-14.439,-0c-1.181,-0 -2.2,-1.056 -2.427,-2.521l-2.471,-16.029c-0.071,-0.483 -0.059,-0.95 0.039,-1.384l6.96,0.942c4.404,0.589 8.199,4.175 9.886,9.34l2.419,7.392c0.253,0.77 0.24,1.564 0.033,2.26" style="fill:#118d93;fill-rule:nonzero;"/><path d="M144.695,296.089l-0,37.737c-0,6.054 -4.91,10.965 -10.964,10.965l-20.448,-0c-6.065,-0 -10.975,-4.911 -10.975,-10.965l-0,-37.737l42.387,-0Z" style="fill:#1697ef;fill-rule:nonzero;"/><path d="M144.695,296.089l-0,37.737c-0,6.054 -4.91,10.965 -10.964,10.965l-9.07,-0c-6.054,-0 -10.964,-4.911 -10.964,-10.965l-0,-37.737l30.998,-0Z" style="fill:#35a7ff;fill-rule:nonzero;"/><path d="M138.624,329.92l9.109,-0c2.562,-0 4.648,-2.086 4.648,-4.647l0,-11.898c0,-2.562 -2.086,-4.648 -4.648,-4.648l-9.109,-0l0,21.193Zm9.109,2.975l-12.084,-0l0,-27.142l12.084,-0c4.204,-0 7.622,3.419 7.622,7.622l0,11.898c0,4.203 -3.418,7.622 -7.622,7.622" style="fill:#35a7ff;fill-rule:nonzero;"/><rect x="242.608" y="44.413" width="80.33" height="49.515" style="fill:#35a7ff;"/><path d="M273.806,64.329l-9.558,4.079l9.558,4.019l-1.25,2.888l-11.462,-5.121l0,-3.543l11.462,-5.15l1.25,2.828Z" style="fill:#f9fbfc;fill-rule:nonzero;"/><path d="M287.891,54.892l-6.937,26.646l-3.304,-0.774l6.967,-26.616l3.274,0.744Z" style="fill:#f9fbfc;fill-rule:nonzero;"/><path d="M304.478,66.651l-0,3.543l-11.463,5.121l-1.249,-2.888l9.526,-4.019l-9.526,-4.079l1.249,-2.828l11.463,5.15Z" style="fill:#f9fbfc;fill-rule:nonzero;"/><rect x="174.324" y="265.942" width="45.754" height="32.596" style="fill:#ffb86f;"/><path d="M193.463,272.979c-1.472,0 -1.962,0.397 -1.962,1.495l0,4.906c0,1.916 -0.794,2.5 -2.126,2.874c1.332,0.35 2.126,0.934 2.126,2.826l0,4.906c0,1.098 0.514,1.495 1.962,1.495l0,2.149c-3.714,0 -4.766,-1.191 -4.766,-3.668l0,-4.648c0,-1.332 -0.35,-1.846 -1.565,-1.846l0,-2.453c1.215,0 1.565,-0.537 1.565,-1.869l0,-4.648c0,-2.5 1.052,-3.668 4.766,-3.668l0,2.149Z" style="fill:#f1f2f2;fill-rule:nonzero;"/><path d="M205.705,274.498l0,4.649c0,1.331 0.351,1.869 1.589,1.869l0,2.453c-1.238,-0 -1.589,0.513 -1.589,1.845l0,4.649c0,2.476 -1.051,3.668 -4.766,3.668l0,-2.15c1.449,-0 1.963,-0.397 1.963,-1.495l0,-4.905c0,-1.893 0.794,-2.477 2.126,-2.827c-1.332,-0.374 -2.126,-0.958 -2.126,-2.874l0,-4.905c0,-1.098 -0.491,-1.496 -1.963,-1.496l0,-2.148c3.715,-0 4.766,1.167 4.766,3.667" style="fill:#f1f2f2;fill-rule:nonzero;"/><rect x="149.551" y="131.315" width="17.973" height="2.682" style="fill:#5dd39e;"/><rect x="149.551" y="241.361" width="17.973" height="2.682" style="fill:#5dd39e;"/><rect x="162.353" y="147.112" width="17.973" height="2.683" style="fill:#5dd39e;"/><rect x="182.069" y="147.112" width="17.973" height="2.683" style="fill:#00c4ff;"/><rect x="201.785" y="147.112" width="44.261" height="2.683" style="fill:#00c4ff;"/><rect x="149.551" y="137.612" width="17.973" height="2.682" style="fill:#393f76;"/><rect x="182.069" y="153.065" width="27.866" height="2.683" style="fill:#393f76;"/><rect x="211.458" y="153.065" width="66.111" height="2.683" style="fill:#393f76;"/><rect x="279.091" y="153.065" width="21.095" height="2.683" style="fill:#393f76;"/><rect x="301.708" y="153.065" width="24.871" height="2.683" style="fill:#393f76;"/><rect x="197.395" y="159.018" width="55.02" height="2.682" style="fill:#393f76;"/><rect x="254.227" y="159.018" width="72.352" height="2.682" style="fill:#393f76;"/><rect x="182.069" y="159.018" width="13.172" height="2.682" style="fill:#393f76;"/><rect x="328.333" y="159.018" width="17.973" height="2.682" style="fill:#5dd39e;"/><rect x="162.353" y="167.298" width="17.973" height="2.682" style="fill:#5dd39e;"/><rect x="162.353" y="189.24" width="17.973" height="2.682" style="fill:#5dd39e;"/><rect x="182.069" y="173.251" width="17.973" height="2.682" style="fill:#5dd39e;"/><rect x="201.785" y="173.251" width="44.261" height="2.682" style="fill:#00c4ff;"/><rect x="201.785" y="202.095" width="11.586" height="2.682" style="fill:#00c4ff;"/><rect x="182.069" y="179.203" width="27.866" height="2.682" style="fill:#393f76;"/><rect x="211.458" y="179.203" width="66.111" height="2.682" style="fill:#393f76;"/><rect x="279.091" y="179.203" width="21.095" height="2.682" style="fill:#393f76;"/><rect x="301.708" y="179.203" width="24.871" height="2.682" style="fill:#393f76;"/><rect x="197.395" y="185.156" width="55.02" height="2.682" style="fill:#393f76;"/><rect x="182.069" y="185.156" width="13.172" height="2.682" style="fill:#393f76;"/><rect x="254.227" y="185.155" width="17.973" height="2.683" style="fill:#5dd39e;"/><rect x="162.353" y="196.142" width="17.973" height="2.683" style="fill:#5dd39e;"/><rect x="162.353" y="233.785" width="17.973" height="2.683" style="fill:#5dd39e;"/><rect x="182.069" y="202.095" width="17.973" height="2.682" style="fill:#5dd39e;"/><rect x="182.069" y="228.725" width="17.973" height="2.683" style="fill:#5dd39e;"/><rect x="200.949" y="207.113" width="7.319" height="2.682" style="fill:#5dd39e;"/><rect x="209.711" y="207.113" width="10.989" height="2.682" style="fill:#393f76;"/><rect x="221.679" y="207.113" width="12.178" height="2.682" style="fill:#393f76;"/><rect x="234.945" y="207.113" width="9.134" height="2.682" style="fill:#393f76;"/><rect x="209.711" y="223.539" width="10.989" height="2.683" style="fill:#393f76;"/><rect x="221.679" y="223.539" width="12.178" height="2.683" style="fill:#393f76;"/><rect x="234.945" y="223.538" width="9.134" height="2.683" style="fill:#393f76;"/><rect x="209.711" y="212.588" width="10.989" height="2.682" style="fill:#393f76;"/><rect x="228.529" y="212.589" width="15.549" height="2.682" style="fill:#393f76;"/><rect x="221.679" y="212.588" width="5.98" height="2.682" style="fill:#393f76;"/><rect x="209.712" y="218.063" width="4.356" height="2.682" style="fill:#393f76;"/><rect x="215.155" y="218.064" width="5.545" height="2.682" style="fill:#393f76;"/><rect x="221.679" y="218.064" width="22.399" height="2.682" style="fill:#393f76;"/><rect x="200.949" y="212.588" width="7.319" height="2.682" style="fill:#5dd39e;"/><rect x="200.949" y="218.063" width="7.319" height="2.682" style="fill:#5dd39e;"/><rect x="200.949" y="223.539" width="7.319" height="2.683" style="fill:#5dd39e;"/><rect x="245.531" y="207.113" width="7.319" height="2.682" style="fill:#5dd39e;"/><rect x="245.531" y="212.588" width="7.319" height="2.682" style="fill:#5dd39e;"/><rect x="245.531" y="218.063" width="7.319" height="2.682" style="fill:#5dd39e;"/><rect x="245.531" y="223.539" width="7.319" height="2.683" style="fill:#5dd39e;"/><path d="M398.16,220.925l-0,-7.304c-0,0 28.048,-7.009 40.135,-2.612l-0,9.133l-40.135,0.783Z" style="fill:#3a6bca;fill-rule:nonzero;"/><rect x="67.871" y="127.861" width="57.565" height="38.503" style="fill:#5dd39e;"/><path d="M99.049,149.512c-2.605,2.605 -6.843,2.604 -9.448,0c-2.605,-2.605 -2.605,-6.843 -0,-9.448c2.605,-2.605 6.843,-2.605 9.448,0c2.604,2.605 2.605,6.843 -0,9.448m-12.126,-10.598c-2.75,3.44 -2.707,8.466 0.093,11.864c3.182,3.86 8.633,4.483 12.549,1.871l6.042,6.042c0.255,0.255 0.668,0.255 0.923,0l1.698,-1.698c0.255,-0.255 0.255,-0.669 -0,-0.923l-6.042,-6.042c2.447,-3.669 2.055,-8.686 -1.18,-11.921c-3.936,-3.936 -10.508,-3.667 -14.083,0.807" style="fill:#f9fbfc;fill-rule:nonzero;"/><path d="M348.296,437.057l32.407,126.127l8.729,-0.81l-37.461,-125.467l-3.675,0.15Z" style="fill:#f7a357;fill-rule:nonzero;"/><path d="M371.151,437.176l50.193,130.555l38.736,-5.333l-35.226,-125.384l-53.703,0.162Z" style="fill:#f7a357;fill-rule:nonzero;"/><path d="M421.18,437.164l32.406,126.127l8.729,-0.81l-37.461,-125.467l-3.674,0.15Z" style="fill:#e88e43;fill-rule:nonzero;"/><rect x="443.354" y="437.01" width="34.641" height="156.11" style="fill:#18a0a0;"/><rect x="471.854" y="437.01" width="6.141" height="156.11" style="fill:#118d93;"/><path d="M533.174,589.95l-144.998,0c-3.244,0 -5.874,2.63 -5.874,5.874l0,4.045l156.746,0l0,-4.045c0,-3.244 -2.63,-5.874 -5.874,-5.874" style="fill:#118d93;fill-rule:nonzero;"/><path d="M565.831,459.193l-217.527,-0l0,-23.332l234.252,-0l0,6.607c0,9.238 -7.489,16.725 -16.725,16.725" style="fill:#18a0a0;fill-rule:nonzero;"/><path d="M562.91,459.145l-207.977,-0l0,-23.332l224.251,-0l0,6.145c0,9.492 -7.286,17.187 -16.274,17.187" style="fill:#118d93;fill-rule:nonzero;"/></g></svg>