<?xml version="1.0" encoding="UTF-8" standalone="no"?><!DOCTYPE svg PUBLIC "-//W3C//DTD SVG 1.1//EN" "http://www.w3.org/Graphics/SVG/1.1/DTD/svg11.dtd"><svg width="100%" height="100%" viewBox="0 0 2709 2550" version="1.1" xmlns="http://www.w3.org/2000/svg" xmlns:xlink="http://www.w3.org/1999/xlink" xml:space="preserve" xmlns:serif="http://www.serif.com/" style="fill-rule:evenodd;clip-rule:evenodd;stroke-linejoin:round;stroke-miterlimit:2;"><g id="Layer-1" serif:id="Layer 1"><path d="M1089.05,967.208l29.683,-10.237c5.342,-1.842 10.317,-4.621 14.688,-8.204l12.22,-10.013c8.755,-7.171 19.771,-11 31.088,-10.8l40.192,0.713c7.204,0.125 13.116,5.733 13.625,12.916c0.462,6.55 -3.725,12.529 -10.034,14.342l-30.925,8.875c0,0 100.029,-4.729 106.238,1.171c6.208,5.9 -6.117,95.871 -11.7,103.087c-5.583,7.217 -120.567,-0.391 -120.567,-0.391l-84.387,-10.238l9.879,-91.221Z" style="fill:#ffc3bd;fill-rule:nonzero;"/><path d="M1094.46,965.333l-0.329,98.084l-333.792,10.875c-22.17,0.708 -43.625,-8 -59.004,-23.959l-48.079,-68.187l81.954,-109.146c30.917,47 52.338,83.042 52.338,83.042l306.912,9.291Z" style="fill:#ffc3bd;fill-rule:nonzero;"/><path d="M745.004,859.313l-99.458,133.104l-149.625,-155.25l66.125,-171.5c49.204,27.958 133.25,118.104 182.958,193.646" style="fill:#d64045;fill-rule:nonzero;"/><path d="M688.496,2491.44l-26.188,-123.976l-114.133,4.634l34.925,160.329l105.396,-40.987Z" style="fill:#ffc3bd;fill-rule:nonzero;"/><path d="M676.813,2436.12l-14.5,-68.655l-114.134,4.638l17.825,81.846l110.809,-17.829Z" style="fill:#ff847f;fill-rule:nonzero;"/><path d="M581.038,2558.71l237.116,0c10.713,0 19.396,-8.683 19.396,-19.395c0,-8.134 -5.067,-15.405 -12.7,-18.209l-124.733,-45.867c-0,0.001 -46.829,18.109 -63.334,18.871c-12.737,0.588 -43.083,-6.845 -59.195,-11.091c-5.1,-1.338 -9.975,2.775 -9.505,8.025l5.388,60.737c0.346,3.921 3.633,6.929 7.567,6.929" style="fill:#0e1738;fill-rule:nonzero;"/><path d="M686.317,2489.36c-1.138,-8.621 -3.154,-41.821 2.179,-40.846c5.337,0.983 23.962,8.825 26.9,18.629c2.946,9.804 -1.954,26.467 -1.954,26.467l-27.125,-4.25Z" style="fill:#0e1738;fill-rule:nonzero;"/><path d="M720.463,2507.67c-1.15,-0 -2.246,-0.684 -2.717,-1.817c-0.621,-1.5 0.092,-3.221 1.592,-3.842c12.2,-5.045 13.125,-13.662 13.154,-14.025c0.15,-1.6 1.525,-2.787 3.166,-2.675c1.609,0.13 2.813,1.513 2.7,3.121c-0.033,0.504 -1.054,12.509 -16.766,19.013c-0.367,0.15 -0.75,0.225 -1.129,0.225" style="fill:#fff;fill-rule:nonzero;"/><path d="M814.242,2545.9l-235.267,-0c-1.083,-0 -1.962,-0.875 -1.962,-1.959c-0,-1.083 0.879,-1.958 1.962,-1.958l235.267,0c1.083,0 1.962,0.875 1.962,1.958c0,1.084 -0.879,1.959 -1.962,1.959" style="fill:#fff;fill-rule:nonzero;"/><path d="M741.704,2514.78c-1.112,0 -2.171,-0.637 -2.667,-1.717c-0.679,-1.475 -0.033,-3.22 1.434,-3.9c0.1,-0.037 9.525,-4.525 10.929,-14.404c0.229,-1.608 1.704,-2.766 3.325,-2.496c1.608,0.225 2.725,1.717 2.5,3.325c-1.871,13.121 -13.796,18.696 -14.304,18.93c-0.396,0.175 -0.808,0.262 -1.217,0.262" style="fill:#fff;fill-rule:nonzero;"/><path d="M391.825,1343.65l233.067,0l67.97,1069.07l-155.058,20.867l-145.979,-1089.94Z" style="fill:#ffb86f;fill-rule:nonzero;"/><path d="M462.963,1497.59l-30.313,150.895l105.154,785.109l-74.842,-936.005Z" style="fill:#f7a357;fill-rule:nonzero;"/><path d="M121.95,2491.44l26.187,-123.976l114.134,4.634l-34.925,160.329l-105.396,-40.987Z" style="fill:#ffc3bd;fill-rule:nonzero;"/><path d="M133.633,2436.12l14.5,-68.655l114.134,4.638l-17.829,81.846l-110.805,-17.829Z" style="fill:#ff847f;fill-rule:nonzero;"/><path d="M125.967,2558.71l237.116,0c10.713,0 19.396,-8.683 19.396,-19.395c0,-8.134 -5.066,-15.405 -12.7,-18.209l-124.733,-45.867c-0,0.001 -46.829,18.109 -63.334,18.871c-12.737,0.588 -43.083,-6.845 -59.195,-11.091c-5.096,-1.338 -9.975,2.775 -9.505,8.025l5.388,60.737c0.35,3.921 3.633,6.929 7.567,6.929" style="fill:#0e1738;fill-rule:nonzero;"/><path d="M231.25,2489.36c-1.142,-8.621 -3.158,-41.821 2.175,-40.846c5.338,0.983 23.962,8.825 26.904,18.629c2.942,9.804 -1.958,26.467 -1.958,26.467l-27.121,-4.25Z" style="fill:#0e1738;fill-rule:nonzero;"/><path d="M265.392,2507.67c-1.15,-0 -2.246,-0.684 -2.717,-1.817c-0.621,-1.5 0.092,-3.221 1.592,-3.842c12.2,-5.045 13.125,-13.662 13.154,-14.025c0.15,-1.6 1.525,-2.787 3.167,-2.675c1.608,0.13 2.812,1.513 2.7,3.121c-0.034,0.504 -1.055,12.509 -16.767,19.013c-0.367,0.15 -0.75,0.225 -1.129,0.225" style="fill:#fff;fill-rule:nonzero;"/><path d="M359.171,2545.9l-235.267,-0c-1.083,-0 -1.958,-0.875 -1.958,-1.959c-0,-1.083 0.875,-1.958 1.958,-1.958l235.267,0c1.083,0 1.962,0.875 1.962,1.958c0,1.084 -0.879,1.959 -1.962,1.959" style="fill:#fff;fill-rule:nonzero;"/><path d="M286.633,2514.78c-1.112,0 -2.17,-0.637 -2.666,-1.717c-0.679,-1.475 -0.034,-3.22 1.433,-3.9c0.1,-0.037 9.525,-4.525 10.929,-14.404c0.229,-1.608 1.704,-2.766 3.325,-2.496c1.609,0.225 2.725,1.717 2.5,3.325c-1.871,13.121 -13.796,18.696 -14.304,18.93c-0.396,0.175 -0.808,0.262 -1.217,0.262" style="fill:#fff;fill-rule:nonzero;"/><path d="M218.292,1343.65l-94.217,1069.07l150.863,20.867l216.845,-1079.45l-273.491,-10.492Z" style="fill:#ffb86f;fill-rule:nonzero;"/><path d="M218.292,1343.65c15.2,67.134 330.991,113.417 410.85,66.834l-4.25,-61.767l-406.6,-5.067Z" style="fill:#f7a357;fill-rule:nonzero;"/><path d="M566.933,746.488l31.459,196.32l46.141,48.763c0,-0 -10.895,-204.429 -77.6,-245.083" style="fill:#a42327;fill-rule:nonzero;"/><path d="M335.567,654.713l149.608,-0l76.85,10.954c0,-0 97.067,181.925 62.867,683.054c-55.384,40.85 -331.617,43.8 -406.6,-5.067c-0,0 -6.817,-643.612 10.279,-659.542c17.1,-15.933 106.996,-29.399 106.996,-29.399" style="fill:#d64045;fill-rule:nonzero;"/><path d="M569.713,299.85c-93.213,-61.088 -220.492,-37.938 -234.146,10c-74.696,0 -45.25,104.063 -15.713,165.271l197.784,-0c75.579,-59.496 52.075,-175.271 52.075,-175.271" style="fill:#0e1738;fill-rule:nonzero;"/><path d="M438.846,327.992c-56.838,-0 -102.909,46.075 -102.909,102.912l0,13.179c-10.912,-7.854 -23.349,-6.325 -30.958,0.084c-19.187,16.183 3.296,73.433 30.959,66.554l-0,157.937l149.608,0l-0,-78.591c33.337,-17.029 56.212,-51.621 56.212,-91.625l0,-67.538c0,-56.837 -46.075,-102.912 -102.912,-102.912" style="fill:#ffc3bd;fill-rule:nonzero;"/><path d="M355.167,546.625c-0,0 28.937,87.117 130.379,64.983l-0,-21.545c-20.704,7.833 -78.509,15.754 -130.379,-43.442" style="fill:#ff847f;fill-rule:nonzero;"/><path d="M335.567,443.788l9.779,32.958c1.071,4.062 5.529,6.2 9.371,4.496l0.541,-0.242c2,-0.887 3.421,-2.696 3.909,-4.833c8.925,-39.125 36.575,-52.35 33.479,-90.663c-0,0 112.933,27.346 158.762,-24.108c45.83,-51.458 -139.895,-69.95 -180.9,-53.063c-41.004,16.88 -34.941,135.455 -34.941,135.455" style="fill:#0e1738;fill-rule:nonzero;"/><path d="M439.092,454.621c-0,4.333 -3.513,7.841 -7.846,7.841c-4.329,0 -7.842,-3.508 -7.842,-7.841c0,-4.334 3.513,-7.842 7.842,-7.842c4.333,0 7.846,3.508 7.846,7.842" style="fill:#0e1738;fill-rule:nonzero;"/><path d="M511.413,454.621c-0,4.333 -3.513,7.841 -7.846,7.841c-4.329,0 -7.842,-3.508 -7.842,-7.841c0,-4.334 3.513,-7.842 7.842,-7.842c4.333,0 7.846,3.508 7.846,7.842" style="fill:#0e1738;fill-rule:nonzero;"/><path d="M477.038,457.433c7.054,7.484 12.479,16.117 16.437,25.688c0.967,2.417 1.742,4.925 2.313,7.617c0.275,1.354 0.4,2.787 0.354,4.341c-0.038,0.792 -0.13,1.6 -0.413,2.529c-0.387,1.13 -0.937,1.842 -1.487,2.446c-4.354,4.184 -9.175,5.625 -14.188,7.017c3.734,-3.371 8.009,-6.725 10.421,-10.013c0.713,-0.737 0.338,-2.929 -0.208,-5.112c-0.517,-2.204 -1.4,-4.45 -2.234,-6.704c-3.495,-9.071 -7.791,-18.071 -10.995,-27.809" style="fill:#ff847f;fill-rule:nonzero;"/><path d="M407.038,442.05c3.258,-8.708 10.474,-16.017 19.937,-19.183c4.725,-1.467 9.892,-1.792 14.637,-0.609c4.746,1.113 9.03,3.479 12.292,6.859c-9.341,-1.079 -17.104,-1.317 -24.533,1.212c-7.5,2.279 -14.3,6.963 -22.333,11.721" style="fill:#0e1738;fill-rule:nonzero;"/><path d="M533.179,442.05c-8.037,-4.758 -14.837,-9.442 -22.337,-11.721c-7.425,-2.529 -15.192,-2.291 -24.529,-1.212c3.262,-3.38 7.545,-5.746 12.291,-6.859c4.746,-1.183 9.909,-0.858 14.633,0.609c9.463,3.166 16.684,10.475 19.942,19.183" style="fill:#0e1738;fill-rule:nonzero;"/><path d="M485.871,530.942c-3.063,3.775 -7.675,6.116 -12.384,7.337c-4.754,1.292 -9.774,1.334 -14.67,0.492c-4.855,-0.983 -9.692,-2.917 -13.559,-6.317c-3.87,-3.271 -6.645,-8.208 -6.412,-13.087c2.95,3.829 6.287,6.245 9.887,8.05c3.63,1.729 7.496,2.95 11.529,3.654c4.005,0.829 8.171,1.125 12.401,1.171c4.249,-0.034 8.5,-0.354 13.208,-1.3" style="fill:#ff847f;fill-rule:nonzero;"/><path d="M335.254,492.054c-2.937,-1.4 -5.662,-3.179 -8.083,-5.746c-1.125,-1.333 -2.163,-3.033 -2.379,-5.179c-0.242,-2.158 0.679,-4.329 1.858,-5.871c0.704,-0.85 1.142,-1.433 1.433,-1.85c0.317,-0.529 0.684,-1.021 0.909,-1.633c0.546,-1.15 0.829,-2.488 1,-3.829c0.358,-2.684 0.179,-5.629 -0.654,-8.1c-0.334,-1.209 -0.992,-2.396 -1.367,-2.679c-0.413,-0.405 -2,-0.95 -3.225,-1.259c-2.663,-0.737 -5.5,-0.741 -7.954,-0.021c-5.192,1.259 -7.559,7.75 -8.304,14.08c-0.705,-3.155 -0.98,-6.48 -0.246,-9.938c0.775,-3.396 3.254,-6.846 6.812,-8.387c3.475,-1.7 7.296,-1.767 10.846,-1.18c1.842,0.409 3.446,0.68 5.608,2.175c2.105,1.763 2.788,3.638 3.43,5.421c1.054,3.621 1.204,7.217 0.533,10.817c-0.392,1.783 -0.942,3.563 -1.9,5.233c-0.429,0.846 -1.034,1.646 -1.663,2.388c-0.758,0.775 -1.383,1.379 -1.762,1.7c-4.079,3.079 0.783,9.517 5.108,13.858" style="fill:#ff847f;fill-rule:nonzero;"/><path d="M316.213,657.958l19.724,-34.954c0,0 62.734,47.708 101.263,45.092c38.529,-2.613 48.071,-34.638 48.071,-34.638l14.666,23.359c0,-0 2.363,37.696 -12.012,46.191c0,0 -35.013,-27.07 -50.725,-22.495c-15.708,4.575 -42.504,33 -42.504,33l-78.483,-55.555Z" style="fill:#b0262a;fill-rule:nonzero;"/><path d="M632.45,1100.07l-4.379,164.854l-0.263,9.863c-67.175,-19.68 -251.22,-71.459 -330.954,-93.925c-23.346,-6.546 -41.433,-24.984 -47.583,-48.421l-32.058,-117.096l0.441,-43.738l1.992,-194.041c-0,-0 39.446,-88.221 96.575,-23.792c57.092,64.429 116.392,290.4 116.392,290.4l199.837,55.896Z" style="fill:#a42327;fill-rule:nonzero;"/><rect x="1814.64" y="1379.42" width="292.892" height="1170.58" style="fill:#1fff8f;"/><rect x="1814.64" y="1379.42" width="146.875" height="1170.58" style="fill:#1bef7f;"/><path d="M2294.59,509.1l-812.434,0l0,870.317l1187.64,-0l-0,-495.109c-0,-207.216 -167.992,-375.208 -375.209,-375.208" style="fill:#2adb83;fill-rule:nonzero;"/><path d="M1587.01,819.8l1077.14,0c-19.108,-110.283 -86.325,-204.017 -179.292,-258.85l-897.85,0l0,258.85Z" style="fill:#1fff8f;fill-rule:nonzero;"/><path d="M1857.36,1379.42l-750.43,-0l0,-491.409c0,-209.262 169.659,-378.908 378.917,-378.908l10.6,0c199.325,0 360.913,161.588 360.913,360.917l-0,509.4Z" style="fill:#40e294;fill-rule:nonzero;"/><path d="M1142.53,1343.83l0,-459.516c0,-187.271 152.354,-339.63 339.625,-339.63c187.271,0 339.629,152.359 339.629,339.63l0,459.516l-679.254,0Z" style="fill:#18b265;fill-rule:nonzero;"/><path d="M1857.36,1379.42l-750.43,-0l0,503.741c0,202.463 164.138,366.588 366.588,366.588l21.246,-0c200.254,-0 362.595,-162.342 362.595,-362.592l0,-507.737Z" style="fill:#2adb83;fill-rule:nonzero;"/><path d="M1142.53,1415l0,453.746c0,174.75 129.858,325.579 303.683,343.546c203.309,21 375.571,-138.646 375.571,-337.767l0,-459.525l-679.254,0Z" style="fill:#1fff8f;fill-rule:nonzero;"/><path d="M2027.99,953.575l-0,-573.246l-49.221,0l-0,573.246c-16.313,8.775 -27.417,26.008 -27.417,45.838c0,28.733 23.288,52.02 52.021,52.02c28.733,0 52.021,-23.287 52.021,-52.02c-0,-19.83 -11.092,-37.063 -27.404,-45.838" style="fill:#3a4d57;fill-rule:nonzero;"/><path d="M2026.26,999.404c0,12.642 -10.245,22.888 -22.887,22.888c-12.642,-0 -22.888,-10.246 -22.888,-22.888c0,-12.637 10.246,-22.883 22.888,-22.883c12.642,-0 22.887,10.246 22.887,22.883" style="fill:#3a4d57;fill-rule:nonzero;"/><path d="M2156.39,435.758l-177.638,0l0,-110.775l177.638,0c12.146,0 21.962,9.842 21.962,21.975l0,66.825c0,12.13 -9.816,21.975 -21.962,21.975" style="fill:#3a4d57;fill-rule:nonzero;"/><path d="M40.225,1232.83l991.762,-612.329l403.663,653.791l-991.763,612.334l-403.662,-653.796Z" style="fill:#e8e9fd;"/><path d="M40.225,1232.83l646.188,59.763c48.658,4.5 91.725,-22.092 109.504,-67.609l236.066,-604.487l-991.758,612.333Z" style="fill:#c4c9f7;fill-rule:nonzero;"/><path d="M40.225,1232.83l620.675,18.442c46.737,1.391 89.804,-25.2 109.504,-67.605l261.579,-563.17l-991.758,612.333Z" style="fill:#e8e9fd;fill-rule:nonzero;"/><path d="M724.225,1164.77c19.55,-13.042 104.933,-6.38 110.283,7.591c5.354,13.975 -16.708,25.246 -31.896,23.288c-15.2,-1.963 -78.387,-30.879 -78.387,-30.879" style="fill:#ffc3bd;fill-rule:nonzero;"/><path d="M702.338,1151.96l-30.963,108.421l-345.171,-90.879c-25.166,-7.458 -44.958,-26.958 -52.7,-52.042l-37.879,-122.416l158.713,-36.5c18.37,58.291 30.079,102.291 30.079,102.291l277.92,91.125Z" style="fill:#ffc3bd;fill-rule:nonzero;"/><path d="M402.321,958.542l-166.692,36.5l-9.858,3.116l-57.059,-219.616c0,-0 -9.291,-82.042 75.167,-101.917c48.709,-11.5 158.067,280.833 158.442,281.917" style="fill:#d64045;fill-rule:nonzero;"/><path d="M841.483,1291.77c-12.87,4.866 -135.583,-9.684 -170.121,-31.396l30.959,-108.429c39.616,9.108 159.412,48.158 184.221,76.458c28.125,32.017 -31.35,58.15 -45.059,63.367" style="fill:#ffc3bd;fill-rule:nonzero;"/></g></svg>