<?xml version="1.0" encoding="UTF-8" standalone="no"?><!DOCTYPE svg PUBLIC "-//W3C//DTD SVG 1.1//EN" "http://www.w3.org/Graphics/SVG/1.1/DTD/svg11.dtd"><svg width="100%" height="100%" viewBox="0 0 2084 2084" version="1.1" xmlns="http://www.w3.org/2000/svg" xmlns:xlink="http://www.w3.org/1999/xlink" xml:space="preserve" xmlns:serif="http://www.serif.com/" style="fill-rule:evenodd;clip-rule:evenodd;stroke-linejoin:round;stroke-miterlimit:2;"><g><g><path d="M1800,568.775c0,-22.1 -8.779,-43.296 -24.408,-58.925c-15.629,-15.629 -36.825,-24.408 -58.925,-24.408l-1612.5,-0c-22.1,-0 -43.296,8.779 -58.925,24.408c-15.63,15.629 -24.409,36.825 -24.409,58.925l0,945.783c0,22.1 8.779,43.296 24.409,58.925c15.629,15.63 36.825,24.409 58.925,24.409l1612.5,-0c22.1,-0 43.296,-8.779 58.925,-24.409c15.629,-15.629 24.408,-36.825 24.408,-58.925l0,-945.783Z" style="fill:#070707;"/><path d="M1739.58,627.396c0,-46.025 -37.308,-83.333 -83.333,-83.333l-1491.67,-0c-46.025,-0 -83.333,37.308 -83.333,83.333l0,828.542c0,46.024 37.308,83.333 83.333,83.333l1450,-0c69.038,-0 125,-55.963 125,-125l0,-786.875Z" style="fill:#fff;"/><g><g><clipPath id="_clip1"><path d="M1739.58,627.396c0,-46.025 -37.308,-83.333 -83.333,-83.333l-1491.67,-0c-46.025,-0 -83.333,37.308 -83.333,83.333l0,828.542c0,46.024 37.308,83.333 83.333,83.333l1450,-0c69.038,-0 125,-55.963 125,-125l0,-786.875Z"/></clipPath><g clip-path="url(#_clip1)"><path d="M622.917,1097.2c-0,-13.829 -11.225,-25.054 -25.054,-25.054l-444.88,-0c-13.825,-0 -25.054,11.225 -25.054,25.054l0,200.438c0,13.829 11.229,25.058 25.054,25.058l444.88,-0c13.829,-0 25.054,-11.229 25.054,-25.059l-0,-200.437Z" style="fill:#fd8300;"/><path d="M485.442,985.738c-0,-6.905 -5.609,-12.513 -12.513,-12.513l-332.487,0c-6.904,0 -12.513,5.608 -12.513,12.513l0,25.024c0,6.909 5.609,12.513 12.513,12.513l332.487,0c6.904,0 12.513,-5.604 12.513,-12.512l-0,-25.025Z" style="fill:#454545;"/><path d="M622.917,1363.94c-0,-5.9 -4.792,-10.692 -10.696,-10.692l-473.596,0c-5.904,0 -10.696,4.792 -10.696,10.692l0,21.391c0,5.9 4.792,10.692 10.696,10.692l473.596,0c5.904,0 10.696,-4.792 10.696,-10.692l-0,-21.391Z" style="fill:#afafaf;"/><path d="M622.917,1431.16c-0,-5.9 -4.792,-10.692 -10.696,-10.692l-473.596,-0c-5.904,-0 -10.696,4.792 -10.696,10.692l0,21.387c0,5.904 4.792,10.696 10.696,10.696l473.596,-0c5.904,-0 10.696,-4.792 10.696,-10.696l-0,-21.387Z" style="fill:#afafaf;"/><path d="M1157.72,1097.2c-0,-13.829 -11.23,-25.054 -25.059,-25.054l-444.875,-0c-13.829,-0 -25.054,11.225 -25.054,25.054l0,200.438c0,13.829 11.225,25.058 25.054,25.058l444.875,-0c13.829,-0 25.059,-11.229 25.059,-25.059l-0,-200.437Z" style="fill:#fd8300;"/><path d="M1692.9,634.7c0,-18.429 -14.962,-33.388 -33.387,-33.388l-1505.07,0c-18.429,0 -33.387,14.959 -33.387,33.388l-0,267.104c-0,18.429 14.958,33.392 33.387,33.392l1505.07,-0c18.425,-0 33.387,-14.963 33.387,-33.392l0,-267.104Z" style="fill:#ff4922;"/><path d="M1157.72,1363.94c-0,-5.9 -4.792,-10.692 -10.696,-10.692l-473.6,0c-5.9,0 -10.692,4.792 -10.692,10.692l0,21.391c0,5.9 4.792,10.692 10.692,10.692l473.6,0c5.904,0 10.696,-4.792 10.696,-10.692l-0,-21.391Z" style="fill:#afafaf;"/><path d="M1157.72,1431.16c-0,-5.9 -4.792,-10.692 -10.696,-10.692l-473.6,-0c-5.9,-0 -10.692,4.792 -10.692,10.692l0,21.387c0,5.904 4.792,10.696 10.692,10.696l473.6,-0c5.904,-0 10.696,-4.792 10.696,-10.696l-0,-21.387Z" style="fill:#afafaf;"/><path d="M1692.9,1097.2c0,-13.829 -11.229,-25.054 -25.054,-25.054l-444.879,-0c-13.829,-0 -25.054,11.225 -25.054,25.054l-0,200.438c-0,13.829 11.225,25.058 25.054,25.058l444.879,-0c13.825,-0 25.054,-11.229 25.054,-25.059l0,-200.437Z" style="fill:#fd8300;"/><path d="M1692.9,1363.94c0,-5.9 -4.791,-10.692 -10.696,-10.692l-473.595,0c-5.905,0 -10.696,4.792 -10.696,10.692l-0,21.391c-0,5.9 4.791,10.692 10.696,10.692l473.595,0c5.905,0 10.696,-4.792 10.696,-10.692l0,-21.391Z" style="fill:#afafaf;"/><path d="M1692.9,1431.16c0,-5.9 -4.791,-10.692 -10.696,-10.692l-473.595,-0c-5.905,-0 -10.696,4.792 -10.696,10.692l-0,21.387c-0,5.904 4.791,10.696 10.696,10.696l473.595,-0c5.905,-0 10.696,-4.792 10.696,-10.696l0,-21.387Z" style="fill:#afafaf;"/></g></g></g><path d="M1979.17,1443.75c22.1,0 43.296,-8.779 58.925,-24.408c15.629,-15.63 24.408,-36.825 24.408,-58.925l0,-637.5c0,-22.1 -8.779,-43.296 -24.408,-58.925c-15.629,-15.63 -36.825,-24.409 -58.925,-24.409l-286.65,0c-22.1,0 -43.296,8.779 -58.925,24.409c-15.629,15.629 -24.409,36.825 -24.409,58.925l0,637.5c0,22.1 8.78,43.295 24.409,58.925c15.629,15.629 36.825,24.408 58.925,24.408l286.65,0Z" style="fill:#070707;"/><path d="M1965.17,1427.08c22.1,0 43.296,-8.779 58.925,-24.408c15.625,-15.629 24.408,-36.825 24.408,-58.925l0,-604.167c0,-22.1 -8.783,-43.296 -24.408,-58.925c-15.629,-15.629 -36.825,-24.408 -58.925,-24.408l-258.662,-0c-22.105,-0 -43.3,8.779 -58.93,24.408c-15.625,15.629 -24.404,36.825 -24.404,58.925l0,604.167c0,22.1 8.779,43.296 24.404,58.925c15.63,15.629 36.825,24.408 58.93,24.408l258.662,0Z" style="fill:#fff;"/><g><g><clipPath id="_clip2"><path d="M1965.17,1427.08c22.1,0 43.296,-8.779 58.925,-24.408c15.625,-15.629 24.408,-36.825 24.408,-58.925l0,-604.167c0,-22.1 -8.783,-43.296 -24.408,-58.925c-15.629,-15.629 -36.825,-24.408 -58.925,-24.408l-258.662,-0c-22.105,-0 -43.3,8.779 -58.93,24.408c-15.625,15.629 -24.404,36.825 -24.404,58.925l0,604.167c0,22.1 8.779,43.296 24.404,58.925c15.63,15.629 36.825,24.408 58.93,24.408l258.662,0Z"/></clipPath><g clip-path="url(#_clip2)"><path d="M2004.59,1005.33c-0,-9.429 -7.655,-17.083 -17.084,-17.083l-303.333,-0c-9.429,-0 -17.083,7.654 -17.083,17.083l-0,136.667c-0,9.429 7.654,17.083 17.083,17.083l303.333,0c9.429,0 17.084,-7.654 17.084,-17.083l-0,-136.667Z" style="fill:#fd8300;"/><path d="M2003.83,1290c0,-9.429 -7.658,-17.083 -17.083,-17.083l-303.333,-0c-9.43,-0 -17.084,7.654 -17.084,17.083l0,136.667c0,9.429 7.654,17.083 17.084,17.083l303.333,0c9.425,0 17.083,-7.654 17.083,-17.083l0,-136.667Z" style="fill:#fd8300;"/><path d="M1875.42,933.038c0,-4.025 -3.267,-7.292 -7.292,-7.292l-193.75,-0c-4.025,-0 -7.291,3.267 -7.291,7.292l-0,14.583c-0,4.025 3.266,7.292 7.291,7.292l193.75,-0c4.025,-0 7.292,-3.267 7.292,-7.292l0,-14.583Z" style="fill:#454545;"/><path d="M2004.59,1187.2c-0,-4.025 -3.267,-7.292 -7.292,-7.292l-322.917,0c-4.025,0 -7.291,3.267 -7.291,7.292l-0,14.583c-0,4.025 3.266,7.292 7.291,7.292l322.917,0c4.025,0 7.292,-3.266 7.292,-7.292l-0,-14.583Z" style="fill:#afafaf;"/><path d="M2004.59,1233.04c-0,-4.024 -3.267,-7.291 -7.292,-7.291l-322.917,-0c-4.025,-0 -7.291,3.266 -7.291,7.291l-0,14.584c-0,4.025 3.266,7.291 7.291,7.291l322.917,0c4.025,0 7.292,-3.266 7.292,-7.291l-0,-14.584Z" style="fill:#afafaf;"/><path d="M2005.36,711.608c0,-10.833 -8.795,-19.625 -19.629,-19.625l-299.775,0c-10.833,0 -19.625,8.792 -19.625,19.625l0,157.013c0,10.829 8.792,19.625 19.625,19.625l299.775,-0c10.834,-0 19.629,-8.796 19.629,-19.625l0,-157.013Z" style="fill:#ff4922;"/></g></g></g></g></g></svg>