<?xml version="1.0" encoding="UTF-8" standalone="no"?><!DOCTYPE svg PUBLIC "-//W3C//DTD SVG 1.1//EN" "http://www.w3.org/Graphics/SVG/1.1/DTD/svg11.dtd"><svg width="100%" height="100%" viewBox="0 0 2105 2105" version="1.1" xmlns="http://www.w3.org/2000/svg" xmlns:xlink="http://www.w3.org/1999/xlink" xml:space="preserve" xmlns:serif="http://www.serif.com/" style="fill-rule:evenodd;clip-rule:evenodd;stroke-linejoin:round;stroke-miterlimit:2;"><g><path d="M1858.83,393.888l-23.246,12.416l-25.787,-48.3c-2.271,-4.246 -6.675,-6.554 -10.408,-5.437l-54.363,15.962c-33.696,-52.837 -58.083,-60.933 -69.962,-60.846c-4.396,-7.929 -8.7,-15.15 -12.98,-21.787l43.68,-63.046c2.35,-3.404 1.762,-8.708 -1.388,-12.446l-65.875,-78.041l19.867,-25.83c2.741,-3.57 1.962,-9.533 -1.775,-13.35c-3.721,-3.791 -8.955,-3.983 -11.721,-0.396l-24.438,31.734c-2.562,3.358 -2.058,8.867 1.184,12.712l66.129,78.346l-37.288,53.775c-11.995,-15.625 -23.429,-25.696 -34.154,-30.05c-4.125,-1.658 -7.646,-2.25 -10.441,-2.271c-13.53,-22.933 -29.159,-37.016 -46.567,-41.941c-8.725,-2.471 -16.896,-2.292 -24.158,-0.763l-3.342,-28.892c-0.608,-5.216 -4.808,-9.662 -9.4,-9.92c-4.596,-0.259 -7.842,3.75 -7.238,8.962l4.13,35.642c-6.925,3.658 -11.959,7.858 -14.313,9.996c-3.525,0.841 -11.137,3.154 -19.137,7.983l-26.175,-23.629c-3.905,-3.529 -9.088,-3.275 -11.563,0.558c-2.475,3.829 -1.3,9.817 2.608,13.346l22.305,20.162c-4.463,4.851 -8.338,10.863 -10.767,18.376c-5.592,17.208 -2.563,38.058 8.95,62.029c-1.521,2.366 -2.983,5.575 -3.921,9.941c-2.287,10.905 -0.496,25.363 5.275,43.075l-60.858,0.988l-28.317,-98.538c-1.396,-4.833 -5.708,-8.346 -9.912,-8.054l-39.963,2.654c-4.492,0.288 -7.267,4.759 -6.187,9.959c1.075,5.2 5.612,9.191 10.104,8.904l32.512,-2.142l28.213,98.154c1.354,4.696 5.433,8.138 9.571,8.079l71.945,-1.17c3.3,7.8 7.196,16.116 11.721,24.895c-6.712,9.88 -13.587,34.821 12,92.83l-39.971,33.375c-2.987,2.508 -3.537,7.425 -1.266,11.67l25.787,48.296l-23.246,12.413c-3.866,2.067 -4.916,7.604 -2.35,12.408c2.567,4.808 7.755,7.017 11.621,4.954l30.229,-16.141c3.867,-2.067 4.913,-7.604 2.35,-12.413l-26.504,-49.629l31.954,-26.663c2.005,3.992 4.096,8.092 6.363,12.338l46.979,87.979c8.142,15.25 18.642,28.25 30.5,38.567l-10.425,21.183c-1.317,2.696 -1.142,6.267 0.517,9.367l43.366,81.217l-13.045,28.637c-1.95,4.271 -0.109,10.179 4.079,13.162c2.746,1.959 5.816,2.192 8.162,0.938c1.246,-0.667 2.304,-1.746 2.946,-3.246l15.004,-32.95c1.229,-2.687 0.984,-6.142 -0.621,-9.15l-43.237,-80.971l8.292,-16.891c28.295,17.875 61.312,21.837 88.475,7.333l83.054,-44.35c27.862,-14.879 43.021,-45.679 43.187,-80.188l22.475,3.017l43.288,81.063c1.604,3.008 4.358,5.162 7.254,5.608l35.729,5.858c1.613,0.259 3.092,0.025 4.338,-0.641c2.345,-1.25 3.862,-3.934 3.758,-7.305c-0.163,-5.17 -4.033,-9.958 -8.667,-10.712l-31.054,-5.088l-43.367,-81.22c-1.654,-3.096 -4.5,-5.246 -7.5,-5.634l-27.683,-3.704c-2.187,-14.725 -7.037,-29.746 -14.717,-44.129l-46.975,-87.975c-2.433,-4.558 -4.825,-8.858 -7.17,-12.946l44.304,-13.021l26.5,49.634c2.566,4.804 7.754,7.012 11.621,4.95l30.229,-16.142c3.866,-2.067 4.912,-7.604 2.35,-12.413c-2.567,-4.804 -7.596,-7.137 -11.463,-5.075Zm-372.621,-73.162c2.13,-0.696 3.284,-2.313 3.946,-4.738c0.696,-2.479 -0.154,-5.212 -1.512,-7.754c-11.292,-21.141 -14.829,-38.696 -10.517,-52.112c7.2,-22.408 34.121,-27.7 34.379,-27.758c1.346,-0.242 2.546,-0.88 3.492,-1.867c0.192,-0.179 19.342,-19.608 42.112,-13.163c13.596,3.855 26.213,16.559 37.517,37.734c1.358,2.541 3.158,4.766 5.604,5.571c2.384,0.8 4.354,0.704 6.134,-0.646c5.258,-1.613 23.85,5.95 52.7,57.275c-33.746,21.204 -48.78,64.608 -41.284,109.925c-33.458,-31.454 -77.916,-43.092 -114.308,-26.846c-26.571,-52.463 -22.554,-72.133 -18.263,-75.621Zm93.167,288.954l-46.979,-87.975c-4.317,-8.091 -8.042,-15.546 -11.258,-22.471c-0.017,-0.033 -0.05,-0.096 -0.067,-0.125c-30.325,-65.075 -15.588,-80.633 -14.146,-81.962c0.363,-0.154 0.679,-0.404 0.988,-0.608c0.191,-0.063 0.408,-0.138 0.583,-0.23c41.875,-22.362 98.533,1.805 126.308,53.821l89.884,168.325l-34.546,18.446c-36.692,19.592 -86.4,-1.592 -110.767,-47.221Zm193.85,2.859l-34.546,18.445l-89.883,-168.325c-27.792,-52.05 -16.313,-112.558 25.542,-134.904c0.225,-0.121 0.387,-0.287 0.57,-0.425c0.342,-0.142 0.675,-0.242 1,-0.417c2.092,-0.516 27.742,-4.891 72.713,79.334l46.979,87.975c24.392,45.616 14.338,98.712 -22.375,118.316Z" style="fill:#d64045;fill-rule:nonzero;"/><path d="M1365.91,0.963c-405,-0 -733.334,328.333 -733.334,733.333c0,187.75 70.584,359 186.625,488.708l0.959,-0.958l59,59l-0.875,0.875c129.583,115.458 300.416,185.667 487.625,185.667c404.999,-0 733.333,-328.334 733.333,-733.334c-0,-405 -328.334,-733.291 -733.334,-733.291Zm0.001,1306.17c-316.375,0 -572.834,-256.458 -572.834,-572.833c0,-316.375 256.459,-572.833 572.834,-572.833c316.375,-0 572.833,256.458 572.833,572.833c-0,316.375 -256.459,572.833 -572.834,572.833Z" style="fill:#ffb86f;fill-rule:nonzero;"/><path d="M827.6,1209.63l-198.433,198.433l63.976,63.976l198.524,-198.524c-22.546,-20.06 -43.961,-41.385 -64.067,-63.885Z" style="fill:#ffb86f;fill-rule:nonzero;"/><path d="M703.079,1472.92l-67.875,-67.875c-43.208,-43.209 -113.25,-43.209 -156.458,-0l-441.417,441.416c-43.208,43.209 -43.208,113.25 0,156.459l67.875,67.875c43.209,43.208 113.25,43.208 156.459,-0l441.416,-441.417c43.209,-43.208 43.209,-113.25 0,-156.458Z" style="fill:#5dd39e;fill-rule:nonzero;"/></g></svg>