<?xml version="1.0" encoding="UTF-8" standalone="no"?><!DOCTYPE svg PUBLIC "-//W3C//DTD SVG 1.1//EN" "http://www.w3.org/Graphics/SVG/1.1/DTD/svg11.dtd"><svg width="100%" height="100%" viewBox="0 0 2000 2000" version="1.1" xmlns="http://www.w3.org/2000/svg" xmlns:xlink="http://www.w3.org/1999/xlink" xml:space="preserve" xmlns:serif="http://www.serif.com/" style="fill-rule:evenodd;clip-rule:evenodd;stroke-linejoin:round;stroke-miterlimit:2;"><g><g><path d="M201.379,665.464c0,-18.801 7.673,-36.535 21.582,-49.909c13.908,-13.299 32.455,-20.636 52.12,-20.636l1119.76,0c19.665,0 38.211,7.337 52.197,20.636c13.909,13.3 21.586,31.03 21.586,49.909l-0,575.572c-0,18.801 -7.677,36.532 -21.586,49.909c-13.908,13.3 -32.455,20.636 -52.116,20.636l-1119.76,0c-19.661,0 -38.207,-7.336 -52.116,-20.636c-13.909,-13.3 -21.585,-31.03 -21.585,-49.909l-0,-575.572l-0.078,-0Z" style="fill:#fff;"/><path d="M1511.3,583.31c-10.782,-10.781 -25.403,-16.836 -40.652,-16.836l-1250.65,-0c-15.249,-0 -29.871,6.055 -40.652,16.836c-10.782,10.782 -16.837,25.403 -16.837,40.653l-0,701.534l1365.63,0l-0,-701.498c-0,-15.249 -6.056,-29.87 -16.837,-40.689Zm-52.874,688.502l-1226.21,-0l0,-123.544l-2.326,-527.592l2.326,0l0,-0.516l1226.21,-0l0,651.652Z" style="fill:#070707;"/><g><g><path d="M595.867,952.355c-0,-9.12 -7.422,-16.542 -16.542,-16.542l-293.943,0c-9.12,0 -16.541,7.422 -16.541,16.542l-0,132.442c-0,9.12 7.421,16.542 16.541,16.542l293.943,-0c9.12,-0 16.542,-7.422 16.542,-16.542l-0,-132.442Z" style="fill:#7dd0a2;"/><path d="M595.867,1128.62c-0,-3.914 -3.175,-7.053 -7.052,-7.053l-312.922,0c-3.914,0 -7.052,3.176 -7.052,7.053l-0,14.141c-0,3.914 3.175,7.052 7.052,7.052l312.922,0c3.913,0 7.052,-3.175 7.052,-7.052l-0,-14.141Z" style="fill:#c64c4b;"/><path d="M595.867,1173.01c-0,-3.914 -3.175,-7.052 -7.052,-7.052l-312.922,-0c-3.914,-0 -7.052,3.175 -7.052,7.052l-0,14.141c-0,3.914 3.175,7.053 7.052,7.053l312.922,-0c3.913,-0 7.052,-3.176 7.052,-7.053l-0,-14.141Z" style="fill:#c64c4b;"/></g><path d="M1421.83,683.704c-0,-12.185 -9.896,-22.043 -22.043,-22.043l-1108.9,-0c-12.185,-0 -22.043,9.895 -22.043,22.043l-0,176.491c-0,12.185 9.895,22.08 22.043,22.08l1108.9,0c12.184,0 22.043,-9.895 22.043,-22.08l-0,-176.491Z" style="fill:#387c89;"/><path d="M525.466,834.733c0,-4.578 -3.692,-8.271 -8.271,-8.271l-219.691,0c-4.578,0 -8.271,3.693 -8.271,8.271l0,16.542c0,4.578 3.693,8.27 8.271,8.27l219.691,0c4.579,0 8.271,-3.692 8.271,-8.27l0,-16.542Z" style="fill:#c64c4b;"/><g><path d="M1008.85,952.355c0,-9.12 -7.421,-16.542 -16.541,-16.542l-293.943,0c-9.12,0 -16.542,7.422 -16.542,16.542l0,132.442c0,9.12 7.422,16.542 16.542,16.542l293.943,-0c9.12,-0 16.541,-7.422 16.541,-16.542l0,-132.442Z" style="fill:#7dd0a2;"/><path d="M1008.85,1128.62c0,-3.914 -3.175,-7.053 -7.052,-7.053l-312.921,0c-3.914,0 -7.053,3.176 -7.053,7.053l0,14.141c0,3.914 3.176,7.052 7.053,7.052l312.921,0c3.914,0 7.052,-3.175 7.052,-7.052l0,-14.141Z" style="fill:#c64c4b;"/><path d="M1008.85,1173.01c0,-3.914 -3.175,-7.052 -7.052,-7.052l-312.921,-0c-3.914,-0 -7.053,3.175 -7.053,7.052l0,14.141c0,3.914 3.176,7.053 7.053,7.053l312.921,-0c3.914,-0 7.052,-3.176 7.052,-7.053l0,-14.141Z" style="fill:#c64c4b;"/></g><g><path d="M1421.83,952.355c-0,-9.12 -7.422,-16.542 -16.542,-16.542l-293.943,0c-9.12,0 -16.541,7.422 -16.541,16.542l-0,132.442c-0,9.12 7.421,16.542 16.541,16.542l293.943,-0c9.12,-0 16.542,-7.422 16.542,-16.542l-0,-132.442Z" style="fill:#7dd0a2;"/><path d="M1421.83,1128.62c-0,-3.914 -3.176,-7.053 -7.052,-7.053l-312.922,0c-3.914,0 -7.052,3.176 -7.052,7.053l-0,14.141c-0,3.914 3.175,7.052 7.052,7.052l312.922,0c3.913,0 7.052,-3.175 7.052,-7.052l-0,-14.141Z" style="fill:#c64c4b;"/><path d="M1421.83,1173.01c-0,-3.914 -3.176,-7.052 -7.052,-7.052l-312.922,-0c-3.914,-0 -7.052,3.175 -7.052,7.052l-0,14.141c-0,3.914 3.175,7.053 7.052,7.053l312.922,-0c3.913,-0 7.052,-3.176 7.052,-7.053l-0,-14.141Z" style="fill:#c64c4b;"/></g><path d="M1528.13,623.999c-0,-15.249 -6.056,-29.87 -16.837,-40.652c-10.782,-10.781 -25.403,-16.836 -40.652,-16.836l-1250.65,-0c-15.249,-0 -29.871,6.055 -40.652,16.836c-10.782,10.782 -16.837,25.403 -16.837,40.652l-0,701.498l1365.63,0l-0,-701.498Z" style="fill:none;fill-rule:nonzero;"/></g><g><path d="M162.577,1323.5l1365.96,-0l148.282,94.47c9.859,6.288 -8.123,13.145 -34.486,13.145l-1587.09,-0c-26.141,-0 -44.123,-6.742 -34.708,-13.012l142.043,-94.603Z" style="fill:#b9b9b9;fill-rule:nonzero;"/><path d="M1645.77,1425.92l-1594,0c-15.175,0 -27.544,-2.263 -33.526,-5.383c-2.326,5.461 14.252,10.575 36.997,10.575l1587.06,-0c22.782,-0 39.286,-5.125 36.997,-10.568c-6.018,3.12 -18.387,5.376 -33.526,5.376Z" style="fill:#a2a2a2;fill-rule:nonzero;"/><path d="M262.896,1337.5l-34.116,32.389c-4.69,4.449 8.344,8.828 26.289,8.828l1186.07,0c18.61,0 31.717,-4.685 25.847,-9.216l-41.908,-32.304c-2.917,-2.259 -11.151,-3.784 -20.418,-3.784l-1120.98,-0c-9.711,0.007 -18.24,1.68 -20.788,4.087Z" style="fill:#4c4c4c;fill-rule:nonzero;"/><path d="M1441.14,1374.48l-1186.07,0c-12.443,0 -22.523,-2.115 -25.957,-4.892l-0.332,0.303c-4.69,4.449 8.344,8.828 26.289,8.828l1186.07,0c18.462,0 31.533,-4.619 25.92,-9.124c-3.433,2.77 -13.44,4.885 -25.92,4.885Z" style="fill:#2a2a2a;fill-rule:nonzero;"/><path d="M991.016,1418.85l-290.953,-0c-9.895,-0 -17.058,-2.437 -14.326,-4.885l28.209,-25.37c1.846,-1.639 7.68,-2.776 14.326,-2.776l234.535,-0c6.646,-0 12.516,1.137 14.326,2.776l28.209,25.37c2.732,2.448 -4.431,4.885 -14.326,4.885Z" style="fill:#c6c6c6;fill-rule:nonzero;"/></g></g><g><path d="M876.108,1331.44c-0,27.076 10.752,52.981 29.863,72.144c19.108,19.108 45.068,29.859 72.14,29.859l780.373,0c27.071,0 52.977,-10.751 72.14,-29.859c19.111,-19.108 29.859,-45.068 29.859,-72.144l0,-419.543c0,-27.076 -10.748,-52.977 -29.859,-72.144c-19.108,-19.108 -45.069,-29.86 -72.14,-29.86l-780.373,0c-27.072,0 -52.977,10.752 -72.14,29.86c-19.111,19.108 -29.863,45.068 -29.863,72.144l-0,419.543Z"/><path d="M926.692,911.895c0,-13.706 5.35,-26.629 15.043,-36.377c9.692,-9.696 22.619,-15.042 36.321,-15.042l780.369,-0c13.705,-0 26.628,5.346 36.38,15.042c9.692,9.692 15.042,22.615 15.042,36.377l0,419.543c0,13.706 -5.35,26.629 -15.042,36.377c-9.693,9.696 -22.619,15.042 -36.321,15.042l-780.373,0c-13.702,0 -26.629,-5.346 -36.321,-15.042c-9.692,-9.693 -15.042,-22.616 -15.042,-36.377l-0,-419.543l-0.056,-0Z" style="fill:#fff;"/><g><path d="M1018.54,1079.24c-5.517,-0 -10.523,-2.282 -14.419,-6.572c-3.947,-4.291 -5.97,-9.807 -5.97,-15.933l-0,-144.9c-0,-6.074 2.075,-11.586 5.97,-15.932c3.896,-4.29 8.902,-6.576 14.467,-6.576l708.661,0c5.512,0 10.523,2.286 14.466,6.576c3.895,4.29 5.97,9.803 5.97,15.877l0,144.9c0,6.07 -2.075,11.586 -5.97,15.932c-3.895,4.287 -8.902,6.573 -14.466,6.573l-708.709,-0l-0,0.055Z" style="fill:#387c89;"/><g><path d="M1335.64,1143.39c0,-9.5 -7.739,-17.154 -17.151,-17.154l-305.057,-0c-9.5,-0 -17.154,7.742 -17.154,17.154l0,137.486c0,9.5 7.739,17.154 17.154,17.154l305.057,0c9.501,0 17.151,-7.739 17.151,-17.154l0,-137.486Z" style="fill:#7dd0a2;"/></g><g><path d="M1736.28,1143.39c-0,-9.5 -7.74,-17.154 -17.151,-17.154l-305.061,-0c-9.5,-0 -17.15,7.742 -17.15,17.154l-0,137.486c-0,9.5 7.739,17.154 17.15,17.154l305.061,0c9.5,0 17.151,-7.739 17.151,-17.154l-0,-137.486Z" style="fill:#7dd0a2;"/></g><path d="M1206.49,1018.46l-170.303,0c-8.802,0 -15.876,7.13 -15.876,15.877l-0,10.641c-0,8.803 7.129,15.877 15.876,15.877l170.303,0c8.803,0 15.877,-7.13 15.877,-15.877l0,-10.641c0,-8.802 -7.129,-15.877 -15.877,-15.877Z" style="fill:#c64c4b;"/></g><path d="M1337.84,1324.59c0,-3.914 -3.297,-7.052 -7.325,-7.052l-325.04,-0c-4.065,-0 -7.325,3.175 -7.325,7.052l-0,14.142c-0,3.913 3.297,7.052 7.325,7.052l325.04,-0c4.065,-0 7.325,-3.176 7.325,-7.052l0,-14.142Z" style="fill:#c64c4b;"/><path d="M1727.64,1324.59c0,-3.914 -3.212,-7.052 -7.133,-7.052l-316.452,-0c-3.958,-0 -7.133,3.175 -7.133,7.052l-0,14.142c-0,3.913 3.212,7.052 7.133,7.052l316.452,-0c3.958,-0 7.133,-3.176 7.133,-7.052l0,-14.142Z" style="fill:#c64c4b;"/></g><g><path d="M1933.57,1433.53c12.852,0 25.155,-5.11 34.253,-14.182c9.094,-9.094 14.182,-21.397 14.182,-34.253l-0,-370.599c-0,-12.853 -5.114,-25.159 -14.182,-34.253c-9.098,-9.098 -21.401,-14.182 -34.253,-14.182l-166.633,-0c-12.853,-0 -25.16,5.11 -34.254,14.182c-9.094,9.094 -14.182,21.4 -14.182,34.253l0,370.599c0,12.856 5.11,25.159 14.182,34.253c9.094,9.098 21.401,14.182 34.254,14.182l166.633,0Z" style="fill:#070707;"/><path d="M1918.78,1412.53c11.7,0 26.008,-1.576 34.279,-10.12c8.293,-8.548 9.869,-23.332 9.869,-35.409l0,-330.106c0,-12.077 -1.728,-26.684 -9.995,-35.206c-8.296,-8.544 -22.453,-10.323 -34.153,-10.323l-137.091,-0c-11.727,-0 -25.459,2.533 -33.726,11.077c-8.296,8.544 -10.423,22.375 -10.423,34.452l-0,330.106c-0,12.077 2.153,26.861 10.423,35.409c8.293,8.544 22.025,10.12 33.726,10.12l137.091,0Z" style="fill:#fff;"/><g><g><g><g><clipPath id="_clip1"><path d="M1918.78,1404.06c11.7,0 22.951,-4.659 31.222,-12.926c8.293,-8.297 12.926,-19.522 12.926,-31.222l0,-320.236c0,-11.701 -4.659,-22.952 -12.926,-31.222c-8.297,-8.293 -19.522,-12.927 -31.222,-12.927l-137.091,-0c-11.727,-0 -22.952,4.66 -31.244,12.927c-8.297,8.296 -12.931,19.521 -12.931,31.222l0,320.236c0,11.7 4.66,22.951 12.931,31.222c8.292,8.292 19.517,12.926 31.244,12.926l137.091,0Z"/></clipPath><g clip-path="url(#_clip1)"><path d="M1939.08,1169.02c0,-4.785 -3.962,-8.67 -8.821,-8.67l-156.508,0c-4.863,0 -8.821,3.885 -8.821,8.67l-0,69.433c-0,4.786 3.958,8.67 8.821,8.67l156.508,-0c4.859,-0 8.821,-3.884 8.821,-8.67l0,-69.433Z" style="fill:#7dd0a2;"/><path d="M1938.7,1313.65c-0,-4.786 -3.959,-8.67 -8.821,-8.67l-156.509,0c-4.859,0 -8.821,3.884 -8.821,8.67l0,69.433c0,4.785 3.962,8.67 8.821,8.67l156.509,-0c4.862,-0 8.821,-3.885 8.821,-8.67l-0,-69.433Z" style="fill:#387c89;"/><path d="M1941.1,1132.31c0,-2.056 -1.676,-3.711 -3.759,-3.711l-168.608,0c-2.082,0 -3.759,1.655 -3.759,3.711l0,7.418c0,2.053 1.677,3.707 3.759,3.707l168.608,0c2.083,0 3.759,-1.654 3.759,-3.707l0,-7.418Z" style="fill:#c64c4b;"/><path d="M1939.08,1261.43c0,-2.052 -1.68,-3.707 -3.759,-3.707l-166.607,0c-2.078,0 -3.758,1.655 -3.758,3.707l-0,7.418c-0,2.053 1.68,3.707 3.758,3.707l166.607,0c2.079,0 3.759,-1.654 3.759,-3.707l0,-7.418Z" style="fill:#c64c4b;"/><path d="M1939.08,1284.71c0,-2.056 -1.68,-3.71 -3.759,-3.71l-166.607,-0c-2.078,-0 -3.758,1.654 -3.758,3.71l-0,7.418c-0,2.053 1.68,3.707 3.758,3.707l166.607,0c2.079,0 3.759,-1.654 3.759,-3.707l0,-7.418Z" style="fill:#c64c4b;"/><path d="M1939.48,1019.83c-0,-5.516 -4.534,-9.973 -10.121,-9.973l-154.681,0c-5.586,0 -10.124,4.457 -10.124,9.973l0,79.757c0,5.513 4.538,9.973 10.124,9.973l154.681,0c5.587,0 10.121,-4.46 10.121,-9.973l-0,-79.757Z" style="fill:#387c89;"/></g></g></g></g></g></g></g></svg>