<?xml version="1.0" encoding="UTF-8" standalone="no"?><!DOCTYPE svg PUBLIC "-//W3C//DTD SVG 1.1//EN" "http://www.w3.org/Graphics/SVG/1.1/DTD/svg11.dtd"><svg width="100%" height="100%" viewBox="0 0 650 612" version="1.1" xmlns="http://www.w3.org/2000/svg" xmlns:xlink="http://www.w3.org/1999/xlink" xml:space="preserve" xmlns:serif="http://www.serif.com/" style="fill-rule:evenodd;clip-rule:evenodd;stroke-linejoin:round;stroke-miterlimit:2;"><g id="Layer-1" serif:id="Layer 1"><path d="M261.371,232.13l7.124,-2.457c1.282,-0.442 2.476,-1.109 3.525,-1.969l2.933,-2.403c2.101,-1.721 4.745,-2.64 7.461,-2.592l9.646,0.171c1.729,0.03 3.148,1.376 3.27,3.1c0.111,1.572 -0.894,3.007 -2.408,3.442l-7.422,2.13c0,0 24.007,-1.135 25.497,0.281c1.49,1.416 -1.468,23.009 -2.808,24.741c-1.34,1.732 -28.936,-0.094 -28.936,-0.094l-20.253,-2.457l2.371,-21.893Z" style="fill:#ffc3bd;fill-rule:nonzero;"/><path d="M262.67,231.68l-0.079,23.54l-80.11,2.61c-5.321,0.17 -10.47,-1.92 -14.161,-5.75l-11.539,-16.365l19.669,-26.195c7.42,11.28 12.561,19.93 12.561,19.93l73.659,2.23Z" style="fill:#ffc3bd;fill-rule:nonzero;"/><path d="M178.801,206.235l-23.87,31.945l-35.91,-37.26l15.87,-41.16c11.809,6.71 31.98,28.345 43.91,46.475" style="fill:#35a7ff;fill-rule:nonzero;"/><path d="M165.239,597.945l-6.285,-29.754l-27.392,1.112l8.382,38.479l25.295,-9.837Z" style="fill:#ffc3bd;fill-rule:nonzero;"/><path d="M162.435,584.668l-3.48,-16.477l-27.392,1.113l4.278,19.643l26.594,-4.279Z" style="fill:#ff847f;fill-rule:nonzero;"/><path d="M139.449,614.09l56.908,-0c2.571,-0 4.655,-2.084 4.655,-4.655c0,-1.952 -1.216,-3.697 -3.048,-4.37l-29.936,-11.008c0,-0 -11.239,4.346 -15.2,4.529c-3.057,0.141 -10.34,-1.643 -14.207,-2.662c-1.224,-0.321 -2.394,0.666 -2.281,1.926l1.293,14.577c0.083,0.941 0.872,1.663 1.816,1.663" style="fill:#0e1738;fill-rule:nonzero;"/><path d="M164.716,597.447c-0.273,-2.069 -0.757,-10.037 0.523,-9.803c1.281,0.236 5.751,2.118 6.456,4.471c0.707,2.353 -0.469,6.352 -0.469,6.352l-6.51,-1.02Z" style="fill:#0e1738;fill-rule:nonzero;"/><path d="M172.911,601.84c-0.276,-0 -0.539,-0.164 -0.652,-0.436c-0.149,-0.36 0.022,-0.773 0.382,-0.922c2.928,-1.211 3.15,-3.279 3.157,-3.366c0.036,-0.384 0.366,-0.669 0.76,-0.642c0.386,0.031 0.675,0.363 0.648,0.749c-0.008,0.121 -0.253,3.002 -4.024,4.563c-0.088,0.036 -0.18,0.054 -0.271,0.054" style="fill:#fff;fill-rule:nonzero;"/><path d="M195.418,611.015l-56.464,-0c-0.26,-0 -0.471,-0.21 -0.471,-0.47c-0,-0.26 0.211,-0.47 0.471,-0.47l56.464,-0c0.26,-0 0.471,0.21 0.471,0.47c-0,0.26 -0.211,0.47 -0.471,0.47" style="fill:#fff;fill-rule:nonzero;"/><path d="M178.009,603.546c-0.267,-0 -0.521,-0.153 -0.64,-0.412c-0.163,-0.354 -0.008,-0.773 0.344,-0.936c0.024,-0.009 2.286,-1.086 2.623,-3.457c0.055,-0.386 0.409,-0.664 0.798,-0.599c0.386,0.054 0.654,0.412 0.6,0.798c-0.449,3.149 -3.311,4.487 -3.433,4.543c-0.095,0.042 -0.194,0.063 -0.292,0.063" style="fill:#fff;fill-rule:nonzero;"/><path d="M94.038,322.477l55.936,-0l16.313,256.577l-37.214,5.008l-35.035,-261.585Z" style="fill:#ffb86f;fill-rule:nonzero;"/><path d="M111.111,359.421l-7.275,36.215l25.237,188.426l-17.962,-224.641Z" style="fill:#f7a357;fill-rule:nonzero;"/><path d="M29.268,597.945l6.285,-29.754l27.392,1.112l-8.382,38.479l-25.295,-9.837Z" style="fill:#ffc3bd;fill-rule:nonzero;"/><path d="M32.072,584.668l3.48,-16.477l27.392,1.113l-4.279,19.643l-26.593,-4.279Z" style="fill:#ff847f;fill-rule:nonzero;"/><path d="M30.232,614.09l56.908,-0c2.571,-0 4.655,-2.084 4.655,-4.655c0,-1.952 -1.216,-3.697 -3.048,-4.37l-29.936,-11.008c0,-0 -11.239,4.346 -15.2,4.529c-3.057,0.141 -10.34,-1.643 -14.207,-2.662c-1.223,-0.321 -2.394,0.666 -2.281,1.926l1.293,14.577c0.084,0.941 0.872,1.663 1.816,1.663" style="fill:#0e1738;fill-rule:nonzero;"/><path d="M55.5,597.447c-0.274,-2.069 -0.758,-10.037 0.522,-9.803c1.281,0.236 5.751,2.118 6.457,4.471c0.706,2.353 -0.47,6.352 -0.47,6.352l-6.509,-1.02Z" style="fill:#0e1738;fill-rule:nonzero;"/><path d="M63.694,601.84c-0.276,-0 -0.539,-0.164 -0.652,-0.436c-0.149,-0.36 0.022,-0.773 0.382,-0.922c2.928,-1.211 3.15,-3.279 3.157,-3.366c0.036,-0.384 0.366,-0.669 0.76,-0.642c0.386,0.031 0.675,0.363 0.648,0.749c-0.008,0.121 -0.253,3.002 -4.024,4.563c-0.088,0.036 -0.18,0.054 -0.271,0.054" style="fill:#fff;fill-rule:nonzero;"/><path d="M86.201,611.015l-56.464,-0c-0.26,-0 -0.47,-0.21 -0.47,-0.47c0,-0.26 0.21,-0.47 0.47,-0.47l56.464,-0c0.26,-0 0.471,0.21 0.471,0.47c0,0.26 -0.211,0.47 -0.471,0.47" style="fill:#fff;fill-rule:nonzero;"/><path d="M68.792,603.546c-0.267,-0 -0.521,-0.153 -0.64,-0.412c-0.163,-0.354 -0.008,-0.773 0.344,-0.936c0.024,-0.009 2.286,-1.086 2.623,-3.457c0.055,-0.386 0.409,-0.664 0.798,-0.599c0.386,0.054 0.654,0.412 0.6,0.798c-0.449,3.149 -3.311,4.487 -3.433,4.543c-0.095,0.042 -0.194,0.063 -0.292,0.063" style="fill:#fff;fill-rule:nonzero;"/><path d="M52.39,322.477l-22.612,256.577l36.207,5.008l52.043,-259.067l-65.638,-2.518Z" style="fill:#ffb86f;fill-rule:nonzero;"/><path d="M52.39,322.477c3.648,16.112 79.438,27.22 98.604,16.04l-1.02,-14.824l-97.584,-1.216Z" style="fill:#f7a357;fill-rule:nonzero;"/><path d="M136.064,179.157l7.55,47.117l11.074,11.703c0,-0 -2.615,-49.063 -18.624,-58.82" style="fill:#259def;fill-rule:nonzero;"/><path d="M80.536,157.131l35.906,-0l18.444,2.629c0,-0 23.296,43.662 15.088,163.933c-13.292,9.804 -79.588,10.512 -97.584,-1.216c0,-0 -1.636,-154.467 2.467,-158.29c4.104,-3.824 25.679,-7.056 25.679,-7.056" style="fill:#35a7ff;fill-rule:nonzero;"/><path d="M136.731,71.964c-22.371,-14.661 -52.918,-9.105 -56.195,2.4c-17.927,0 -10.86,24.975 -3.771,39.665l47.468,0c18.139,-14.279 12.498,-42.065 12.498,-42.065" style="fill:#0e1738;fill-rule:nonzero;"/><path d="M105.323,78.718c-13.641,-0 -24.698,11.058 -24.698,24.699l0,3.163c-2.619,-1.885 -5.604,-1.518 -7.43,0.02c-4.605,3.884 0.791,17.624 7.43,15.973l0,37.905l35.906,-0l0,-18.862c8.001,-4.087 13.491,-12.389 13.491,-21.99l0,-16.209c0,-13.641 -11.058,-24.699 -24.699,-24.699" style="fill:#ffc3bd;fill-rule:nonzero;"/><path d="M85.24,131.19c0,-0 6.945,20.908 31.291,15.596l0,-5.171c-4.969,1.88 -18.842,3.781 -31.291,-10.426" style="fill:#ff847f;fill-rule:nonzero;"/><path d="M80.536,106.509l2.347,7.91c0.257,0.975 1.327,1.488 2.249,1.079l0.13,-0.058c0.48,-0.213 0.821,-0.647 0.938,-1.16c2.142,-9.39 8.778,-12.564 8.035,-21.759c0,-0 27.104,6.563 38.103,-5.786c10.999,-12.35 -33.575,-16.788 -43.416,-12.735c-9.841,4.051 -8.386,32.509 -8.386,32.509" style="fill:#0e1738;fill-rule:nonzero;"/><path d="M105.382,109.109c-0,1.04 -0.843,1.882 -1.883,1.882c-1.039,-0 -1.882,-0.842 -1.882,-1.882c-0,-1.04 0.843,-1.882 1.882,-1.882c1.04,-0 1.883,0.842 1.883,1.882" style="fill:#0e1738;fill-rule:nonzero;"/><path d="M122.739,109.109c0,1.04 -0.843,1.882 -1.883,1.882c-1.039,-0 -1.882,-0.842 -1.882,-1.882c0,-1.04 0.843,-1.882 1.882,-1.882c1.04,-0 1.883,0.842 1.883,1.882" style="fill:#0e1738;fill-rule:nonzero;"/><path d="M114.489,109.784c1.693,1.796 2.995,3.868 3.945,6.165c0.232,0.58 0.418,1.182 0.555,1.828c0.066,0.325 0.096,0.669 0.085,1.042c-0.009,0.19 -0.031,0.384 -0.099,0.607c-0.093,0.271 -0.225,0.442 -0.357,0.587c-1.045,1.004 -2.202,1.35 -3.405,1.684c0.896,-0.809 1.922,-1.614 2.501,-2.403c0.171,-0.177 0.081,-0.703 -0.05,-1.227c-0.124,-0.529 -0.336,-1.068 -0.536,-1.609c-0.839,-2.177 -1.87,-4.337 -2.639,-6.674" style="fill:#ff847f;fill-rule:nonzero;"/><path d="M97.689,106.092c0.782,-2.09 2.514,-3.844 4.785,-4.604c1.134,-0.352 2.374,-0.43 3.513,-0.146c1.139,0.267 2.167,0.835 2.95,1.646c-2.242,-0.259 -4.105,-0.316 -5.888,0.291c-1.8,0.547 -3.432,1.671 -5.36,2.813" style="fill:#0e1738;fill-rule:nonzero;"/><path d="M127.963,106.092c-1.929,-1.142 -3.561,-2.266 -5.361,-2.813c-1.782,-0.607 -3.646,-0.55 -5.887,-0.291c0.783,-0.811 1.811,-1.379 2.95,-1.646c1.139,-0.284 2.378,-0.206 3.512,0.146c2.271,0.76 4.004,2.514 4.786,4.604" style="fill:#0e1738;fill-rule:nonzero;"/><path d="M116.609,127.426c-0.735,0.906 -1.842,1.468 -2.972,1.761c-1.141,0.31 -2.346,0.32 -3.521,0.118c-1.165,-0.236 -2.326,-0.7 -3.254,-1.516c-0.929,-0.785 -1.595,-1.97 -1.539,-3.141c0.708,0.919 1.509,1.499 2.373,1.932c0.871,0.415 1.799,0.708 2.767,0.877c0.961,0.199 1.961,0.27 2.976,0.281c1.02,-0.008 2.04,-0.085 3.17,-0.312" style="fill:#ff847f;fill-rule:nonzero;"/><path d="M80.461,118.093c-0.705,-0.336 -1.359,-0.763 -1.94,-1.379c-0.27,-0.32 -0.519,-0.728 -0.571,-1.243c-0.058,-0.518 0.163,-1.039 0.446,-1.409c0.169,-0.204 0.274,-0.344 0.344,-0.444c0.076,-0.127 0.164,-0.245 0.218,-0.392c0.131,-0.276 0.199,-0.597 0.24,-0.919c0.086,-0.644 0.043,-1.351 -0.157,-1.944c-0.08,-0.29 -0.238,-0.575 -0.328,-0.643c-0.099,-0.097 -0.48,-0.228 -0.774,-0.302c-0.639,-0.177 -1.32,-0.178 -1.909,-0.005c-1.246,0.302 -1.814,1.86 -1.993,3.379c-0.169,-0.757 -0.235,-1.555 -0.059,-2.385c0.186,-0.815 0.781,-1.643 1.635,-2.013c0.834,-0.408 1.751,-0.424 2.603,-0.283c0.442,0.098 0.827,0.163 1.346,0.522c0.505,0.423 0.669,0.873 0.823,1.301c0.253,0.869 0.289,1.732 0.128,2.596c-0.094,0.428 -0.226,0.855 -0.456,1.256c-0.103,0.203 -0.248,0.395 -0.399,0.573c-0.182,0.186 -0.332,0.331 -0.423,0.408c-0.979,0.739 0.188,2.284 1.226,3.326" style="fill:#ff847f;fill-rule:nonzero;"/><path d="M75.891,157.91l4.734,-8.389c-0,-0 15.056,11.45 24.303,10.822c9.247,-0.627 11.537,-8.313 11.537,-8.313l3.52,5.606c-0,-0 0.567,9.047 -2.883,11.086c-0,-0 -8.403,-6.497 -12.174,-5.399c-3.77,1.098 -10.201,7.92 -10.201,7.92l-18.836,-13.333Z" style="fill:#3a6bca;fill-rule:nonzero;"/><path d="M151.788,264.017l-1.051,39.565l-0.063,2.367c-16.122,-4.723 -60.293,-17.15 -79.429,-22.542c-5.603,-1.571 -9.944,-5.996 -11.42,-11.621l-7.694,-28.103l0.106,-10.497l0.478,-46.57c0,0 9.467,-21.173 23.178,-5.71c13.702,15.463 27.934,69.696 27.934,69.696l47.961,13.415Z" style="fill:#259def;fill-rule:nonzero;"/><rect x="435.514" y="331.062" width="70.294" height="280.938" style="fill:#1fff8f;"/><rect x="435.514" y="331.062" width="35.25" height="280.938" style="fill:#1bef7f;"/><path d="M550.701,122.184l-194.984,0l-0,208.876l285.034,-0l0,-118.826c0,-49.732 -40.318,-90.05 -90.05,-90.05" style="fill:#2adb83;fill-rule:nonzero;"/><path d="M380.882,196.752l258.514,-0c-4.586,-26.468 -20.718,-48.964 -43.03,-62.124l-215.484,0l0,62.124Z" style="fill:#1fff8f;fill-rule:nonzero;"/><path d="M445.767,331.06l-180.103,0l-0,-117.938c-0,-50.223 40.718,-90.938 90.94,-90.938l2.544,0c47.838,0 86.619,38.781 86.619,86.62l-0,122.256Z" style="fill:#40e294;fill-rule:nonzero;"/><path d="M274.206,322.52l-0,-110.284c-0,-44.945 36.565,-81.511 81.51,-81.511c44.945,0 81.511,36.566 81.511,81.511l-0,110.284l-163.021,-0Z" style="fill:#18b265;fill-rule:nonzero;"/><path d="M445.767,331.06l-180.103,0l-0,120.898c-0,48.591 39.393,87.981 87.981,87.981l5.099,-0c48.061,-0 87.023,-38.962 87.023,-87.022l-0,-121.857Z" style="fill:#2adb83;fill-rule:nonzero;"/><path d="M274.206,339.601l-0,108.899c-0,41.94 31.166,78.139 72.884,82.451c48.794,5.04 90.137,-33.275 90.137,-81.064l-0,-110.286l-163.021,-0Z" style="fill:#1fff8f;fill-rule:nonzero;"/><path d="M486.717,228.858l0,-137.579l-11.813,-0l-0,137.579c-3.915,2.106 -6.58,6.242 -6.58,11.001c-0,6.896 5.589,12.485 12.485,12.485c6.896,0 12.485,-5.589 12.485,-12.485c0,-4.759 -2.662,-8.895 -6.577,-11.001" style="fill:#3a4d57;fill-rule:nonzero;"/><path d="M486.302,239.857c0,3.034 -2.459,5.493 -5.493,5.493c-3.034,0 -5.493,-2.459 -5.493,-5.493c0,-3.033 2.459,-5.492 5.493,-5.492c3.034,-0 5.493,2.459 5.493,5.492" style="fill:#3a4d57;fill-rule:nonzero;"/><path d="M517.534,104.582l-42.633,-0l0,-26.586l42.633,-0c2.915,-0 5.271,2.362 5.271,5.274l0,16.038c0,2.911 -2.356,5.274 -5.271,5.274" style="fill:#3a4d57;fill-rule:nonzero;"/><path d="M9.654,295.878l238.023,-146.959l96.879,156.91l-238.023,146.96l-96.879,-156.911Z" style="fill:#e8e9fd;"/><path d="M9.654,295.878l155.085,14.343c11.678,1.08 22.014,-5.302 26.281,-16.226l56.656,-145.077l-238.022,146.96Z" style="fill:#c4c9f7;fill-rule:nonzero;"/><path d="M9.654,295.878l148.962,4.426c11.217,0.334 21.553,-6.048 26.281,-16.225l62.779,-135.161l-238.022,146.96Z" style="fill:#e8e9fd;fill-rule:nonzero;"/><path d="M173.814,279.544c4.692,-3.13 25.184,-1.531 26.468,1.822c1.285,3.354 -4.01,6.059 -7.655,5.589c-3.648,-0.471 -18.813,-7.411 -18.813,-7.411" style="fill:#ffc3bd;fill-rule:nonzero;"/><path d="M168.561,276.47l-7.431,26.021l-82.841,-21.811c-6.04,-1.79 -10.79,-6.47 -12.648,-12.49l-9.091,-29.38l38.091,-8.76c4.409,13.99 7.219,24.55 7.219,24.55l66.701,21.87Z" style="fill:#ffc3bd;fill-rule:nonzero;"/><path d="M96.557,230.05l-40.006,8.76l-2.366,0.748l-13.694,-52.708c-0,-0 -2.23,-19.69 18.04,-24.46c11.69,-2.76 37.936,67.4 38.026,67.66" style="fill:#35a7ff;fill-rule:nonzero;"/><path d="M201.956,310.024c-3.089,1.168 -32.54,-2.324 -40.829,-7.535l7.43,-26.023c9.508,2.186 38.259,11.558 44.213,18.35c6.75,7.684 -7.524,13.956 -10.814,15.208" style="fill:#ffc3bd;fill-rule:nonzero;"/></g></svg>