<?xml version="1.0" encoding="UTF-8" standalone="no"?><!DOCTYPE svg PUBLIC "-//W3C//DTD SVG 1.1//EN" "http://www.w3.org/Graphics/SVG/1.1/DTD/svg11.dtd"><svg width="100%" height="100%" viewBox="0 0 25000 25000" version="1.1" xmlns="http://www.w3.org/2000/svg" xmlns:xlink="http://www.w3.org/1999/xlink" xml:space="preserve" xmlns:serif="http://www.serif.com/" style="fill-rule:evenodd;clip-rule:evenodd;stroke-linejoin:round;stroke-miterlimit:2;"><path d="M15346.9,11648.2c12.842,10.033 22.975,21.238 30.413,33.608c7.433,12.371 12.658,24.513 15.683,36.421c3.025,11.904 6.029,26.383 9.013,43.433c3.308,19.684 6.783,34.83 10.429,45.434c3.641,10.604 9.912,19.379 18.8,26.329c14.321,11.192 31.858,15.85 52.616,13.971c20.755,-1.875 44.063,-8.417 69.925,-19.625l26.501,57.696c-35.934,16.462 -69.838,26.258 -101.713,29.387c-31.879,3.129 -62.383,-6.692 -91.521,-29.462c-11.854,-9.263 -21.237,-19.775 -28.15,-31.542c-6.912,-11.767 -11.912,-23.433 -15.008,-34.996c-3.092,-11.567 -6.129,-25.871 -9.113,-42.917c-4.158,-21.145 -8.195,-37.229 -12.116,-48.245c-3.917,-11.017 -10.567,-20.192 -19.95,-27.525c-15.063,-11.771 -32.579,-16.709 -52.554,-14.817c-19.971,1.892 -43.205,8.592 -69.7,20.1l-27.367,-56.583c23.221,-10.888 45.042,-19.088 65.462,-24.609c20.421,-5.516 41.796,-6.912 64.121,-4.179c22.325,2.729 43.734,12.104 64.229,28.121Z" style="fill:#ededed;fill-rule:nonzero;"/><path d="M16301.8,1068.08c15.825,20.234 27.071,41.225 33.733,62.979c6.667,21.75 10.046,42.309 10.142,61.675c0.096,19.367 -0.817,42.655 -2.733,69.867c-2.429,31.375 -2.871,55.863 -1.329,73.471c1.541,17.608 7.787,33.412 18.745,47.421c17.65,22.566 42.704,36.362 75.167,41.387c32.467,5.025 70.608,3.884 114.433,-3.425l18.592,98.338c-61.229,11.517 -116.821,13.604 -166.771,6.267c-49.95,-7.342 -92.879,-33.967 -128.787,-79.88c-14.609,-18.675 -24.963,-38.329 -31.063,-58.958c-6.096,-20.625 -9.312,-40.371 -9.646,-59.238c-0.333,-18.866 0.463,-41.908 2.379,-69.12c1.688,-33.925 1.625,-60.063 -0.175,-78.404c-1.804,-18.342 -8.491,-34.909 -20.054,-49.692c-18.562,-23.738 -43.479,-37.954 -74.75,-42.659c-31.271,-4.704 -69.358,-3.287 -114.266,4.242l-20.342,-96.971c39.662,-7.816 76.162,-12.062 109.5,-12.737c33.333,-0.675 66.558,5.321 99.671,17.991c33.112,12.671 62.296,35.151 87.554,67.446Z" style="fill:#ededed;fill-rule:nonzero;"/><path d="M10169,19737.2c9.4,-2.787 18.529,-3.108 27.392,-0.962c8.862,2.149 16.612,6.354 23.25,12.608c6.637,6.254 11.287,13.879 13.958,22.867c2.667,8.987 2.942,17.966 0.825,26.933c-2.121,8.962 -6.292,16.817 -12.517,23.554c-6.225,6.738 -14.037,11.5 -23.433,14.292c-9.196,2.729 -18.187,2.954 -26.979,0.671c-8.792,-2.28 -16.521,-6.6 -23.188,-12.959c-6.666,-6.358 -11.333,-14.029 -14,-23.021c-2.671,-8.987 -2.929,-17.912 -0.779,-26.779c2.146,-8.862 6.3,-16.596 12.45,-23.2c6.154,-6.608 13.829,-11.275 23.021,-14.004Zm62.858,211.758c9.396,-2.787 18.525,-3.108 27.388,-0.958c8.866,2.146 16.6,6.3 23.204,12.45c6.608,6.154 11.246,13.725 13.912,22.717c2.367,7.966 3.75,16.004 4.155,24.108c0.404,8.104 -0.246,17.525 -1.95,28.254l-15.809,128.738l-46.579,13.829l-6.692,-130.396c-7.608,-2.413 -14.275,-6.713 -20.004,-12.904c-5.729,-6.192 -9.833,-13.475 -12.321,-21.85c-2.666,-8.992 -2.929,-17.917 -0.779,-26.779c2.15,-8.863 6.3,-16.6 12.454,-23.205c6.15,-6.604 13.825,-11.275 23.021,-14.004Z" style="fill:#ededed;fill-rule:nonzero;"/><path d="M9196.95,6167.33c17.487,2.388 32.708,8.625 45.662,18.721c12.954,10.092 22.558,22.733 28.813,37.917c6.258,15.183 8.245,31.137 5.962,47.866c-2.283,16.734 -8.483,31.667 -18.604,44.813c-10.117,13.142 -22.783,22.937 -37.992,29.383c-15.208,6.446 -31.558,8.475 -49.05,6.088c-17.108,-2.334 -32.033,-8.629 -44.771,-18.888c-12.737,-10.254 -22.22,-23.071 -28.45,-38.446c-6.229,-15.375 -8.204,-31.425 -5.92,-48.154c2.283,-16.729 8.47,-31.571 18.562,-44.525c10.096,-12.954 22.638,-22.571 37.629,-28.85c14.996,-6.283 31.046,-8.258 48.159,-5.925Zm-53.759,394.105c17.488,2.383 32.713,8.625 45.663,18.716c12.954,10.096 22.571,22.638 28.854,37.629c6.283,14.996 8.283,30.859 6,47.588c-2.025,14.829 -5.704,29.041 -11.046,42.646c-5.342,13.6 -13.387,28.575 -24.137,44.925l-121.334,199.562l-86.691,-11.825l85.637,-218.954c-10.7,-9.596 -18.454,-21.592 -23.267,-36c-4.812,-14.404 -6.154,-29.4 -4.029,-44.992c2.284,-16.729 8.471,-31.57 18.563,-44.525c10.096,-12.95 22.637,-22.57 37.633,-28.85c14.992,-6.283 31.042,-8.258 48.154,-5.92Z" style="fill:#ededed;fill-rule:nonzero;"/><path d="M541.367,24104.4c9.029,-2.146 17.679,-1.971 25.946,0.529c8.266,2.496 15.37,6.875 21.316,13.133c5.946,6.263 9.942,13.713 11.992,22.35c2.054,8.638 1.842,17.138 -0.629,25.504c-2.475,8.363 -6.829,15.567 -13.067,21.609c-6.242,6.046 -13.875,10.137 -22.904,12.283c-8.833,2.096 -17.346,1.838 -25.538,-0.779c-8.191,-2.617 -15.27,-7.108 -21.241,-13.467c-5.967,-6.358 -9.979,-13.858 -12.029,-22.496c-2.05,-8.637 -1.83,-17.091 0.67,-25.358c2.496,-8.263 6.825,-15.358 12.988,-21.279c6.162,-5.921 13.662,-9.934 22.496,-12.029Zm48.312,203.479c9.029,-2.142 17.679,-1.967 25.946,0.529c8.267,2.496 15.358,6.825 21.279,12.988c5.925,6.166 9.913,13.566 11.963,22.204c1.816,7.654 2.704,15.325 2.662,23.008c-0.041,7.683 -1.15,16.554 -3.325,26.608l-21.696,120.871l-44.758,10.629l0.513,-123.62c-7.067,-2.675 -13.146,-7.092 -18.234,-13.246c-5.091,-6.155 -8.591,-13.254 -10.504,-21.305c-2.05,-8.637 -1.825,-17.087 0.671,-25.354c2.496,-8.266 6.825,-15.358 12.987,-21.283c6.163,-5.921 13.663,-9.929 22.496,-12.029Z" style="fill:#ededed;fill-rule:nonzero;"/><path d="M22071.9,13025.8c-2.1,-10.367 -1.496,-20.421 1.804,-30.167c3.3,-9.742 8.742,-18.017 16.317,-24.825c7.575,-6.808 16.662,-11.283 27.267,-13.429c10.837,-2.196 21.129,-1.642 30.875,1.662c9.741,3.3 18.029,8.796 24.858,16.492c6.833,7.692 11.296,16.721 13.396,27.088c2.1,10.37 1.508,20.483 -1.771,30.345c-3.275,9.863 -8.75,18.267 -16.417,25.217c-7.671,6.946 -16.925,11.517 -27.762,13.713c-10.604,2.145 -20.729,1.495 -30.379,-1.946c-9.65,-3.442 -17.905,-9.071 -24.759,-16.879c-6.854,-7.813 -11.329,-16.9 -13.429,-27.271Zm51.579,254.837c-2.05,-10.133 -1.425,-20.071 1.875,-29.816c3.304,-9.742 8.729,-18.075 16.279,-25c7.555,-6.925 16.629,-11.463 27.234,-13.609c10.604,-2.146 20.845,-1.521 30.733,1.875c9.883,3.396 18.242,8.938 25.075,16.634c6.829,7.691 11.271,16.604 13.321,26.737c2.146,10.6 1.579,20.833 -1.696,30.696c-3.279,9.862 -8.763,18.208 -16.458,25.037c-7.692,6.834 -16.959,11.342 -27.796,13.538c-10.604,2.146 -20.717,1.558 -30.346,-1.767c-9.625,-3.329 -17.863,-8.896 -24.721,-16.704c-6.854,-7.812 -11.354,-17.021 -13.5,-27.621Z" style="fill:#ededed;fill-rule:nonzero;"/><path d="M22673.9,3121c-1.096,-17.471 2.166,-33.817 9.783,-49.046c7.617,-15.225 18.4,-27.558 32.358,-37.004c13.959,-9.446 29.871,-14.729 47.738,-15.85c18.266,-1.142 35.008,2.092 50.237,9.708c15.225,7.617 27.567,18.504 37.025,32.659c9.454,14.154 14.734,29.97 15.825,47.437c1.096,17.471 -2.158,33.921 -9.762,49.346c-7.6,15.421 -18.475,27.962 -32.617,37.621c-14.146,9.654 -30.35,15.054 -48.612,16.2c-17.867,1.116 -34.321,-2.234 -49.363,-10.063c-15.042,-7.825 -27.296,-18.916 -36.762,-33.271c-9.471,-14.354 -14.755,-30.266 -15.85,-47.737Zm26.912,429.412c-1.067,-17.075 2.204,-33.22 9.821,-48.45c7.617,-15.224 18.396,-27.658 32.342,-37.304c13.945,-9.641 29.85,-15.025 47.716,-16.141c17.867,-1.121 34.521,2.22 49.959,10.02c15.437,7.805 27.883,18.784 37.341,32.938c9.459,14.154 14.721,29.771 15.792,46.842c1.117,17.87 -2.125,34.516 -9.725,49.941c-7.604,15.421 -18.483,27.863 -32.642,37.321c-14.154,9.459 -30.366,14.758 -48.629,15.904c-17.867,1.121 -34.317,-2.133 -49.342,-9.762c-15.029,-7.629 -27.279,-18.621 -36.745,-32.975c-9.471,-14.354 -14.767,-30.467 -15.888,-48.333Z" style="fill:#ededed;fill-rule:nonzero;"/><path d="M14444.2,6215.25c1.65,-10.446 5.725,-19.663 12.217,-27.642c6.492,-7.979 14.475,-13.837 23.95,-17.575c9.475,-3.737 19.554,-4.762 30.237,-3.075c10.925,1.725 20.376,5.834 28.359,12.325c7.979,6.496 13.829,14.538 17.546,24.129c3.716,9.592 4.75,19.613 3.1,30.063c-1.646,10.446 -5.73,19.721 -12.242,27.821c-6.508,8.1 -14.571,14.066 -24.183,17.904c-9.613,3.837 -19.88,4.892 -30.8,3.167c-10.688,-1.688 -19.95,-5.83 -27.796,-12.421c-7.842,-6.592 -13.613,-14.746 -17.313,-24.454c-3.7,-9.713 -4.725,-19.792 -3.075,-30.242Zm-40.55,256.821c1.613,-10.213 5.663,-19.309 12.159,-27.288c6.491,-7.979 14.483,-13.896 23.975,-17.754c9.496,-3.854 19.583,-4.937 30.271,-3.25c10.683,1.688 20.066,5.846 28.145,12.475c8.084,6.629 13.979,14.742 17.7,24.333c3.717,9.592 4.771,19.496 3.159,29.709c-1.688,10.683 -5.788,20.075 -12.3,28.175c-6.513,8.1 -14.563,14.008 -24.155,17.725c-9.595,3.716 -19.85,4.716 -30.775,2.991c-10.687,-1.687 -19.958,-5.77 -27.82,-12.241c-7.863,-6.475 -13.642,-14.571 -17.342,-24.279c-3.7,-9.713 -4.704,-19.913 -3.017,-30.596Z" style="fill:#ededed;fill-rule:nonzero;"/><path d="M22929.5,8479.96l34.163,-53.562l324.321,200.329l-0,72.542l-320.104,200.329l-38.38,-52.296l297.755,-183.883l-297.755,-183.459Z" style="fill:#ededed;fill-rule:nonzero;"/><path d="M7099.17,10623.7l346.296,-213.905l36.479,58.092l-317.929,194.988l317.929,196.791l-40.529,55.392l-342.246,-213.904l-0,-77.454Z" style="fill:#ededed;fill-rule:nonzero;"/><g><path d="M7085.25,22646.1l292.729,-88.633l15.296,49.221l-268.479,80.362l192.992,204.184l-40.109,32.421l-207.354,-221.3l14.925,-56.255Z" style="fill:#ededed;fill-rule:nonzero;"/><path d="M7686.58,23182.3l-327.066,-86.767l12.754,-48.079l327.066,86.767l-12.754,48.079Z" style="fill:#ededed;fill-rule:nonzero;"/></g><g><path d="M1006.71,1205.5l227.138,-204.829l34.8,38.021l-208.717,187.02l261.559,102.588l-22.488,46.412l-281.842,-111.958l-10.45,-57.254Z" style="fill:#ededed;fill-rule:nonzero;"/><path d="M1779.12,1434.67l-332.883,60.741l-8.93,-48.933l332.884,-60.742l8.929,48.934Z" style="fill:#ededed;fill-rule:nonzero;"/></g><path d="M23746.7,23518c18.862,-4.884 36.741,-6.225 53.637,-4.029c16.9,2.195 34.85,9.458 53.859,21.791l-22.284,34.113c-13.142,-8.717 -25.596,-14.375 -37.358,-16.975c-11.767,-2.605 -24.767,-2.059 -39.013,1.629c-19.825,5.133 -33.562,14.337 -41.216,27.616c-7.65,13.275 -9.184,28.771 -4.6,46.48c2.991,11.545 8.983,21.6 17.975,30.154c8.995,8.558 19.725,14.508 32.195,17.85c12.471,3.346 25.155,3.346 38.05,0.008l160.521,-41.571l9.871,38.113l-51.679,13.383l40.667,157.058c-7.184,17.467 -19.121,34.013 -35.821,49.634c-16.7,15.621 -40.063,27.316 -70.088,35.091c-28.679,7.425 -54.087,8.05 -76.225,1.871c-22.137,-6.179 -40.216,-17.108 -54.237,-32.783c-14.021,-15.675 -23.721,-33.904 -29.104,-54.692c-7.725,-29.833 -6.213,-56.308 4.541,-79.429c10.75,-23.117 29.888,-41.421 57.404,-54.912l-0.445,-1.734c-25.892,0.75 -46.28,-5.012 -61.163,-17.279c-14.883,-12.271 -24.892,-28.317 -30.025,-48.142c-4.433,-17.129 -4.058,-34.116 1.129,-50.966c5.188,-16.85 14.946,-31.7 29.284,-44.554c14.333,-12.85 32.375,-22.092 54.125,-27.725Zm54.183,198.541c-18.862,4.884 -33.533,13.459 -44.017,25.721c-10.483,12.267 -17.021,26.075 -19.616,41.433c-2.596,15.355 -2,30.35 1.787,44.975c3.788,14.63 10.213,27.342 19.275,38.142c9.058,10.796 20.721,18.354 34.983,22.671c14.263,4.317 30.63,4.083 49.109,-0.7c16.166,-4.188 29.966,-10.583 41.396,-19.192c11.429,-8.608 19.816,-18.841 25.166,-30.7l-36.483,-140.891l-71.6,18.541Z" style="fill:#ededed;fill-rule:nonzero;"/><path d="M19128,8221.5c18.85,0.867 35.783,4.729 50.795,11.588c15.009,6.854 29.55,18.704 43.621,35.541l-30.362,25.209c-9.675,-11.817 -19.584,-20.609 -29.729,-26.375c-10.146,-5.767 -22.338,-8.975 -36.571,-9.63c-19.813,-0.908 -35.159,3.688 -46.029,13.792c-10.875,10.1 -16.717,24.004 -17.53,41.7c-0.529,11.542 2.146,22.558 8.025,33.042c5.88,10.487 14.113,19.058 24.7,25.712c10.588,6.654 22.321,10.279 35.213,10.871l160.433,7.363l-1.75,38.087l-51.65,-2.371l-7.204,156.975c-11.633,14.117 -27.408,26.017 -47.325,35.704c-19.917,9.692 -44.875,13.846 -74.887,12.467c-28.663,-1.312 -52.355,-7.992 -71.08,-20.033c-18.725,-12.038 -32.337,-27.313 -40.837,-45.825c-8.5,-18.509 -12.271,-38.154 -11.321,-58.929c1.371,-29.817 10.329,-53.888 26.883,-72.213c16.55,-18.325 39.488,-29.804 68.809,-34.433l0.079,-1.729c-24.175,-6.7 -41.396,-17.855 -51.671,-33.459c-10.271,-15.604 -14.95,-33.312 -14.042,-53.125c0.788,-17.121 5.984,-32.737 15.596,-46.85c9.613,-14.112 22.888,-25.071 39.821,-32.871c16.938,-7.804 36.275,-11.204 58.013,-10.208Zm-6.542,199.221c-18.85,-0.867 -34.879,2.879 -48.083,11.237c-13.2,8.359 -23.196,19.275 -29.984,32.746c-6.787,13.471 -10.516,27.517 -11.187,42.138c-0.671,14.621 1.646,28.221 6.946,40.8c5.304,12.583 13.937,22.904 25.904,30.971c11.966,8.07 27.187,12.525 45.654,13.375c16.158,0.741 30.754,-1.242 43.792,-5.942c13.033,-4.704 23.721,-11.779 32.058,-21.229l6.463,-140.813l-71.563,-3.283Z" style="fill:#ededed;fill-rule:nonzero;"/><path d="M2897.94,18026.3c17.266,3.55 32.791,9.383 46.571,17.504c13.783,8.121 25.458,17.475 35.024,28.067l-26.241,22.229c-16.271,-18.571 -35.767,-30.442 -58.483,-35.613l-10.267,105.6c26.158,11.425 46.567,25.525 61.221,42.304c14.654,16.775 20.72,38.13 18.195,64.067c-1.454,14.975 -6.204,28.575 -14.254,40.808c-8.046,12.23 -19.171,22.096 -33.383,29.596c-14.208,7.5 -30.929,11.563 -50.158,12.188l-6.55,67.387l-31.263,-3.041l6.417,-66c-20.104,-3.2 -37.904,-9.646 -53.404,-19.334c-15.5,-9.691 -28.55,-20.896 -39.159,-33.612l25.654,-23.454c19.33,24.008 42.696,38.516 70.105,43.52l12.479,-128.291c-27.042,-11.984 -47.009,-25.804 -59.9,-41.475c-12.892,-15.671 -18.325,-33.925 -16.3,-54.767c1.246,-12.812 5.625,-24.579 13.137,-35.304c7.509,-10.725 18.009,-19.329 31.496,-25.808c13.488,-6.48 29.421,-9.684 47.804,-9.609l6.775,-69.704l31.263,3.042l-6.779,69.7Zm-34.479,30.075c-13.505,1.025 -24.521,4.941 -33.055,11.746c-8.529,6.808 -13.412,16.541 -14.641,29.2c-0.738,7.566 -0.1,14.25 1.904,20.054c2.008,5.808 5.904,11.404 11.691,16.8c5.788,5.396 14.092,10.954 24.913,16.683l9.188,-94.483Zm5.97,263.096c31.955,-3.284 49.48,-20.825 52.571,-52.625c1.309,-13.434 -1.15,-25.05 -7.362,-34.846c-6.217,-9.8 -17.546,-19.084 -33.992,-27.85l-11.217,115.321Z" style="fill:#ededed;fill-rule:nonzero;"/><path d="M16609.8,19591.8c15.412,-1.362 29.938,-0.362 43.575,2.996c13.633,3.358 25.808,8.287 36.521,14.783l-16.471,25.304c-18.363,-11.52 -37.746,-16.595 -58.154,-15.22l17.954,91.395c24.879,3.021 45.596,9.742 62.142,20.163c16.55,10.417 27.029,26.85 31.437,49.3c2.546,12.958 1.975,25.596 -1.712,37.908c-3.688,12.313 -10.563,23.413 -20.625,33.3c-10.063,9.888 -23.1,17.513 -39.113,22.879l11.454,58.325l-27.058,5.317l-11.221,-57.125c-17.712,2.371 -34.308,1.433 -49.783,-2.812c-15.475,-4.246 -29.275,-10.384 -41.396,-18.413l15.671,-26.183c22.3,15.325 45.608,21.641 69.921,18.946l-21.813,-111.038c-25.762,-3.267 -46.033,-9.862 -60.825,-19.796c-14.787,-9.933 -23.95,-23.916 -27.496,-41.958c-2.179,-11.088 -1.458,-22.088 2.159,-33c3.616,-10.908 10.279,-20.788 19.991,-29.633c9.709,-8.846 22.304,-15.555 37.784,-20.121l-11.85,-60.329l27.058,-5.317l11.85,60.329Zm-21.429,33.979c-11.096,4.259 -19.375,10.325 -24.838,18.2c-5.462,7.871 -7.116,17.288 -4.966,28.246c1.287,6.546 3.504,12.008 6.654,16.388c3.15,4.375 7.837,8.104 14.062,11.183c6.225,3.079 14.609,5.662 25.15,7.758l-16.062,-81.775Zm71.271,219.767c26.05,-10.808 36.37,-29.975 30.962,-57.5c-2.283,-11.625 -7.271,-20.775 -14.967,-27.45c-7.695,-6.679 -19.562,-11.633 -35.6,-14.867l19.605,99.817Z" style="fill:#ededed;fill-rule:nonzero;"/><path d="M15961.7,24317.6l-47.85,14.595l20.579,124.625l43.792,-13.358l10.72,35.142l-48.933,14.925l16.6,95.104l-38.929,11.875l-15.788,-95.354l-78.666,23.996l16.058,95.27l-38.929,11.871l-15.788,-95.35l-42.712,13.025l-10.717,-35.141l47.309,-14.43l-20.038,-124.787l-43.796,13.358l-10.8,-35.416l48.392,-14.759l-15.646,-93.916l38.925,-11.875l14.567,94.25l79.479,-24.242l-15.646,-93.921l38.925,-11.875l14.838,94.167l43.25,-13.192l10.804,35.413Zm-165.175,50.383l20.579,124.621l78.667,-23.996l-20.038,-124.788l-79.208,24.163Z" style="fill:#ededed;fill-rule:nonzero;"/><path d="M22079.9,18703c28.729,15.588 49.458,33.15 62.179,52.688c12.716,19.537 12.75,40.971 0.087,64.308c-2.325,4.284 -4.291,7.534 -5.9,9.742l-58.87,85.787c-2.213,3.321 -3.796,5.855 -4.742,7.6c-7.663,14.13 -7.838,27.7 -0.513,40.713c7.321,13.012 24,26.579 50.034,40.704l-17.313,31.908c-25.875,-14.037 -46.321,-20.562 -61.346,-19.57c-15.025,0.991 -26.412,8.633 -34.162,22.92c-0.946,1.746 -2.208,4.45 -3.788,8.113l-39.562,95.65c-0.975,2.554 -2.625,5.971 -4.95,10.258c-12.663,23.334 -30.646,34.996 -53.963,34.984c-23.312,-0.013 -49.333,-7.813 -78.066,-23.4l17.054,-31.43c42.383,22.992 69.275,21.146 80.671,-5.545l42.966,-103.05c2.021,-4.863 4.109,-9.275 6.259,-13.246c8.7,-16.029 19.083,-25.704 31.154,-29.017c12.071,-3.312 27.687,-1.417 46.842,5.688c-15.75,-12.246 -25.434,-24.792 -29.042,-37.638c-3.613,-12.85 -1.154,-27.133 7.371,-42.846c1.983,-3.65 4.287,-7.333 6.916,-11.041l62.963,-92.2c0.679,-0.867 1.487,-2.171 2.437,-3.917c6.63,-12.225 5.93,-23.904 -2.1,-35.042c-8.033,-11.137 -21.254,-21.7 -39.67,-31.691l17.054,-31.43Z" style="fill:#ededed;fill-rule:nonzero;"/><path d="M12808.3,15888.5l78.925,-9.629l40.138,388.367l-63.396,7.733l-55.667,-386.471Zm98.7,470.271c10.634,-1.296 20.596,0.046 29.888,4.025c9.291,3.979 16.908,9.938 22.846,17.875c5.937,7.942 9.525,16.95 10.754,27.025c1.262,10.354 -0.025,20.171 -3.867,29.442c-3.837,9.275 -9.787,16.962 -17.85,23.058c-8.062,6.096 -17.412,9.792 -28.046,11.088c-10.358,1.266 -20.108,-0.1 -29.262,-4.1c-9.15,-3.996 -16.704,-10.034 -22.658,-18.113c-5.959,-8.079 -9.567,-17.296 -10.834,-27.65c-1.229,-10.075 0.088,-19.679 3.942,-28.817c3.858,-9.133 9.746,-16.737 17.671,-22.816c7.921,-6.079 17.058,-9.754 27.416,-11.017Z" style="fill:#ededed;fill-rule:nonzero;"/><path d="M2781.08,7212.29l78.555,12.308l-67.53,384.554l-63.091,-9.887l52.066,-386.975Zm-33.575,479.346c10.584,1.658 19.8,5.67 27.65,12.037c7.85,6.367 13.546,14.183 17.092,23.442c3.542,9.258 4.529,18.904 2.958,28.933c-1.616,10.304 -5.537,19.396 -11.762,27.267c-6.229,7.871 -14.054,13.637 -23.475,17.3c-9.421,3.658 -19.425,4.662 -30.008,3.004c-10.309,-1.617 -19.317,-5.596 -27.026,-11.942c-7.712,-6.346 -13.329,-14.216 -16.85,-23.617c-3.52,-9.399 -4.475,-19.254 -2.862,-29.558c1.571,-10.029 5.462,-18.908 11.667,-26.641c6.208,-7.734 13.95,-13.442 23.233,-17.121c9.279,-3.684 19.075,-4.717 29.383,-3.104Z" style="fill:#ededed;fill-rule:nonzero;"/><path d="M1317.18,12271.9c-22.183,-2.408 -39.916,-0.929 -53.196,4.438c-13.275,5.366 -20.037,15.945 -20.279,31.745l-0.683,113.084c0.054,4.604 -0.158,9.087 -0.633,13.454c-1.934,17.821 -7.738,31.037 -17.413,39.646c-9.675,8.612 -23.317,13.525 -40.929,14.741c17.304,5.005 29.696,12.467 37.175,22.388c7.479,9.917 10.242,23.879 8.287,41.883c-0.491,4.546 -1.3,9.425 -2.416,14.642l-23.596,110.596c-0.3,1.071 -0.558,2.608 -0.775,4.608c-2.825,26.004 18.771,41.504 64.779,46.496l-3.908,36.008c-32.917,-3.571 -59.088,-12.071 -78.513,-25.496c-19.429,-13.425 -27.691,-33.5 -24.787,-60.233c0.533,-4.912 1.129,-8.708 1.787,-11.4l22.163,-102.471c0.641,-2.504 1.216,-6.125 1.729,-10.85c1.167,-10.729 -0.342,-19.725 -4.521,-26.987c-4.179,-7.263 -12.125,-13.321 -23.833,-18.179c-11.709,-4.859 -28.2,-8.446 -49.475,-10.755l3.966,-36.55c21.275,2.309 38.15,2.392 50.617,0.25c12.467,-2.145 21.521,-6.312 27.163,-12.508c5.641,-6.196 9.033,-14.567 10.179,-25.117c0.512,-4.725 0.725,-8.383 0.637,-10.97l0.4,-105.384c-0.066,-2.766 0.163,-6.608 0.696,-11.516c2.904,-26.734 15.279,-44.571 37.133,-53.513c21.855,-8.946 49.242,-11.629 82.155,-8.058l-3.909,36.008Z" style="fill:#ededed;fill-rule:nonzero;"/><g><path d="M7099.17,15169.3l107.329,-92.838l26.25,29.775l-89.417,73.309l107.617,40.787l-16.271,37.65l-130.079,-54.65l-5.429,-34.033Z" style="fill:#ededed;fill-rule:nonzero;"/><path d="M7627.75,14963.1l-8.029,26.833l166.4,69.421l5.479,34.333l-106.621,92.413l-26.937,-29.196l89.496,-73.792l-139.367,-54.258l-65.592,219.692l-40.266,-11.179l85.475,-285.496l39.962,11.229Z" style="fill:#ededed;fill-rule:nonzero;"/></g><g><path d="M19585.9,16398.3l157.896,-42.021l12.171,44.05l-129.509,30.837l90.855,96.454l-35.817,30.775l-107.125,-122.129l11.529,-37.966Z" style="fill:#ededed;fill-rule:nonzero;"/><path d="M20237,16451.2l-21.829,23.734l137.279,155.721l-11.629,38.304l-156.946,41.941l-13.175,-43.8l129.834,-31.296l-116.934,-126.399l-178.616,194.379l-36.046,-31.863l232.354,-252.483l35.708,31.762Z" style="fill:#ededed;fill-rule:nonzero;"/></g><g><path d="M8274.58,2926.51l121.467,-130.6l36.85,33.629l-101.742,103.763l140.009,36.316l-15.209,49.255l-169.962,-50.584l-11.413,-41.779Z" style="fill:#ededed;fill-rule:nonzero;"/><path d="M8906.92,2597.01l-6.379,34.613l217.35,64.095l11.516,42.155l-120.637,129.966l-37.625,-32.812l101.771,-104.375l-181.509,-48.829l-52.058,283.416l-51.829,-8.491l67.946,-368.334l51.454,8.596Z" style="fill:#ededed;fill-rule:nonzero;"/></g></svg>