<?xml version="1.0" encoding="UTF-8" standalone="no"?><!DOCTYPE svg PUBLIC "-//W3C//DTD SVG 1.1//EN" "http://www.w3.org/Graphics/SVG/1.1/DTD/svg11.dtd"><svg width="100%" height="100%" viewBox="0 0 25000 25000" version="1.1" xmlns="http://www.w3.org/2000/svg" xmlns:xlink="http://www.w3.org/1999/xlink" xml:space="preserve" xmlns:serif="http://www.serif.com/" style="fill-rule:evenodd;clip-rule:evenodd;stroke-linejoin:round;stroke-miterlimit:2;"><path d="M14024.4,12027.9c14.147,11.053 25.311,23.397 33.505,37.026c8.189,13.628 13.945,27.005 17.278,40.124c3.332,13.115 6.642,29.066 9.929,47.85c3.645,21.685 7.473,38.371 11.49,50.053c4.012,11.683 10.92,21.35 20.711,29.007c15.777,12.33 35.098,17.462 57.967,15.391c22.865,-2.065 48.544,-9.272 77.036,-21.62l29.195,63.562c-39.588,18.137 -76.939,28.929 -112.056,32.376c-35.121,3.448 -68.727,-7.372 -100.827,-32.458c-13.06,-10.205 -23.397,-21.786 -31.013,-34.749c-7.615,-12.963 -13.124,-25.816 -16.534,-38.555c-3.406,-12.743 -6.753,-28.501 -10.039,-47.281c-4.581,-23.296 -9.03,-41.014 -13.349,-53.151c-4.315,-12.137 -11.641,-22.245 -21.979,-30.324c-16.594,-12.968 -35.892,-18.408 -57.898,-16.324c-22.002,2.084 -47.598,9.466 -76.788,22.144l-30.149,-62.337c25.582,-11.995 49.622,-21.028 72.119,-27.111c22.497,-6.077 46.046,-7.615 70.641,-4.604c24.595,3.007 48.181,13.335 70.761,30.981Z" style="fill:#cecece;fill-rule:nonzero;"/><path d="M17506.7,1519.4c17.434,22.291 29.824,45.417 37.164,69.383c7.344,23.962 11.067,46.611 11.173,67.947c0.105,21.336 -0.9,46.992 -3.012,76.971c-2.676,34.566 -3.163,61.543 -1.464,80.942c1.698,19.399 8.579,36.81 20.652,52.243c19.445,24.862 47.047,40.06 82.81,45.596c35.768,5.536 77.789,4.279 126.07,-3.773l20.482,108.337c-67.455,12.688 -128.7,14.988 -183.729,6.904c-55.03,-8.088 -102.324,-37.421 -141.884,-88.002c-16.094,-20.574 -27.501,-42.227 -34.221,-64.953c-6.716,-22.723 -10.26,-44.477 -10.627,-65.262c-0.367,-20.785 0.51,-46.17 2.621,-76.149c1.859,-37.375 1.791,-66.17 -0.192,-86.377c-1.988,-20.207 -9.356,-38.458 -22.094,-54.745c-20.45,-26.151 -47.9,-41.814 -82.351,-46.996c-34.451,-5.183 -76.411,-3.622 -125.886,4.673l-22.41,-106.832c43.695,-8.611 83.907,-13.289 120.634,-14.032c36.723,-0.744 73.327,5.861 109.807,19.821c36.479,13.959 68.63,38.724 96.457,74.304Z" style="fill:#cecece;fill-rule:nonzero;"/><path d="M12488.7,18667.2c10.356,-3.07 20.414,-3.424 30.177,-1.06c9.764,2.369 18.302,7 25.615,13.891c7.312,6.89 12.435,15.29 15.377,25.191c2.938,9.902 3.241,19.794 0.909,29.673c-2.336,9.873 -6.931,18.526 -13.789,25.949c-6.858,7.423 -15.465,12.669 -25.816,15.745c-10.131,3.007 -20.037,3.254 -29.723,0.739c-9.686,-2.511 -18.201,-7.271 -25.545,-14.276c-7.345,-7.005 -12.486,-15.456 -15.424,-25.362c-2.943,-9.901 -3.227,-19.734 -0.859,-29.502c2.365,-9.764 6.941,-18.284 13.716,-25.559c6.78,-7.281 15.236,-12.422 25.362,-15.429Zm69.251,233.292c10.351,-3.071 20.408,-3.424 30.172,-1.056c9.768,2.364 18.288,6.941 25.564,13.716c7.28,6.78 12.389,15.121 15.327,25.027c2.607,8.777 4.131,17.632 4.577,26.56c0.445,8.928 -0.271,19.307 -2.149,31.127l-17.416,141.829l-51.315,15.235l-7.372,-143.655c-8.382,-2.658 -15.727,-7.395 -22.039,-14.217c-6.311,-6.821 -10.833,-14.845 -13.573,-24.072c-2.938,-9.906 -3.227,-19.738 -0.859,-29.502c2.369,-9.764 6.941,-18.288 13.721,-25.564c6.775,-7.275 15.231,-12.421 25.362,-15.428Z" style="fill:#cecece;fill-rule:nonzero;"/><path d="M10182,7336.97c19.266,2.63 36.034,9.502 50.306,20.624c14.271,11.118 24.852,25.045 31.742,41.773c6.895,16.727 9.085,34.303 6.569,52.734c-2.515,18.435 -9.346,34.886 -20.496,49.369c-11.145,14.478 -25.1,25.27 -41.855,32.371c-16.755,7.102 -34.767,9.337 -54.038,6.707c-18.848,-2.571 -35.29,-9.507 -49.323,-20.808c-14.033,-11.297 -24.481,-25.417 -31.343,-42.356c-6.863,-16.938 -9.039,-34.62 -6.523,-53.05c2.515,-18.431 9.332,-34.782 20.45,-49.053c11.122,-14.272 24.939,-24.866 41.456,-31.784c16.52,-6.922 34.202,-9.098 53.055,-6.527Zm-59.225,434.18c19.266,2.625 36.039,9.502 50.306,20.619c14.271,11.123 24.866,24.94 31.788,41.456c6.923,16.521 9.126,33.996 6.61,52.427c-2.231,16.337 -6.284,31.994 -12.169,46.982c-5.885,14.983 -14.749,31.481 -26.592,49.493l-133.671,219.856l-95.507,-13.027l94.345,-241.22c-11.788,-10.571 -20.33,-23.787 -25.632,-39.66c-5.302,-15.869 -6.78,-32.39 -4.439,-49.567c2.515,-18.431 9.332,-34.781 20.45,-49.053c11.123,-14.267 24.94,-24.866 41.46,-31.784c16.516,-6.922 34.198,-9.098 53.051,-6.522Z" style="fill:#cecece;fill-rule:nonzero;"/><path d="M41.359,22748.6c9.947,-2.364 19.477,-2.171 28.584,0.583c9.107,2.75 16.934,7.574 23.484,14.469c6.551,6.899 10.953,15.107 13.211,24.623c2.264,9.516 2.029,18.88 -0.693,28.098c-2.726,9.212 -7.523,17.149 -14.395,23.805c-6.876,6.661 -15.286,11.169 -25.233,13.533c-9.732,2.309 -19.11,2.024 -28.135,-0.859c-9.024,-2.883 -16.823,-7.831 -23.401,-14.836c-6.574,-7.005 -10.994,-15.267 -13.253,-24.783c-2.258,-9.516 -2.015,-18.83 0.739,-27.937c2.75,-9.103 7.519,-16.92 14.309,-23.443c6.789,-6.523 15.051,-10.944 24.783,-13.253Zm53.225,224.171c9.948,-2.36 19.477,-2.167 28.584,0.583c9.108,2.75 16.92,7.519 23.443,14.308c6.528,6.794 10.921,14.946 13.179,24.462c2.002,8.433 2.98,16.884 2.934,25.348c-0.046,8.465 -1.267,18.238 -3.664,29.314l-23.902,133.162l-49.309,11.71l0.564,-136.191c-7.785,-2.947 -14.482,-7.813 -20.087,-14.593c-5.61,-6.78 -9.465,-14.602 -11.572,-23.471c-2.259,-9.516 -2.011,-18.825 0.739,-27.932c2.749,-9.107 7.519,-16.92 14.308,-23.448c6.789,-6.523 15.052,-10.939 24.783,-13.252Z" style="fill:#cecece;fill-rule:nonzero;"/><path d="M23660.3,11989.4c-2.314,-11.42 -1.648,-22.497 1.988,-33.234c3.635,-10.732 9.63,-19.849 17.975,-27.349c8.346,-7.501 18.357,-12.431 30.04,-14.795c11.939,-2.419 23.278,-1.809 34.014,1.832c10.733,3.635 19.863,9.69 27.387,18.168c7.528,8.474 12.444,18.421 14.758,29.842c2.313,11.426 1.661,22.566 -1.951,33.432c-3.608,10.865 -9.64,20.124 -18.086,27.781c-8.451,7.652 -18.646,12.688 -30.586,15.107c-11.682,2.364 -22.837,1.648 -33.468,-2.144c-10.632,-3.792 -19.725,-9.993 -27.276,-18.596c-7.551,-8.607 -12.482,-18.618 -14.795,-30.044Zm56.824,280.752c-2.258,-11.164 -1.57,-22.112 2.066,-32.849c3.64,-10.732 9.617,-19.913 17.934,-27.542c8.323,-7.629 18.32,-12.628 30.003,-14.992c11.682,-2.364 22.966,-1.676 33.858,2.066c10.889,3.741 20.097,9.846 27.625,18.324c7.524,8.474 12.417,18.293 14.676,29.457c2.364,11.678 1.739,22.951 -1.869,33.817c-3.612,10.865 -9.653,20.06 -18.132,27.583c-8.473,7.529 -18.682,12.495 -30.622,14.915c-11.682,2.364 -22.823,1.716 -33.431,-1.947c-10.604,-3.668 -19.679,-9.8 -27.235,-18.403c-7.551,-8.607 -12.509,-18.751 -14.873,-30.429Z" style="fill:#cecece;fill-rule:nonzero;"/><path d="M22629.7,3042.07c-1.208,-19.247 2.387,-37.255 10.778,-54.033c8.391,-16.773 20.271,-30.361 35.649,-40.767c15.377,-10.407 32.908,-16.227 52.591,-17.462c20.125,-1.258 38.569,2.304 55.347,10.696c16.773,8.391 30.369,20.385 40.79,35.979c10.415,15.593 16.231,33.018 17.434,52.261c1.207,19.248 -2.378,37.37 -10.755,54.364c-8.373,16.989 -20.354,30.806 -35.934,41.446c-15.584,10.636 -33.436,16.585 -53.556,17.848c-19.683,1.23 -37.811,-2.461 -54.382,-11.086c-16.571,-8.621 -30.071,-20.84 -40.501,-36.654c-10.433,-15.814 -16.254,-33.345 -17.461,-52.592Zm29.649,473.079c-1.175,-18.812 2.428,-36.599 10.819,-53.377c8.392,-16.773 20.267,-30.471 35.631,-41.098c15.364,-10.622 32.885,-16.553 52.569,-17.783c19.683,-1.235 38.031,2.447 55.038,11.04c17.007,8.598 30.719,20.693 41.139,36.287c10.42,15.593 16.218,32.798 17.398,51.605c1.23,19.688 -2.342,38.026 -10.714,55.02c-8.378,16.989 -20.363,30.696 -35.961,41.116c-15.594,10.42 -33.455,16.259 -53.575,17.521c-19.683,1.235 -37.806,-2.35 -54.359,-10.755c-16.557,-8.405 -30.053,-20.514 -40.482,-36.328c-10.434,-15.814 -16.268,-33.565 -17.503,-53.248Z" style="fill:#cecece;fill-rule:nonzero;"/><path d="M14706.1,6652.63c1.818,-11.508 6.307,-21.662 13.459,-30.452c7.152,-8.791 15.947,-15.245 26.385,-19.363c10.439,-4.117 21.543,-5.246 33.313,-3.387c12.036,1.9 22.446,6.426 31.242,13.578c8.79,7.156 15.235,16.016 19.33,26.583c4.094,10.567 5.233,21.607 3.415,33.119c-1.813,11.508 -6.312,21.727 -13.487,30.65c-7.17,8.924 -16.052,15.497 -26.642,19.725c-10.59,4.228 -21.901,5.389 -33.932,3.489c-11.774,-1.859 -21.979,-6.422 -30.622,-13.684c-8.639,-7.262 -14.997,-16.246 -19.073,-26.941c-4.077,-10.7 -5.206,-21.804 -3.388,-33.317Zm-44.674,282.936c1.777,-11.25 6.239,-21.271 13.395,-30.062c7.152,-8.79 15.956,-15.309 26.413,-19.559c10.462,-4.246 21.575,-5.44 33.349,-3.581c11.77,1.859 22.107,6.44 31.008,13.744c8.905,7.303 15.401,16.24 19.5,26.807c4.095,10.567 5.256,21.479 3.479,32.73c-1.859,11.769 -6.376,22.116 -13.55,31.04c-7.175,8.923 -16.044,15.433 -26.611,19.527c-10.571,4.095 -21.868,5.197 -33.904,3.296c-11.774,-1.859 -21.988,-6.358 -30.65,-13.486c-8.662,-7.134 -15.029,-16.053 -19.105,-26.748c-4.076,-10.701 -5.183,-21.938 -3.324,-33.708Z" style="fill:#cecece;fill-rule:nonzero;"/><path d="M24605.1,6981.3l37.637,-59.009l357.3,220.7l0,79.919l-352.655,220.7l-42.282,-57.614l328.032,-202.582l-328.032,-202.114Z" style="fill:#cecece;fill-rule:nonzero;"/><path d="M7704.21,12735.7l381.51,-235.656l40.188,63.999l-350.258,214.815l350.258,216.803l-44.65,61.025l-377.048,-235.656l-0,-85.33Z" style="fill:#cecece;fill-rule:nonzero;"/><g><path d="M4195.48,23347l322.496,-97.646l16.852,54.226l-295.781,88.534l212.617,224.947l-44.187,35.717l-228.439,-243.803l16.442,-61.975Z" style="fill:#cecece;fill-rule:nonzero;"/><path d="M4857.96,23937.7l-360.325,-95.59l14.051,-52.968l360.325,95.589l-14.051,52.969Z" style="fill:#cecece;fill-rule:nonzero;"/></g><g><path d="M719.598,1105.83l250.234,-225.658l38.339,41.887l-229.941,206.038l288.156,113.02l-24.774,51.132l-310.502,-123.343l-11.512,-63.076Z" style="fill:#cecece;fill-rule:nonzero;"/><path d="M1570.56,1358.3l-366.734,66.918l-9.837,-53.909l366.734,-66.919l9.837,53.91Z" style="fill:#cecece;fill-rule:nonzero;"/></g><path d="M23504,24541.2c20.781,-5.38 40.478,-6.858 59.092,-4.439c18.619,2.419 38.394,10.42 59.335,24.007l-24.549,37.582c-14.478,-9.603 -28.199,-15.837 -41.157,-18.701c-12.964,-2.869 -27.286,-2.268 -42.98,1.794c-21.841,5.656 -36.975,15.796 -45.408,30.425c-8.428,14.625 -10.117,31.697 -5.068,51.206c3.296,12.72 9.897,23.796 19.803,33.22c9.911,9.429 21.731,15.984 35.47,19.666c13.739,3.686 27.712,3.686 41.919,0.009l176.844,-45.798l10.875,41.988l-56.935,14.744l44.802,173.029c-7.914,19.243 -21.065,37.471 -39.463,54.681c-18.398,17.209 -44.136,30.094 -77.215,38.66c-31.595,8.18 -59.587,8.868 -83.976,2.061c-24.388,-6.808 -44.306,-18.848 -59.753,-36.117c-15.446,-17.269 -26.133,-37.352 -32.063,-60.253c-8.511,-32.867 -6.845,-62.034 5.003,-87.506c11.843,-25.468 32.927,-45.633 63.242,-60.497l-0.492,-1.909c-28.524,0.826 -50.985,-5.523 -67.382,-19.037c-16.396,-13.518 -27.422,-31.196 -33.078,-53.037c-4.884,-18.871 -4.471,-37.586 1.244,-56.149c5.715,-18.564 16.466,-34.924 32.261,-49.085c15.791,-14.157 35.668,-24.338 59.629,-30.544Zm59.693,218.731c-20.78,5.38 -36.943,14.827 -48.492,28.336c-11.55,13.514 -18.752,28.727 -21.612,45.647c-2.86,16.915 -2.203,33.436 1.97,49.548c4.172,16.117 11.251,30.122 21.235,42.02c9.979,11.894 22.827,20.221 38.54,24.976c15.713,4.756 33.744,4.499 54.102,-0.771c17.811,-4.613 33.014,-11.659 45.606,-21.143c12.591,-9.484 21.831,-20.758 27.725,-33.822l-40.193,-155.218l-78.881,20.427Z" style="fill:#cecece;fill-rule:nonzero;"/><path d="M20417.1,6696.56c20.767,0.955 39.422,5.21 55.961,12.766c16.535,7.551 32.555,20.606 48.057,39.156l-33.45,27.771c-10.659,-13.018 -21.575,-22.704 -32.753,-29.057c-11.177,-6.353 -24.609,-9.887 -40.289,-10.608c-21.827,-1.001 -38.734,4.062 -50.71,15.194c-11.981,11.127 -18.417,26.445 -19.312,45.94c-0.583,12.716 2.364,24.853 8.841,36.402c6.477,11.554 15.548,20.996 27.212,28.327c11.664,7.331 24.591,11.325 38.793,11.976l176.748,8.112l-1.928,41.96l-56.902,-2.612l-7.937,172.938c-12.816,15.552 -30.196,28.662 -52.138,39.335c-21.941,10.677 -49.438,15.253 -82.502,13.734c-31.577,-1.446 -57.678,-8.804 -78.307,-22.071c-20.629,-13.261 -35.626,-30.089 -44.99,-50.484c-9.365,-20.391 -13.519,-42.034 -12.472,-64.922c1.51,-32.849 11.379,-59.367 29.617,-79.556c18.233,-20.188 43.502,-32.835 75.805,-37.934l0.087,-1.905c-26.633,-7.382 -45.605,-19.67 -56.925,-36.861c-11.315,-17.191 -16.47,-36.7 -15.47,-58.527c0.868,-18.862 6.592,-36.067 17.182,-51.614c10.59,-15.548 25.215,-27.621 43.87,-36.214c18.66,-8.597 39.964,-12.343 63.912,-11.246Zm-7.207,219.479c-20.767,-0.955 -38.426,3.172 -52.973,12.38c-14.542,9.209 -25.554,21.235 -33.032,36.076c-7.478,14.841 -11.586,30.315 -12.325,46.422c-0.739,16.108 1.813,31.091 7.652,44.949c5.844,13.863 15.355,25.233 28.538,34.12c13.184,8.892 29.952,13.799 50.297,14.736c17.801,0.817 33.881,-1.368 48.245,-6.546c14.358,-5.183 26.133,-12.977 35.318,-23.388l7.12,-155.132l-78.84,-3.617Z" style="fill:#cecece;fill-rule:nonzero;"/><path d="M2536.58,17498.4c19.023,3.911 36.126,10.338 51.307,19.285c15.185,8.946 28.047,19.252 38.586,30.92l-28.91,24.49c-17.925,-20.459 -39.403,-33.537 -64.43,-39.234l-11.311,116.338c28.819,12.587 51.302,28.121 67.446,46.606c16.145,18.481 22.828,42.007 20.047,70.582c-1.602,16.497 -6.835,31.48 -15.704,44.958c-8.864,13.472 -21.12,24.342 -36.778,32.605c-15.653,8.263 -34.074,12.738 -55.259,13.427l-7.216,74.24l-34.441,-3.351l7.069,-72.711c-22.149,-3.526 -41.759,-10.627 -58.835,-21.3c-17.076,-10.677 -31.453,-23.02 -43.14,-37.03l28.263,-25.839c21.294,26.449 47.037,42.433 77.233,47.946l13.748,-141.337c-29.792,-13.202 -51.789,-28.429 -65.991,-45.693c-14.203,-17.264 -20.189,-37.375 -17.958,-60.336c1.373,-14.115 6.197,-27.078 14.473,-38.894c8.272,-11.815 19.84,-21.295 34.699,-28.433c14.859,-7.138 32.413,-10.668 52.665,-10.585l7.464,-76.792l34.442,3.351l-7.469,76.787Zm-37.985,33.134c-14.877,1.129 -27.014,5.444 -36.415,12.94c-9.397,7.501 -14.777,18.224 -16.131,32.169c-0.812,8.336 -0.11,15.699 2.098,22.094c2.212,6.399 6.504,12.563 12.88,18.508c6.376,5.945 15.525,12.068 27.446,18.38l10.122,-104.091Zm6.578,289.849c35.204,-3.617 54.511,-22.942 57.917,-57.976c1.441,-14.799 -1.267,-27.597 -8.112,-38.389c-6.848,-10.797 -19.33,-21.024 -37.448,-30.682l-12.357,127.047Z" style="fill:#cecece;fill-rule:nonzero;"/><path d="M19272.3,11659.8c16.98,-1.501 32.982,-0.399 48.006,3.3c15.02,3.7 28.433,9.131 40.235,16.287l-18.146,27.877c-20.229,-12.692 -41.584,-18.283 -64.067,-16.768l19.779,100.689c27.41,3.329 50.233,10.733 68.461,22.213c18.233,11.476 29.778,29.581 34.635,54.313c2.804,14.277 2.175,28.199 -1.887,41.764c-4.063,13.564 -11.637,25.793 -22.722,36.686c-11.086,10.893 -25.449,19.293 -43.09,25.206l12.619,64.256l-29.81,5.857l-12.362,-62.934c-19.514,2.612 -37.797,1.579 -54.846,-3.099c-17.048,-4.677 -32.252,-11.439 -45.605,-20.284l17.264,-28.846c24.568,16.883 50.247,23.842 77.031,20.872l-24.03,-122.329c-28.382,-3.598 -50.715,-10.865 -67.01,-21.808c-16.292,-10.944 -26.386,-26.349 -30.292,-46.225c-2.401,-12.215 -1.607,-24.334 2.378,-36.356c3.984,-12.018 11.324,-22.901 22.024,-32.647c10.696,-9.745 24.572,-17.136 41.626,-22.167l-13.055,-66.464l29.809,-5.857l13.055,66.464Zm-23.608,37.434c-12.224,4.692 -21.345,11.375 -27.363,20.051c-6.018,8.671 -7.84,19.046 -5.472,31.118c1.419,7.212 3.861,13.23 7.331,18.054c3.47,4.82 8.635,8.928 15.493,12.321c6.858,3.392 16.093,6.238 27.707,8.547l-17.696,-90.091Zm78.518,242.115c28.699,-11.908 40.07,-33.023 34.111,-63.347c-2.515,-12.807 -8.01,-22.888 -16.488,-30.242c-8.479,-7.358 -21.552,-12.816 -39.22,-16.378l21.597,109.967Z" style="fill:#cecece;fill-rule:nonzero;"/><path d="M15306.4,23744.9l-52.716,16.08l22.672,137.298l48.244,-14.717l11.811,38.715l-53.909,16.443l18.288,104.775l-42.888,13.082l-17.393,-105.05l-86.666,26.436l17.692,104.958l-42.888,13.078l-17.393,-105.046l-47.056,14.35l-11.806,-38.715l52.119,-15.897l-22.075,-137.477l-48.25,14.717l-11.898,-39.018l53.313,-16.259l-17.237,-103.467l42.883,-13.082l16.048,103.834l87.561,-26.707l-17.237,-103.472l42.883,-13.082l16.347,103.742l47.648,-14.533l11.903,39.014Zm-181.972,55.506l22.672,137.294l86.666,-26.436l-22.075,-137.477l-87.263,26.619Z" style="fill:#cecece;fill-rule:nonzero;"/><path d="M22896.2,19270.6c31.65,17.173 54.488,36.521 68.502,58.046c14.01,21.524 14.046,45.137 0.096,70.847c-2.561,4.719 -4.728,8.3 -6.5,10.733l-64.857,94.511c-2.437,3.658 -4.182,6.449 -5.224,8.373c-8.441,15.565 -8.634,30.516 -0.564,44.852c8.065,14.336 26.44,29.282 55.121,44.843l-19.073,35.153c-28.506,-15.465 -51.031,-22.653 -67.584,-21.561c-16.553,1.093 -29.099,9.512 -37.637,25.252c-1.042,1.923 -2.433,4.902 -4.172,8.937l-43.586,105.377c-1.074,2.814 -2.892,6.578 -5.453,11.301c-13.95,25.706 -33.762,38.555 -59.45,38.541c-25.683,-0.014 -54.35,-8.607 -86.005,-25.779l18.788,-34.626c46.693,25.33 76.32,23.297 88.874,-6.109l47.336,-113.529c2.227,-5.357 4.526,-10.218 6.895,-14.593c9.585,-17.659 21.024,-28.318 34.322,-31.967c13.298,-3.65 30.503,-1.561 51.605,6.265c-17.352,-13.491 -28.02,-27.312 -31.995,-41.464c-3.98,-14.157 -1.271,-29.893 8.121,-47.203c2.185,-4.021 4.723,-8.079 7.62,-12.165l69.365,-101.575c0.748,-0.955 1.638,-2.392 2.685,-4.315c7.303,-13.468 6.532,-26.335 -2.314,-38.605c-8.85,-12.27 -23.415,-23.907 -43.704,-34.914l18.788,-34.626Z" style="fill:#cecece;fill-rule:nonzero;"/><path d="M16896.2,16993.1l86.951,-10.609l44.219,427.859l-69.843,8.52l-61.327,-425.77Zm108.737,518.092c11.714,-1.428 22.69,0.05 32.926,4.434c10.237,4.384 18.628,10.948 25.169,19.693c6.541,8.749 10.494,18.673 11.848,29.773c1.391,11.407 -0.028,22.222 -4.26,32.435c-4.228,10.218 -10.783,18.688 -19.665,25.403c-8.882,6.716 -19.183,10.788 -30.898,12.215c-11.411,1.396 -22.153,-0.11 -32.238,-4.517c-10.08,-4.402 -18.403,-11.053 -24.962,-19.954c-6.565,-8.901 -10.54,-19.055 -11.935,-30.462c-1.354,-11.099 0.096,-21.68 4.342,-31.747c4.251,-10.062 10.737,-18.439 19.468,-25.137c8.726,-6.697 18.793,-10.746 30.205,-12.136Z" style="fill:#cecece;fill-rule:nonzero;"/><path d="M3892.97,7116.64l86.542,13.56l-74.396,423.659l-69.507,-10.893l57.361,-426.326Zm-36.989,528.09c11.659,1.827 21.813,6.247 30.461,13.261c8.649,7.015 14.924,15.626 18.83,25.826c3.902,10.2 4.99,20.826 3.259,31.875c-1.781,11.352 -6.1,21.368 -12.958,30.04c-6.863,8.671 -15.484,15.024 -25.863,19.059c-10.378,4.03 -21.4,5.137 -33.059,3.31c-11.357,-1.782 -21.281,-6.165 -29.774,-13.156c-8.496,-6.992 -14.684,-15.663 -18.563,-26.019c-3.879,-10.356 -4.93,-21.212 -3.154,-32.564c1.731,-11.049 6.018,-20.831 12.853,-29.351c6.84,-8.519 15.369,-14.808 25.596,-18.861c10.223,-4.058 21.015,-5.197 32.372,-3.42Z" style="fill:#cecece;fill-rule:nonzero;"/><path d="M1022.2,11451.5c-24.439,-2.653 -43.976,-1.023 -58.605,4.889c-14.625,5.912 -22.075,17.567 -22.342,34.974l-0.752,124.583c0.059,5.072 -0.175,10.011 -0.698,14.822c-2.13,19.633 -8.524,34.194 -19.183,43.677c-10.659,9.488 -25.688,14.901 -45.091,16.241c19.063,5.513 32.715,13.734 40.955,24.664c8.239,10.925 11.283,26.307 9.13,46.142c-0.542,5.008 -1.432,10.384 -2.662,16.131l-25.996,121.842c-0.33,1.18 -0.615,2.874 -0.853,5.077c-3.113,28.648 20.679,45.725 71.366,51.224l-4.306,39.67c-36.264,-3.934 -65.096,-13.299 -86.496,-28.089c-21.405,-14.79 -30.508,-36.906 -27.308,-66.358c0.587,-5.412 1.244,-9.594 1.969,-12.559l24.416,-112.891c0.707,-2.759 1.341,-6.748 1.905,-11.953c1.286,-11.821 -0.376,-21.731 -4.98,-29.732c-4.604,-8.001 -13.358,-14.676 -26.257,-20.028c-12.899,-5.352 -31.068,-9.305 -54.506,-11.848l4.37,-40.266c23.438,2.543 42.029,2.634 55.764,0.275c13.734,-2.364 23.709,-6.954 29.924,-13.78c6.216,-6.826 9.952,-16.048 11.214,-27.671c0.565,-5.206 0.799,-9.236 0.703,-12.087l0.44,-116.099c-0.073,-3.048 0.18,-7.28 0.767,-12.688c3.2,-29.452 16.833,-49.103 40.909,-58.954c24.077,-9.855 54.249,-12.812 90.509,-8.878l-4.306,39.67Z" style="fill:#cecece;fill-rule:nonzero;"/><g><path d="M7595.92,18413.8l118.243,-102.278l28.919,32.803l-98.509,80.763l118.56,44.935l-17.925,41.478l-143.307,-60.207l-5.981,-37.494Z" style="fill:#cecece;fill-rule:nonzero;"/><path d="M8178.26,18186.6l-8.846,29.562l183.321,76.48l6.036,37.824l-117.463,101.81l-29.677,-32.165l98.597,-81.295l-153.539,-59.776l-72.261,242.032l-44.361,-12.316l94.166,-314.527l44.027,12.371Z" style="fill:#cecece;fill-rule:nonzero;"/></g><g><path d="M20921.5,15704.8l173.951,-46.294l13.409,48.53l-142.678,33.973l100.093,106.263l-39.459,33.904l-118.018,-134.548l12.702,-41.828Z" style="fill:#cecece;fill-rule:nonzero;"/><path d="M21638.8,15763.1l-24.049,26.147l151.239,171.555l-12.812,42.2l-172.905,46.206l-14.515,-48.254l143.036,-34.478l-128.824,-139.253l-196.78,214.145l-39.711,-35.103l255.982,-278.157l39.339,34.992Z" style="fill:#cecece;fill-rule:nonzero;"/></g><g><path d="M8358.77,3812.09l133.818,-143.88l40.598,37.049l-112.088,114.313l154.246,40.01l-16.755,54.263l-187.246,-55.727l-12.573,-46.028Z" style="fill:#cecece;fill-rule:nonzero;"/><path d="M9055.4,3449.09l-7.028,38.132l239.452,70.614l12.688,46.44l-132.905,143.183l-41.451,-36.149l112.12,-114.989l-199.966,-53.794l-57.352,312.237l-57.099,-9.356l74.855,-405.788l56.686,9.47Z" style="fill:#cecece;fill-rule:nonzero;"/></g></svg>